<?xml version="1.0" encoding="UTF-8" standalone="no"?><!DOCTYPE svg PUBLIC "-//W3C//DTD SVG 1.1//EN" "http://www.w3.org/Graphics/SVG/1.1/DTD/svg11.dtd"><svg width="100%" height="100%" viewBox="0 0 90 40" version="1.1" xmlns="http://www.w3.org/2000/svg" xmlns:xlink="http://www.w3.org/1999/xlink" xml:space="preserve" style="fill-rule:evenodd;clip-rule:evenodd;stroke-linejoin:round;stroke-miterlimit:1.41421;"><g><path d="M0.751,35.544c-0.184,0 -0.343,-0.062 -0.475,-0.187c-0.131,-0.126 -0.204,-0.28 -0.216,-0.464c-0.027,-0.474 -0.044,-0.965 -0.05,-1.472c-0.006,-0.507 -0.01,-0.978 -0.01,-1.413c0,-1.712 0.069,-3.236 0.208,-4.573c0.138,-1.337 0.323,-2.485 0.552,-3.447c0.231,-0.962 0.491,-1.732 0.781,-2.312c0.29,-0.579 0.586,-0.967 0.889,-1.165c0.197,-0.092 0.418,-0.135 0.662,-0.129c0.244,0.007 0.451,0.056 0.622,0.148c0.29,0.198 0.547,0.547 0.771,1.048c0.223,0.501 0.411,1.132 0.563,1.896c0.151,0.764 0.263,1.643 0.335,2.637c0.073,0.995 0.109,2.091 0.109,3.29c-0.013,0.843 -0.04,1.732 -0.079,2.667c-0.04,0.935 -0.099,1.902 -0.178,2.903c-0.026,0.185 -0.102,0.337 -0.227,0.455c-0.125,0.118 -0.3,0.178 -0.523,0.178c-0.185,-0.026 -0.333,-0.116 -0.445,-0.267c-0.112,-0.151 -0.168,-0.313 -0.168,-0.484c0.079,-0.961 0.135,-1.811 0.168,-2.549c0.033,-0.737 0.056,-1.481 0.069,-2.232l-1.758,0c-0.21,0 -0.392,-0.003 -0.543,-0.01c-0.152,-0.006 -0.287,-0.016 -0.405,-0.029c-0.014,0.329 -0.024,0.658 -0.03,0.988c-0.006,0.329 -0.009,0.678 -0.009,1.047c0,0.869 0.019,1.797 0.059,2.785c0,0.185 -0.066,0.346 -0.198,0.484c-0.132,0.138 -0.29,0.207 -0.474,0.207l0,0Zm3.358,-6.835c-0.013,-2.199 -0.132,-3.859 -0.355,-4.978c-0.224,-1.12 -0.461,-1.791 -0.712,-2.015c-0.303,0.237 -0.609,0.935 -0.918,2.094c-0.31,1.159 -0.524,2.772 -0.643,4.84c0.264,0.026 0.619,0.043 1.068,0.049c0.447,0.007 0.967,0.01 1.56,0.01l0,0Zm-1.126,-7.033l0.059,0.04l-0.039,-0.04l-0.02,0Zm0.118,0l-0.059,0.04c0.013,0 0.027,-0.006 0.04,-0.02l0.019,-0.02Z" style="fill:#fefefe;fill-rule:nonzero;"/><path d="M5.551,27.801c-0.013,-1.067 0.037,-2.052 0.148,-2.954c0.112,-0.902 0.267,-1.685 0.465,-2.351c0.197,-0.665 0.441,-1.194 0.731,-1.59c0.289,-0.395 0.606,-0.626 0.948,-0.692c0.513,-0.052 0.991,0.205 1.432,0.772c0.441,0.566 0.813,1.441 1.116,2.626c0.053,0.185 0.027,0.359 -0.079,0.524c-0.105,0.165 -0.237,0.267 -0.395,0.306l0.02,0c-0.198,0.066 -0.376,0.049 -0.534,-0.049c-0.158,-0.099 -0.27,-0.24 -0.335,-0.425c-0.224,-0.856 -0.428,-1.472 -0.613,-1.847c-0.184,-0.375 -0.322,-0.55 -0.415,-0.523c-0.118,0.013 -0.247,0.151 -0.385,0.414c-0.138,0.264 -0.263,0.652 -0.375,1.166c-0.112,0.514 -0.201,1.155 -0.267,1.926c-0.066,0.771 -0.092,1.67 -0.079,2.697c-0.013,1.066 0.017,1.989 0.089,2.766c0.073,0.776 0.168,1.428 0.286,1.955c0.119,0.527 0.258,0.935 0.415,1.225c0.159,0.289 0.316,0.48 0.475,0.573c0.026,0.026 0.052,0.026 0.078,0c0.198,-0.119 0.379,-0.392 0.543,-0.821c0.165,-0.427 0.241,-1.003 0.228,-1.728c0,-0.184 0.062,-0.346 0.188,-0.484c0.125,-0.138 0.293,-0.207 0.503,-0.207c0.184,0 0.346,0.069 0.485,0.207c0.138,0.138 0.207,0.3 0.207,0.484c0,0.883 -0.129,1.66 -0.386,2.331c-0.256,0.672 -0.608,1.14 -1.057,1.403c-0.263,0.145 -0.506,0.217 -0.731,0.217c-0.236,0 -0.486,-0.072 -0.75,-0.217c-0.632,-0.382 -1.12,-1.241 -1.462,-2.578c-0.342,-1.337 -0.507,-3.045 -0.494,-5.126" style="fill:#fefefe;fill-rule:nonzero;"/><path d="M14.382,27.643c-0.158,0.197 -0.329,0.388 -0.514,0.573c0.053,0.289 0.142,0.714 0.267,1.273c0.125,0.561 0.283,1.149 0.474,1.769c0.191,0.618 0.415,1.218 0.671,1.797c0.257,0.58 0.544,1.027 0.86,1.344c0.119,0.132 0.181,0.28 0.188,0.444c0.006,0.164 -0.043,0.313 -0.148,0.445c-0.132,0.171 -0.31,0.256 -0.534,0.256c-0.184,0 -0.342,-0.066 -0.474,-0.197c-0.342,-0.355 -0.652,-0.807 -0.929,-1.353c-0.275,-0.547 -0.52,-1.123 -0.731,-1.729c-0.21,-0.605 -0.388,-1.195 -0.532,-1.768c-0.146,-0.573 -0.264,-1.063 -0.356,-1.472c-0.237,0.093 -0.487,0.151 -0.751,0.178c0.026,1.528 0.05,2.759 0.07,3.694c0.019,0.935 0.049,1.522 0.088,1.758c0.026,0.04 0.043,0.076 0.05,0.109c0.006,0.033 0.01,0.083 0.01,0.148c0,0.185 -0.07,0.346 -0.208,0.484c-0.139,0.138 -0.3,0.208 -0.484,0.208c-0.092,0 -0.181,-0.024 -0.267,-0.07c-0.085,-0.046 -0.164,-0.204 -0.236,-0.474c-0.073,-0.269 -0.136,-0.697 -0.189,-1.284c-0.052,-0.586 -0.098,-1.419 -0.138,-2.499c-0.039,-1.079 -0.069,-2.453 -0.089,-4.119c-0.019,-1.666 -0.029,-3.717 -0.029,-6.153c0,-0.106 0.02,-0.184 0.059,-0.237c0,-0.066 0.046,-0.145 0.138,-0.238c0.132,-0.131 0.297,-0.197 0.494,-0.197c0.58,0 1.087,0.063 1.522,0.187c0.434,0.126 0.802,0.291 1.105,0.495c0.304,0.204 0.554,0.428 0.751,0.671c0.198,0.244 0.356,0.485 0.474,0.721c0.29,0.567 0.435,1.225 0.435,1.976c0,0.567 -0.089,1.133 -0.266,1.699c-0.179,0.566 -0.439,1.086 -0.781,1.561l0,0Zm-2.568,-5.887c0,1.106 0,2.172 0,3.199c0,1.028 0.007,1.976 0.019,2.846c0.343,-0.053 0.632,-0.182 0.87,-0.386c0.237,-0.204 0.428,-0.398 0.573,-0.583c0.25,-0.355 0.444,-0.747 0.583,-1.175c0.138,-0.428 0.207,-0.853 0.207,-1.274c0,-0.514 -0.098,-0.968 -0.297,-1.363c-0.355,-0.698 -1.007,-1.12 -1.955,-1.264l0,0Zm0.039,6.46c0,-0.067 -0.003,-0.136 -0.01,-0.208c-0.006,-0.073 -0.01,-0.142 -0.01,-0.207c-0.065,0.013 -0.124,0.022 -0.177,0.029c-0.053,0.007 -0.112,0.003 -0.178,-0.01l0.375,0.396Z" style="fill:#fefefe;fill-rule:nonzero;"/><path d="M20.94,28.136c0.013,1.08 -0.036,2.075 -0.148,2.983c-0.112,0.909 -0.27,1.696 -0.474,2.361c-0.204,0.665 -0.458,1.192 -0.761,1.58c-0.303,0.389 -0.638,0.61 -1.007,0.662l-0.178,0c-0.184,0 -0.381,-0.046 -0.592,-0.138c-0.211,-0.092 -0.425,-0.266 -0.642,-0.524c-0.218,-0.257 -0.432,-0.605 -0.643,-1.046c-0.21,-0.442 -0.415,-1.011 -0.612,-1.71c-0.092,-0.342 -0.151,-0.75 -0.178,-1.224c-0.026,-0.474 -0.039,-0.988 -0.039,-1.541c0,-0.632 0.013,-1.281 0.039,-1.946c0.027,-0.665 0.053,-1.274 0.079,-1.827c0.04,-0.685 0.06,-1.219 0.06,-1.6c0,-0.87 0.131,-1.64 0.395,-2.312c0.263,-0.671 0.625,-1.139 1.086,-1.402l-0.02,0c0.237,-0.158 0.508,-0.238 0.81,-0.238c0.119,0 0.25,0.024 0.396,0.07c0.145,0.046 0.276,0.102 0.395,0.168c0.658,0.408 1.165,1.28 1.521,2.618c0.355,1.336 0.526,3.025 0.513,5.066l0,0Zm-2.588,6.203c0.132,-0.013 0.273,-0.151 0.425,-0.415c0.151,-0.263 0.287,-0.651 0.406,-1.165c0.117,-0.513 0.213,-1.152 0.285,-1.917c0.073,-0.763 0.102,-1.666 0.089,-2.706c0.013,-1.053 -0.019,-1.965 -0.099,-2.736c-0.078,-0.77 -0.18,-1.419 -0.306,-1.946c-0.124,-0.527 -0.27,-0.938 -0.435,-1.234c-0.164,-0.297 -0.332,-0.491 -0.503,-0.583c-0.066,-0.039 -0.138,-0.039 -0.218,0l0.021,-0.02c-0.198,0.119 -0.383,0.395 -0.553,0.83c-0.172,0.434 -0.251,1.007 -0.238,1.719c0,0.184 -0.003,0.421 -0.01,0.711c-0.007,0.289 -0.022,0.605 -0.049,0.948c-0.026,0.527 -0.056,1.116 -0.089,1.768c-0.033,0.652 -0.049,1.281 -0.049,1.887c0,0.5 0.013,0.974 0.039,1.422c0.027,0.448 0.073,0.804 0.139,1.067c0.223,0.803 0.441,1.406 0.652,1.807c0.21,0.402 0.368,0.59 0.474,0.563l0.019,0Z" style="fill:#fefefe;fill-rule:nonzero;"/><path d="M24.871,28.117c-0.329,0.447 -0.698,0.796 -1.106,1.047c-0.408,0.25 -0.843,0.401 -1.304,0.454c0.026,1.422 0.05,2.562 0.069,3.417c0.02,0.857 0.05,1.39 0.089,1.601c0.04,0.079 0.06,0.171 0.06,0.276c0,0.185 -0.07,0.346 -0.208,0.484c-0.139,0.138 -0.3,0.208 -0.484,0.208c-0.092,0 -0.181,-0.024 -0.267,-0.07c-0.085,-0.046 -0.164,-0.204 -0.237,-0.474c-0.072,-0.269 -0.135,-0.697 -0.188,-1.284c-0.052,-0.586 -0.098,-1.419 -0.138,-2.499c-0.04,-1.079 -0.069,-2.453 -0.089,-4.119c-0.019,-1.666 -0.029,-3.717 -0.029,-6.153c0,-0.079 0.02,-0.158 0.059,-0.237c0,-0.066 0.046,-0.145 0.138,-0.238c0.132,-0.131 0.297,-0.197 0.494,-0.197c0.567,0 1.063,0.066 1.491,0.197c0.429,0.133 0.794,0.301 1.097,0.505c0.303,0.204 0.557,0.431 0.761,0.681c0.204,0.251 0.365,0.494 0.483,0.731c0.145,0.316 0.26,0.655 0.346,1.017c0.086,0.362 0.129,0.735 0.129,1.116c0,0.62 -0.099,1.235 -0.296,1.847c-0.198,0.613 -0.488,1.176 -0.87,1.69l0,0Zm-0.533,-5.038c-0.382,-0.725 -1.027,-1.165 -1.936,-1.323c0,1.304 0.003,2.468 0.01,3.496c0.007,1.027 0.016,2.022 0.029,2.983c0.316,-0.053 0.586,-0.178 0.811,-0.375c0.223,-0.198 0.401,-0.382 0.532,-0.554c0.238,-0.368 0.442,-0.806 0.613,-1.314c0.171,-0.506 0.257,-0.977 0.257,-1.412c0,-0.579 -0.105,-1.08 -0.316,-1.501l0,0Zm-2.351,-1.363l0.415,0.04l0,-0.435l-0.415,0.395Z" style="fill:#fefefe;fill-rule:nonzero;"/><path d="M31.153,28.136c0.014,1.08 -0.036,2.075 -0.148,2.983c-0.112,0.909 -0.27,1.696 -0.474,2.361c-0.204,0.665 -0.458,1.192 -0.76,1.58c-0.304,0.389 -0.639,0.61 -1.008,0.662l-0.178,0c-0.184,0 -0.382,-0.046 -0.592,-0.138c-0.211,-0.092 -0.425,-0.266 -0.642,-0.524c-0.218,-0.257 -0.432,-0.605 -0.643,-1.046c-0.21,-0.442 -0.415,-1.011 -0.612,-1.71c-0.092,-0.342 -0.151,-0.75 -0.178,-1.224c-0.026,-0.474 -0.039,-0.988 -0.039,-1.541c0,-0.632 0.013,-1.281 0.039,-1.946c0.027,-0.665 0.053,-1.274 0.079,-1.827c0.04,-0.685 0.06,-1.219 0.06,-1.6c0,-0.87 0.131,-1.64 0.395,-2.312c0.263,-0.671 0.625,-1.139 1.086,-1.402l-0.019,0c0.236,-0.158 0.507,-0.238 0.809,-0.238c0.119,0 0.25,0.024 0.396,0.07c0.145,0.046 0.276,0.102 0.395,0.168c0.658,0.408 1.165,1.28 1.521,2.618c0.355,1.336 0.527,3.025 0.513,5.066l0,0Zm-2.588,6.203c0.132,-0.013 0.274,-0.151 0.425,-0.415c0.151,-0.263 0.287,-0.651 0.406,-1.165c0.117,-0.513 0.213,-1.152 0.285,-1.917c0.073,-0.763 0.102,-1.666 0.09,-2.706c0.012,-1.053 -0.02,-1.965 -0.1,-2.736c-0.078,-0.77 -0.18,-1.419 -0.306,-1.946c-0.124,-0.527 -0.27,-0.938 -0.434,-1.234c-0.164,-0.297 -0.333,-0.491 -0.504,-0.583c-0.066,-0.039 -0.138,-0.039 -0.218,0l0.021,-0.02c-0.198,0.119 -0.383,0.395 -0.553,0.83c-0.172,0.434 -0.251,1.007 -0.238,1.719c0,0.184 -0.003,0.421 -0.01,0.711c-0.006,0.289 -0.022,0.605 -0.049,0.948c-0.026,0.527 -0.056,1.116 -0.089,1.768c-0.032,0.652 -0.049,1.281 -0.049,1.887c0,0.5 0.013,0.974 0.039,1.422c0.027,0.448 0.073,0.804 0.139,1.067c0.223,0.803 0.441,1.406 0.652,1.807c0.21,0.402 0.368,0.59 0.474,0.563l0.019,0Z" style="fill:#fefefe;fill-rule:nonzero;"/><path d="M32.022,35.544c-0.092,0 -0.177,-0.032 -0.257,-0.098c-0.184,-0.067 -0.289,-0.142 -0.316,-0.228c-0.026,-0.085 -0.039,-0.207 -0.039,-0.365c0,-0.013 0.003,-0.02 0.01,-0.02c0.007,0 0.01,-0.013 0.01,-0.039c-0.04,-0.237 -0.07,-0.629 -0.09,-1.176c-0.019,-0.546 -0.036,-1.346 -0.049,-2.4c-0.012,-1.054 -0.023,-2.404 -0.029,-4.05c-0.007,-1.646 -0.01,-3.687 -0.01,-6.124c0,-0.21 0.069,-0.378 0.207,-0.503c0.138,-0.126 0.3,-0.188 0.484,-0.188c0.184,0 0.346,0.062 0.484,0.188c0.139,0.125 0.208,0.293 0.208,0.503c0,1.844 0.002,3.517 0.009,5.018c0.007,1.501 0.014,2.808 0.02,3.922c0.007,1.112 0.017,2.028 0.029,2.745c0.014,0.718 0.027,1.209 0.04,1.472l0.139,0c0.224,0 0.487,0.004 0.79,0.01c0.303,0.007 0.651,0.01 1.047,0.01c0.184,0 0.342,0.069 0.474,0.207c0.132,0.139 0.198,0.3 0.198,0.484c0,0.185 -0.066,0.346 -0.198,0.484c-0.132,0.138 -0.29,0.208 -0.474,0.208c-0.79,0 -1.39,-0.004 -1.798,-0.01c-0.408,-0.007 -0.704,-0.023 -0.889,-0.05" style="fill:#fefefe;fill-rule:nonzero;"/><path d="M37.849,21.696c0,3.516 0.017,6.355 0.05,8.515c0.033,2.159 0.076,3.496 0.129,4.01l0.849,0c0.184,0 0.346,0.069 0.484,0.207c0.139,0.139 0.207,0.3 0.207,0.484c0,0.185 -0.068,0.346 -0.207,0.484c-0.138,0.138 -0.3,0.208 -0.484,0.208l-3.141,0c-0.184,0 -0.345,-0.07 -0.484,-0.208c-0.138,-0.138 -0.208,-0.299 -0.208,-0.484c0,-0.184 0.07,-0.345 0.208,-0.484c0.139,-0.138 0.3,-0.207 0.484,-0.207l0.949,0c-0.027,-0.356 -0.053,-0.846 -0.08,-1.472c-0.026,-0.625 -0.049,-1.432 -0.068,-2.42c-0.021,-0.988 -0.034,-2.19 -0.041,-3.606c-0.005,-1.415 -0.009,-3.091 -0.009,-5.027l-1.126,0c-0.184,0 -0.346,-0.069 -0.484,-0.207c-0.139,-0.138 -0.208,-0.299 -0.208,-0.484c0,-0.184 0.069,-0.342 0.208,-0.475c0.138,-0.131 0.3,-0.197 0.484,-0.197l3.516,0c0.184,0 0.346,0.066 0.484,0.197c0.139,0.133 0.207,0.291 0.207,0.475c0,0.185 -0.068,0.346 -0.207,0.484c-0.138,0.138 -0.3,0.207 -0.484,0.207l-1.028,0l0,0Z" style="fill:#fefefe;fill-rule:nonzero;"/><path d="M42.216,35.722c-0.316,0 -0.629,-0.056 -0.939,-0.168c-0.309,-0.112 -0.596,-0.266 -0.859,-0.464c-0.408,-0.329 -0.718,-0.724 -0.928,-1.185c-0.211,-0.462 -0.317,-0.968 -0.317,-1.521c0,-0.316 0.034,-0.626 0.099,-0.929c0.04,-0.184 0.139,-0.329 0.296,-0.434c0.159,-0.106 0.336,-0.133 0.534,-0.079c0.171,0.052 0.312,0.157 0.425,0.316c0.112,0.157 0.141,0.329 0.088,0.513c-0.039,0.185 -0.059,0.389 -0.059,0.613c0,0.342 0.059,0.648 0.178,0.918c0.119,0.27 0.297,0.498 0.534,0.682c0.289,0.237 0.599,0.355 0.928,0.355c0.171,0 0.336,-0.039 0.494,-0.118c0.54,-0.263 0.81,-0.876 0.81,-1.837c0.027,-0.646 -0.138,-1.258 -0.495,-1.838c-0.355,-0.579 -0.777,-1.185 -1.263,-1.817l-0.336,-0.454l-0.257,-0.336l0.039,0.039c-0.579,-0.697 -0.997,-1.422 -1.254,-2.173c-0.257,-0.75 -0.385,-1.468 -0.385,-2.153c0,-0.421 0.043,-0.827 0.128,-1.215c0.086,-0.389 0.221,-0.734 0.406,-1.037c0.262,-0.382 0.578,-0.678 0.948,-0.889c0.368,-0.21 0.743,-0.316 1.126,-0.316c0.223,0 0.447,0.039 0.671,0.119c0.145,0.052 0.323,0.151 0.534,0.296c0.21,0.145 0.411,0.359 0.602,0.641c0.191,0.284 0.349,0.656 0.474,1.117c0.126,0.461 0.181,1.027 0.168,1.699c0,0.211 -0.059,0.385 -0.178,0.523c-0.119,0.139 -0.303,0.195 -0.553,0.168c-0.184,-0.026 -0.343,-0.102 -0.474,-0.227c-0.132,-0.125 -0.185,-0.3 -0.158,-0.523l0,0.019c0.026,-0.671 -0.033,-1.215 -0.178,-1.629c-0.145,-0.415 -0.362,-0.676 -0.652,-0.781c-0.197,-0.065 -0.401,-0.055 -0.612,0.03c-0.211,0.085 -0.395,0.24 -0.554,0.464c-0.21,0.382 -0.316,0.896 -0.316,1.541c0,0.527 0.1,1.09 0.297,1.689c0.198,0.599 0.54,1.195 1.027,1.788l-0.02,-0.02l0.119,0.138l0.494,0.652l0,-0.02c0.276,0.369 0.54,0.728 0.79,1.077c0.25,0.349 0.471,0.705 0.662,1.067c0.191,0.362 0.335,0.741 0.434,1.136c0.099,0.395 0.142,0.817 0.129,1.264c0,0.5 -0.056,0.928 -0.168,1.284c-0.112,0.356 -0.247,0.652 -0.405,0.889c-0.158,0.237 -0.326,0.425 -0.503,0.563c-0.179,0.139 -0.347,0.241 -0.505,0.307l0.02,0c-0.368,0.17 -0.731,0.256 -1.086,0.256" style="fill:#fefefe;fill-rule:nonzero;"/><path d="M43.666,35.038l25.043,0l0,-0.718l-25.043,0l0,0.718Zm25.229,0.421l-25.415,0c-0.104,0 -0.187,-0.094 -0.187,-0.21l0,-1.139c0,-0.118 0.083,-0.211 0.187,-0.211l25.415,0c0.104,0 0.187,0.093 0.187,0.211l0,1.139c0,0.116 -0.083,0.21 -0.187,0.21" style="fill:#fefefe;"/><path d="M40.139,19.788l27.782,0l0,-1.456l-27.782,0l0,1.456Zm27.993,0.421l-28.204,0c-0.116,0 -0.21,-0.094 -0.21,-0.21l0,-1.877c0,-0.117 0.094,-0.211 0.21,-0.211l28.204,0c0.116,0 0.211,0.094 0.211,0.211l0,1.877c0,0.116 -0.095,0.21 -0.211,0.21" style="fill:#fefefe;"/><path d="M42.585,20.97l24.114,0l0,-0.718l-24.114,0l0,0.718Zm-0.402,-0.761l0,-0.168c0,-0.116 0.09,-0.21 0.201,-0.21l24.515,0c0.112,0 0.201,0.094 0.201,0.21l0,1.14c0,0.117 -0.089,0.211 -0.201,0.211l-24.515,0c-0.111,0 -0.201,-0.094 -0.201,-0.211l0,-0.579" style="fill:#fefefe;"/><path d="M45.524,32.759l0.778,0l0,-11.301l-0.778,0l0,11.301Zm0.989,0.421l-1.199,0c-0.116,0 -0.211,-0.094 -0.211,-0.21l0,-11.722c0,-0.117 0.095,-0.211 0.211,-0.211l1.199,0c0.056,0 0.109,0.022 0.149,0.061c0.039,0.04 0.061,0.094 0.061,0.15l0,11.722c0,0.116 -0.094,0.21 -0.21,0.21" style="fill:#fefefe;"/><path d="M47.091,22.431l-2.356,0c-0.116,0 -0.21,-0.094 -0.21,-0.21c0,-0.117 0.094,-0.211 0.21,-0.211l2.356,0c0.117,0 0.211,0.094 0.211,0.211c0,0.116 -0.094,0.21 -0.211,0.21" style="fill:#fefefe;"/><path d="M48.771,32.759l0.778,0l0,-11.301l-0.778,0l0,11.301Zm0.989,0.421l-1.199,0c-0.117,0 -0.211,-0.094 -0.211,-0.21l0,-11.722c0,-0.117 0.094,-0.211 0.211,-0.211l1.199,0c0.055,0 0.108,0.022 0.148,0.061c0.04,0.04 0.063,0.094 0.063,0.15l0,11.722c0,0.116 -0.096,0.21 -0.211,0.21" style="fill:#fefefe;"/><path d="M50.338,22.431l-2.356,0c-0.116,0 -0.211,-0.094 -0.211,-0.21c0,-0.117 0.094,-0.211 0.211,-0.211l2.356,0c0.116,0 0.211,0.094 0.211,0.211c0,0.116 -0.095,0.21 -0.211,0.21" style="fill:#fefefe;"/><path d="M52.018,32.759l0.777,0l0,-11.301l-0.777,0l0,11.301Zm0.988,0.421l-1.199,0c-0.116,0 -0.211,-0.094 -0.211,-0.21l0,-11.722c0,-0.117 0.095,-0.211 0.211,-0.211l1.199,0c0.055,0 0.109,0.022 0.149,0.061c0.04,0.04 0.062,0.094 0.062,0.15l0,11.722c0,0.116 -0.094,0.21 -0.211,0.21" style="fill:#fefefe;"/><path d="M53.584,22.431l-2.356,0c-0.115,0 -0.211,-0.094 -0.211,-0.21c0,-0.117 0.096,-0.211 0.211,-0.211l2.356,0c0.117,0 0.211,0.094 0.211,0.211c0,0.116 -0.094,0.21 -0.211,0.21" style="fill:#fefefe;"/><path d="M55.265,32.759l0.777,0l0,-11.301l-0.777,0l0,11.301Zm0.988,0.421l-1.199,0c-0.117,0 -0.211,-0.094 -0.211,-0.21l0,-11.722c0,-0.117 0.094,-0.211 0.211,-0.211l1.199,0c0.056,0 0.11,0.022 0.149,0.061c0.04,0.04 0.061,0.094 0.061,0.15l0,11.722c0,0.116 -0.094,0.21 -0.21,0.21" style="fill:#fefefe;"/><path d="M56.831,22.431l-2.356,0c-0.116,0 -0.21,-0.094 -0.21,-0.21c0,-0.117 0.094,-0.211 0.21,-0.211l2.356,0c0.117,0 0.211,0.094 0.211,0.211c0,0.116 -0.094,0.21 -0.211,0.21" style="fill:#fefefe;"/><path d="M58.512,32.759l0.777,0l0,-11.301l-0.777,0l0,11.301Zm0.987,0.421l-1.198,0c-0.056,0 -0.11,-0.022 -0.149,-0.061c-0.04,-0.04 -0.061,-0.093 -0.061,-0.149l0,-11.722c0,-0.117 0.093,-0.211 0.21,-0.211l1.198,0c0.056,0 0.11,0.022 0.149,0.061c0.04,0.04 0.062,0.094 0.062,0.15l0,11.722c0,0.116 -0.094,0.21 -0.211,0.21" style="fill:#fefefe;"/><path d="M60.079,22.431l-2.357,0c-0.117,0 -0.211,-0.094 -0.211,-0.21c0,-0.117 0.094,-0.211 0.211,-0.211l2.357,0c0.116,0 0.21,0.094 0.21,0.211c0,0.116 -0.094,0.21 -0.21,0.21" style="fill:#fefefe;"/><path d="M61.758,32.759l0.777,0l0,-11.301l-0.777,0l0,11.301Zm0.988,0.421l-1.199,0c-0.056,0 -0.11,-0.022 -0.149,-0.061c-0.039,-0.04 -0.061,-0.093 -0.061,-0.149l0,-11.722c0,-0.117 0.094,-0.211 0.21,-0.211l1.199,0c0.117,0 0.211,0.094 0.211,0.211l0,11.722c0,0.116 -0.094,0.21 -0.211,0.21" style="fill:#fefefe;"/><path d="M63.325,22.431l-2.356,0c-0.117,0 -0.211,-0.094 -0.211,-0.21c0,-0.117 0.094,-0.211 0.211,-0.211l2.356,0c0.116,0 0.21,0.094 0.21,0.211c0,0.116 -0.094,0.21 -0.21,0.21" style="fill:#fefefe;"/><path d="M65.005,32.759l0.778,0l0,-11.301l-0.778,0l0,11.301Zm0.988,0.421l-1.198,0c-0.056,0 -0.11,-0.022 -0.15,-0.061c-0.04,-0.04 -0.061,-0.093 -0.061,-0.149l0,-11.722c0,-0.117 0.094,-0.211 0.211,-0.211l1.198,0c0.116,0 0.211,0.094 0.211,0.211l0,11.722c0,0.116 -0.095,0.21 -0.211,0.21" style="fill:#fefefe;"/><path d="M66.572,22.431l-2.356,0c-0.117,0 -0.211,-0.094 -0.211,-0.21c0,-0.117 0.094,-0.211 0.211,-0.211l2.356,0c0.115,0 0.211,0.094 0.211,0.211c0,0.116 -0.096,0.21 -0.211,0.21" style="fill:#fefefe;"/><path d="M54.031,10.448l-14.311,7.434l28.62,0l-14.309,-7.434l0,0Zm-15.175,7.855c-0.096,0 -0.181,-0.066 -0.204,-0.16c-0.023,-0.094 0.021,-0.192 0.108,-0.237l15.173,-7.882c0.06,-0.032 0.133,-0.032 0.194,0l15.173,7.882c0.087,0.045 0.131,0.143 0.108,0.237c-0.024,0.094 -0.108,0.16 -0.205,0.16l-30.347,0l0,0Z" style="fill:#fefefe;"/><path d="M66.193,18.303c-0.031,0 -0.064,-0.006 -0.094,-0.021l-12.068,-6.003l-12.07,6.003c-0.104,0.051 -0.231,0.009 -0.283,-0.096c-0.052,-0.104 -0.01,-0.23 0.095,-0.282l12.163,-6.048c0.059,-0.03 0.128,-0.03 0.188,0l12.163,6.048c0.104,0.052 0.146,0.178 0.095,0.282c-0.037,0.074 -0.111,0.117 -0.189,0.117" style="fill:#fefefe;"/><path d="M44.157,33.899l22.522,0l0,-0.719l-22.522,0l0,0.719Zm22.732,0.421l-22.943,0c-0.117,0 -0.21,-0.094 -0.21,-0.21l0,-1.14c0,-0.117 0.093,-0.211 0.21,-0.211l22.943,0c0.117,0 0.211,0.094 0.211,0.211l0,1.14c0,0.116 -0.094,0.21 -0.211,0.21" style="fill:#fefefe;"/><path d="M40.139,19.788l27.782,0l0,-1.456l-27.782,0l0,1.456Zm27.993,0.421l-28.204,0c-0.116,0 -0.21,-0.094 -0.21,-0.21l0,-1.877c0,-0.117 0.094,-0.211 0.21,-0.211l28.204,0c0.116,0 0.211,0.094 0.211,0.211l0,1.877c0,0.116 -0.095,0.21 -0.211,0.21" style="fill:#fefefe;"/><path d="M45.524,32.759l0.778,0l0,-11.301l-0.778,0l0,11.301Zm0.989,0.421l-1.199,0c-0.116,0 -0.211,-0.094 -0.211,-0.21l0,-11.722c0,-0.117 0.095,-0.211 0.211,-0.211l1.199,0c0.056,0 0.109,0.022 0.149,0.061c0.039,0.04 0.061,0.094 0.061,0.15l0,11.722c0,0.116 -0.094,0.21 -0.21,0.21" style="fill:#fefefe;"/><path d="M47.091,22.431l-2.356,0c-0.116,0 -0.21,-0.094 -0.21,-0.21c0,-0.117 0.094,-0.211 0.21,-0.211l2.356,0c0.117,0 0.211,0.094 0.211,0.211c0,0.116 -0.094,0.21 -0.211,0.21" style="fill:#fefefe;"/><path d="M48.771,32.759l0.778,0l0,-11.301l-0.778,0l0,11.301Zm0.989,0.421l-1.199,0c-0.117,0 -0.211,-0.094 -0.211,-0.21l0,-11.722c0,-0.117 0.094,-0.211 0.211,-0.211l1.199,0c0.055,0 0.108,0.022 0.148,0.061c0.04,0.04 0.063,0.094 0.063,0.15l0,11.722c0,0.116 -0.096,0.21 -0.211,0.21" style="fill:#fefefe;"/><path d="M50.338,22.431l-2.356,0c-0.116,0 -0.211,-0.094 -0.211,-0.21c0,-0.117 0.094,-0.211 0.211,-0.211l2.356,0c0.116,0 0.211,0.094 0.211,0.211c0,0.116 -0.095,0.21 -0.211,0.21" style="fill:#fefefe;"/><path d="M52.018,32.759l0.777,0l0,-11.301l-0.777,0l0,11.301Zm0.988,0.421l-1.199,0c-0.116,0 -0.211,-0.094 -0.211,-0.21l0,-11.722c0,-0.117 0.095,-0.211 0.211,-0.211l1.199,0c0.055,0 0.109,0.022 0.149,0.061c0.04,0.04 0.062,0.094 0.062,0.15l0,11.722c0,0.116 -0.094,0.21 -0.211,0.21" style="fill:#fefefe;"/><path d="M53.584,22.431l-2.356,0c-0.115,0 -0.211,-0.094 -0.211,-0.21c0,-0.117 0.096,-0.211 0.211,-0.211l2.356,0c0.117,0 0.211,0.094 0.211,0.211c0,0.116 -0.094,0.21 -0.211,0.21" style="fill:#fefefe;"/><path d="M55.265,32.759l0.777,0l0,-11.301l-0.777,0l0,11.301Zm0.988,0.421l-1.199,0c-0.117,0 -0.211,-0.094 -0.211,-0.21l0,-11.722c0,-0.117 0.094,-0.211 0.211,-0.211l1.199,0c0.056,0 0.11,0.022 0.149,0.061c0.04,0.04 0.061,0.094 0.061,0.15l0,11.722c0,0.116 -0.094,0.21 -0.21,0.21" style="fill:#fefefe;"/><path d="M56.831,22.431l-2.356,0c-0.116,0 -0.21,-0.094 -0.21,-0.21c0,-0.117 0.094,-0.211 0.21,-0.211l2.356,0c0.117,0 0.211,0.094 0.211,0.211c0,0.116 -0.094,0.21 -0.211,0.21" style="fill:#fefefe;"/><path d="M58.512,32.759l0.777,0l0,-11.301l-0.777,0l0,11.301Zm0.987,0.421l-1.198,0c-0.056,0 -0.11,-0.022 -0.149,-0.061c-0.04,-0.04 -0.061,-0.093 -0.061,-0.149l0,-11.722c0,-0.117 0.093,-0.211 0.21,-0.211l1.198,0c0.056,0 0.11,0.022 0.149,0.061c0.04,0.04 0.062,0.094 0.062,0.15l0,11.722c0,0.116 -0.094,0.21 -0.211,0.21" style="fill:#fefefe;"/><path d="M60.079,22.431l-2.357,0c-0.117,0 -0.211,-0.094 -0.211,-0.21c0,-0.117 0.094,-0.211 0.211,-0.211l2.357,0c0.116,0 0.21,0.094 0.21,0.211c0,0.116 -0.094,0.21 -0.21,0.21" style="fill:#fefefe;"/><path d="M61.758,32.759l0.777,0l0,-11.301l-0.777,0l0,11.301Zm0.988,0.421l-1.199,0c-0.056,0 -0.11,-0.022 -0.149,-0.061c-0.039,-0.04 -0.061,-0.093 -0.061,-0.149l0,-11.722c0,-0.117 0.094,-0.211 0.21,-0.211l1.199,0c0.117,0 0.211,0.094 0.211,0.211l0,11.722c0,0.116 -0.094,0.21 -0.211,0.21" style="fill:#fefefe;"/><path d="M63.325,22.431l-2.356,0c-0.117,0 -0.211,-0.094 -0.211,-0.21c0,-0.117 0.094,-0.211 0.211,-0.211l2.356,0c0.116,0 0.21,0.094 0.21,0.211c0,0.116 -0.094,0.21 -0.21,0.21" style="fill:#fefefe;"/><path d="M65.005,32.759l0.778,0l0,-11.301l-0.778,0l0,11.301Zm0.988,0.421l-1.198,0c-0.056,0 -0.11,-0.022 -0.15,-0.061c-0.04,-0.04 -0.061,-0.093 -0.061,-0.149l0,-11.722c0,-0.117 0.094,-0.211 0.211,-0.211l1.198,0c0.116,0 0.211,0.094 0.211,0.211l0,11.722c0,0.116 -0.095,0.21 -0.211,0.21" style="fill:#fefefe;"/><path d="M66.572,22.431l-2.356,0c-0.117,0 -0.211,-0.094 -0.211,-0.21c0,-0.117 0.094,-0.211 0.211,-0.211l2.356,0c0.115,0 0.211,0.094 0.211,0.211c0,0.116 -0.096,0.21 -0.211,0.21" style="fill:#fefefe;"/><path d="M54.031,10.448l-14.311,7.434l28.62,0l-14.309,-7.434l0,0Zm-15.175,7.855c-0.096,0 -0.181,-0.066 -0.204,-0.16c-0.023,-0.094 0.021,-0.192 0.108,-0.237l15.173,-7.882c0.06,-0.032 0.133,-0.032 0.194,0l15.173,7.882c0.087,0.045 0.131,0.143 0.108,0.237c-0.024,0.094 -0.108,0.16 -0.205,0.16l-30.347,0l0,0Z" style="fill:#fefefe;"/><path d="M66.193,18.303c-0.031,0 -0.064,-0.006 -0.094,-0.021l-12.068,-6.003l-12.07,6.003c-0.104,0.051 -0.231,0.009 -0.283,-0.096c-0.052,-0.104 -0.01,-0.23 0.095,-0.282l12.163,-6.048c0.059,-0.03 0.128,-0.03 0.188,0l12.163,6.048c0.104,0.052 0.146,0.178 0.095,0.282c-0.037,0.074 -0.111,0.117 -0.189,0.117" style="fill:#fefefe;"/></g></svg>