<?xml version="1.0" encoding="UTF-8" standalone="no"?><!DOCTYPE svg PUBLIC "-//W3C//DTD SVG 1.1//EN" "http://www.w3.org/Graphics/SVG/1.1/DTD/svg11.dtd"><svg width="100%" height="100%" viewBox="0 0 90 40" version="1.1" xmlns="http://www.w3.org/2000/svg" xmlns:xlink="http://www.w3.org/1999/xlink" xml:space="preserve" style="fill-rule:evenodd;clip-rule:evenodd;stroke-miterlimit:22.9256;"><g><path d="M37.68,36.425l4.756,0l0,-16.794l-4.756,0l0,16.794Zm4.938,0.366l-5.121,0c-0.101,0 -0.183,-0.083 -0.183,-0.183l0,-17.16c0,-0.101 0.082,-0.183 0.183,-0.183l5.121,0c0.101,0 0.183,0.082 0.183,0.183l0,17.16c0,0.1 -0.082,0.183 -0.183,0.183Z" style="fill:#fefefe;stroke:#fefefe;stroke-width:0.58px;"/><path d="M39.141,35.845c-0.102,0 -0.184,-0.081 -0.184,-0.182l0,-15.27c0,-0.101 0.082,-0.182 0.184,-0.182c0.1,-0.001 0.183,0.081 0.183,0.182l0,15.27c0,0.101 -0.083,0.182 -0.183,0.182Z" style="fill:#fefefe;stroke:#fefefe;stroke-width:0.58px;"/><path d="M40.975,35.845c-0.101,0 -0.183,-0.081 -0.183,-0.182l0,-15.27c0,-0.101 0.082,-0.182 0.183,-0.182c0.101,-0.001 0.183,0.081 0.183,0.182l0,15.27c0,0.101 -0.082,0.182 -0.183,0.182Z" style="fill:#fefefe;stroke:#fefefe;stroke-width:0.58px;"/><path d="M37.68,12.77l4.756,0l0,-0.897l-4.756,0l0,0.897Zm4.938,0.367l-5.121,0c-0.101,0 -0.183,-0.083 -0.183,-0.183l0,-1.264c0,-0.101 0.082,-0.183 0.183,-0.183l5.121,0c0.101,0 0.183,0.082 0.183,0.183l0,1.264c0,0.1 -0.082,0.183 -0.183,0.183Z" style="fill:#fefefe;stroke:#fefefe;stroke-width:0.58px;"/><path d="M37.8,11.507l4.515,0l-0.472,-0.897l-3.57,0l-0.473,0.897Zm4.819,0.366l-0.001,0l-5.121,0c-0.064,0 -0.124,-0.033 -0.156,-0.088c-0.033,-0.055 -0.036,-0.123 -0.005,-0.181l0.665,-1.263c0.031,-0.059 0.093,-0.097 0.161,-0.097l3.791,0c0.068,0 0.13,0.038 0.162,0.097l0.658,1.251c0.019,0.028 0.029,0.062 0.029,0.098c0,0.101 -0.082,0.183 -0.183,0.183l0,0Z" style="fill:#fefefe;stroke:#fefefe;stroke-width:0.58px;"/><path d="M38.406,10.244l3.303,0l0,-0.897l-3.303,0l0,0.897Zm3.486,0.366l-3.668,0c-0.102,0 -0.183,-0.082 -0.183,-0.183l0,-1.263c0,-0.102 0.081,-0.183 0.183,-0.183l3.668,0c0.101,0 0.183,0.081 0.183,0.183l0,1.263c0,0.101 -0.082,0.183 -0.183,0.183Z" style="fill:#fefefe;stroke:#fefefe;stroke-width:0.58px;"/><path d="M38.525,8.981l3.065,0l-1.532,-2.954l-1.533,2.954l0,0Zm3.368,0.366l-0.001,0l-3.668,0c-0.064,0 -0.124,-0.034 -0.157,-0.088c-0.033,-0.055 -0.035,-0.123 -0.006,-0.179l1.807,-3.48c0.032,-0.061 0.093,-0.1 0.162,-0.1l0.055,0c0.068,0 0.131,0.039 0.163,0.1l1.8,3.467c0.017,0.027 0.028,0.061 0.028,0.097c0,0.101 -0.083,0.183 -0.183,0.183Z" style="fill:#fefefe;stroke:#fefefe;stroke-width:0.58px;"/><path d="M37.022,19.265l6.072,0l0,-6.072l-6.072,0l0,6.072Zm6.255,0.366l-6.438,0c-0.101,0 -0.183,-0.082 -0.183,-0.183l0,-6.438c0,-0.101 0.082,-0.183 0.183,-0.183l6.438,0c0.101,0 0.183,0.082 0.183,0.184l0,6.437c0,0.101 -0.082,0.183 -0.183,0.183Z" style="fill:#fefefe;stroke:#fefefe;stroke-width:0.58px;"/><path d="M40.033,13.986c-1.223,0 -2.217,0.996 -2.217,2.219l0,0.048c0,1.223 0.994,2.219 2.217,2.219l0.049,0c1.223,0 2.218,-0.996 2.218,-2.219l0,-0.048c0,-1.223 -0.995,-2.219 -2.218,-2.219l-0.049,0l0,0Zm0.049,4.852l-0.049,0c-1.425,0 -2.584,-1.16 -2.584,-2.585l0,-0.048c0,-1.425 1.159,-2.585 2.584,-2.585l0.049,0c1.425,0 2.584,1.16 2.584,2.585l0,0.048c0,1.425 -1.159,2.585 -2.584,2.585Z" style="fill:#fefefe;stroke:#fefefe;stroke-width:0.58px;"/><path d="M41.52,17.196c-0.038,0 -0.076,-0.011 -0.109,-0.035l-1.461,-1.064c-0.048,-0.035 -0.076,-0.089 -0.076,-0.148l0,-1.397c0,-0.101 0.083,-0.183 0.184,-0.183c0.101,0 0.183,0.082 0.183,0.183l0,1.304l1.386,1.009c0.082,0.059 0.099,0.174 0.041,0.255c-0.037,0.05 -0.093,0.076 -0.148,0.076l0,0Z" style="fill:#fefefe;stroke:#fefefe;stroke-width:0.58px;"/><path d="M0.173,36.077c0,-1.943 -0.003,-3.722 -0.01,-5.337c-0.007,-1.615 -0.017,-3.015 -0.03,-4.201c-0.014,-1.186 -0.031,-2.137 -0.051,-2.854c-0.02,-0.717 -0.036,-1.163 -0.05,-1.337c-0.026,-0.04 -0.037,-0.077 -0.03,-0.11c0.007,-0.034 0.01,-0.07 0.01,-0.111c0,-0.188 0.07,-0.349 0.212,-0.483c0.14,-0.133 0.304,-0.201 0.492,-0.201l0.06,0c0.885,-0.04 1.665,0.135 2.342,0.524c0.676,0.388 1.203,0.964 1.578,1.728c0.147,0.335 0.264,0.684 0.352,1.045c0.087,0.362 0.13,0.724 0.13,1.085c0,0.536 -0.094,1.062 -0.281,1.579c-0.188,0.515 -0.436,0.954 -0.744,1.316c-0.067,0.067 -0.144,0.144 -0.231,0.231c-0.088,0.088 -0.165,0.158 -0.231,0.212c0.295,0.187 0.546,0.405 0.754,0.653c0.207,0.248 0.398,0.545 0.572,0.894c0.174,0.349 0.298,0.71 0.372,1.085c0.074,0.375 0.111,0.744 0.111,1.106c0,0.563 -0.091,1.109 -0.272,1.638c-0.18,0.529 -0.439,0.988 -0.774,1.377c-0.308,0.348 -0.66,0.614 -1.055,0.794c-0.395,0.181 -0.814,0.272 -1.256,0.272c-0.215,0 -0.415,-0.014 -0.603,-0.04c-0.188,-0.027 -0.389,-0.081 -0.603,-0.161l-0.081,0c-0.187,0 -0.348,-0.071 -0.482,-0.211c-0.134,-0.141 -0.201,-0.306 -0.201,-0.493l0,0Zm3.577,-4.744c-0.066,-0.134 -0.157,-0.281 -0.271,-0.442c-0.113,-0.161 -0.261,-0.315 -0.442,-0.462c-0.181,-0.148 -0.395,-0.275 -0.643,-0.382c-0.248,-0.107 -0.532,-0.181 -0.854,-0.222c0.013,0.805 0.02,1.652 0.02,2.543c0,0.892 0,1.94 0,3.147c0.201,0.04 0.389,0.059 0.563,0.059c0.522,0 0.951,-0.187 1.286,-0.562c0.228,-0.255 0.399,-0.566 0.513,-0.935c0.114,-0.368 0.171,-0.754 0.171,-1.156c0,-0.268 -0.027,-0.539 -0.081,-0.814c-0.054,-0.275 -0.14,-0.532 -0.262,-0.774l0,0Zm-0.3,-7.035c-0.068,-0.121 -0.154,-0.255 -0.262,-0.402c-0.107,-0.148 -0.245,-0.292 -0.412,-0.432c-0.168,-0.141 -0.362,-0.265 -0.583,-0.372c-0.221,-0.107 -0.472,-0.181 -0.754,-0.221c0.027,0.442 0.047,1.089 0.061,1.939c0.013,0.851 0.027,2.027 0.04,3.528c0.067,0.014 0.13,0.02 0.191,0.02c0.06,0 0.124,0 0.191,0c0.482,0 0.878,-0.18 1.186,-0.542c0.228,-0.241 0.396,-0.54 0.502,-0.895c0.107,-0.355 0.161,-0.727 0.161,-1.115c0,-0.269 -0.026,-0.533 -0.08,-0.795c-0.054,-0.26 -0.135,-0.506 -0.241,-0.733l0,0.02Z" style="fill:#fefefe;fill-rule:nonzero;"/><path d="M8.133,22.831c0,3.577 0.017,6.465 0.05,8.663c0.034,2.198 0.077,3.558 0.131,4.08l0.865,0c0.187,0 0.351,0.07 0.492,0.212c0.141,0.141 0.211,0.305 0.211,0.492c0,0.187 -0.07,0.351 -0.211,0.493c-0.141,0.14 -0.305,0.211 -0.492,0.211l-3.197,0c-0.188,0 -0.352,-0.071 -0.492,-0.211c-0.141,-0.142 -0.211,-0.306 -0.211,-0.493c0,-0.187 0.07,-0.351 0.211,-0.492c0.14,-0.142 0.304,-0.212 0.492,-0.212l0.965,0c-0.027,-0.361 -0.053,-0.861 -0.08,-1.497c-0.027,-0.637 -0.05,-1.458 -0.071,-2.462c-0.019,-1.006 -0.033,-2.229 -0.04,-3.669c-0.007,-1.44 -0.01,-3.146 -0.01,-5.115l-1.146,0c-0.187,0 -0.351,-0.071 -0.492,-0.211c-0.14,-0.141 -0.211,-0.305 -0.211,-0.493c0,-0.188 0.071,-0.349 0.211,-0.483c0.141,-0.133 0.305,-0.201 0.492,-0.201l3.579,0c0.187,0 0.351,0.068 0.492,0.201c0.141,0.134 0.211,0.295 0.211,0.483c0,0.188 -0.07,0.352 -0.211,0.493c-0.141,0.14 -0.305,0.211 -0.492,0.211l-1.046,0l0,0Z" style="fill:#fefefe;fill-rule:nonzero;"/><path d="M11.933,36.921c-0.335,-0.174 -0.637,-0.505 -0.905,-0.994c-0.268,-0.49 -0.492,-1.106 -0.673,-1.85c-0.182,-0.744 -0.322,-1.601 -0.423,-2.573c-0.1,-0.972 -0.157,-2.027 -0.17,-3.166c-0.014,-0.227 -0.024,-0.479 -0.031,-0.754c-0.006,-0.274 -0.01,-0.519 -0.01,-0.734c0,-1.46 0.145,-2.639 0.433,-3.537c0.288,-0.898 0.726,-1.494 1.316,-1.789c0.134,-0.067 0.271,-0.118 0.413,-0.151c0.14,-0.033 0.291,-0.05 0.452,-0.05c0.522,0 1.025,0.188 1.507,0.562c0.201,0.175 0.395,0.382 0.583,0.624c0.188,0.241 0.348,0.496 0.483,0.764c0.134,0.268 0.227,0.546 0.281,0.834c0.054,0.288 0.047,0.56 -0.02,0.814c-0.04,0.188 -0.144,0.331 -0.312,0.432c-0.167,0.1 -0.345,0.124 -0.532,0.07c-0.188,-0.04 -0.332,-0.143 -0.432,-0.311c-0.101,-0.167 -0.124,-0.345 -0.071,-0.532c0.054,-0.201 -0.004,-0.456 -0.17,-0.765c-0.168,-0.308 -0.386,-0.576 -0.654,-0.804c-0.107,-0.08 -0.245,-0.16 -0.412,-0.241c-0.168,-0.08 -0.325,-0.08 -0.473,0l0.021,-0.02c-0.081,0.04 -0.178,0.127 -0.292,0.261c-0.114,0.135 -0.225,0.352 -0.331,0.654c-0.108,0.302 -0.198,0.707 -0.272,1.215c-0.074,0.51 -0.111,1.167 -0.111,1.97c0,0.229 0.004,0.463 0.011,0.704c0.007,0.241 0.017,0.496 0.03,0.764c0,1.219 0.04,2.275 0.12,3.166c0.081,0.891 0.188,1.631 0.322,2.221c0.134,0.59 0.285,1.045 0.452,1.367c0.168,0.321 0.339,0.529 0.513,0.623c0.053,0.027 0.107,0.014 0.161,-0.04c0.321,-0.228 0.599,-0.73 0.833,-1.508c0.236,-0.777 0.353,-1.742 0.353,-2.894c0,-0.228 -0.004,-0.402 -0.011,-0.523c-0.006,-0.121 -0.016,-0.308 -0.029,-0.563c-0.322,-0.04 -0.791,-0.06 -1.408,-0.06c-0.187,0 -0.351,-0.071 -0.492,-0.211c-0.141,-0.141 -0.211,-0.305 -0.211,-0.492c0,-0.188 0.07,-0.352 0.211,-0.493c0.141,-0.141 0.305,-0.211 0.492,-0.211c0.63,0 1.13,0.023 1.498,0.07c0.369,0.047 0.643,0.111 0.824,0.191c0.181,0.081 0.298,0.171 0.352,0.272c0.053,0.1 0.08,0.197 0.08,0.291c0.027,0.281 0.051,0.573 0.07,0.875c0.021,0.301 0.031,0.586 0.031,0.854c0,0.71 -0.05,1.366 -0.151,1.97c-0.101,0.603 -0.231,1.146 -0.392,1.628c-0.161,0.482 -0.352,0.891 -0.573,1.226c-0.221,0.335 -0.452,0.583 -0.693,0.744c-0.295,0.187 -0.597,0.281 -0.905,0.281c-0.12,0 -0.238,-0.017 -0.352,-0.05c-0.114,-0.033 -0.224,-0.077 -0.331,-0.131" style="fill:#fefefe;fill-rule:nonzero;"/><path d="M21.802,36.077c0,-1.943 -0.004,-3.722 -0.01,-5.337c-0.007,-1.615 -0.017,-3.015 -0.03,-4.201c-0.014,-1.186 -0.031,-2.137 -0.051,-2.854c-0.02,-0.717 -0.036,-1.163 -0.05,-1.337c-0.027,-0.04 -0.037,-0.077 -0.03,-0.11c0.007,-0.034 0.01,-0.07 0.01,-0.111c0,-0.188 0.07,-0.349 0.211,-0.483c0.141,-0.133 0.305,-0.201 0.492,-0.201l0.061,0c0.884,-0.04 1.665,0.135 2.342,0.524c0.676,0.388 1.202,0.964 1.577,1.728c0.148,0.335 0.265,0.684 0.352,1.045c0.087,0.362 0.131,0.724 0.131,1.085c0,0.536 -0.094,1.062 -0.282,1.579c-0.187,0.515 -0.435,0.954 -0.744,1.316c-0.066,0.067 -0.143,0.144 -0.23,0.231c-0.088,0.088 -0.165,0.158 -0.231,0.212c0.294,0.187 0.545,0.405 0.753,0.653c0.208,0.248 0.399,0.545 0.573,0.894c0.174,0.349 0.298,0.71 0.372,1.085c0.074,0.375 0.111,0.744 0.111,1.106c0,0.563 -0.091,1.109 -0.272,1.638c-0.181,0.529 -0.439,0.988 -0.774,1.377c-0.308,0.348 -0.66,0.614 -1.055,0.794c-0.395,0.181 -0.814,0.272 -1.256,0.272c-0.215,0 -0.415,-0.014 -0.604,-0.04c-0.187,-0.027 -0.388,-0.081 -0.602,-0.161l-0.081,0c-0.188,0 -0.348,-0.071 -0.482,-0.211c-0.134,-0.141 -0.201,-0.306 -0.201,-0.493Zm3.577,-4.744c-0.066,-0.134 -0.157,-0.281 -0.271,-0.442c-0.114,-0.161 -0.261,-0.315 -0.442,-0.462c-0.181,-0.148 -0.396,-0.275 -0.643,-0.382c-0.248,-0.107 -0.533,-0.181 -0.855,-0.222c0.014,0.805 0.021,1.652 0.021,2.543c0,0.892 0,1.94 0,3.147c0.201,0.04 0.388,0.059 0.563,0.059c0.522,0 0.951,-0.187 1.286,-0.562c0.228,-0.255 0.399,-0.566 0.513,-0.935c0.113,-0.368 0.171,-0.754 0.171,-1.156c0,-0.268 -0.028,-0.539 -0.081,-0.814c-0.054,-0.275 -0.141,-0.532 -0.262,-0.774l0,0Zm-0.301,-7.035c-0.067,-0.121 -0.154,-0.255 -0.261,-0.402c-0.107,-0.148 -0.245,-0.292 -0.412,-0.432c-0.168,-0.141 -0.362,-0.265 -0.583,-0.372c-0.221,-0.107 -0.472,-0.181 -0.754,-0.221c0.027,0.442 0.047,1.089 0.06,1.939c0.014,0.851 0.028,2.027 0.04,3.528c0.068,0.014 0.131,0.02 0.192,0.02c0.06,0 0.124,0 0.191,0c0.482,0 0.877,-0.18 1.186,-0.542c0.227,-0.241 0.395,-0.54 0.502,-0.895c0.107,-0.355 0.161,-0.727 0.161,-1.115c0,-0.269 -0.027,-0.533 -0.08,-0.795c-0.054,-0.26 -0.135,-0.506 -0.242,-0.733l0,0.02Z" style="fill:#fefefe;fill-rule:nonzero;"/><path d="M28.054,36.982c-0.189,0 -0.353,-0.071 -0.493,-0.211c-0.141,-0.142 -0.211,-0.306 -0.211,-0.493l0,-6.714c0,-0.027 -0.003,-0.054 -0.01,-0.08c-0.007,-0.027 0.003,-0.067 0.03,-0.121c0,-1.179 0.003,-2.184 0.01,-3.015c0.007,-0.83 0.017,-1.527 0.03,-2.091c0.013,-0.562 0.031,-1.011 0.05,-1.346c0.021,-0.335 0.044,-0.59 0.071,-0.764l-0.02,-0.02c0,-0.134 0.023,-0.235 0.07,-0.302c0.047,-0.066 0.104,-0.134 0.171,-0.2c0.094,-0.095 0.171,-0.148 0.232,-0.161c0.059,-0.014 0.129,-0.021 0.21,-0.021l3.478,0c0.187,0 0.352,0.068 0.492,0.201c0.141,0.134 0.211,0.295 0.211,0.483c0,0.188 -0.07,0.352 -0.211,0.493c-0.14,0.14 -0.305,0.211 -0.492,0.211l-2.834,0l-0.081,5.829c0.442,-0.04 1.105,-0.06 1.99,-0.06c0.187,0 0.351,0.07 0.493,0.21c0.14,0.141 0.211,0.306 0.211,0.493c0,0.188 -0.071,0.349 -0.211,0.482c-0.142,0.134 -0.306,0.202 -0.493,0.202c-0.469,0 -0.868,0.006 -1.196,0.019c-0.329,0.014 -0.593,0.034 -0.794,0.061l0,3.196c0,0.241 -0.003,0.483 -0.01,0.724c-0.007,0.241 -0.01,0.489 -0.01,0.744c0,0.254 0,0.536 0,0.843l2.935,0c0.187,0 0.352,0.07 0.492,0.212c0.141,0.141 0.211,0.305 0.211,0.492c0,0.187 -0.07,0.351 -0.211,0.493c-0.14,0.14 -0.305,0.211 -0.492,0.211l-3.618,0l0,0Z" style="fill:#fefefe;fill-rule:nonzero;"/><path d="M32.777,36.982c-0.188,0 -0.352,-0.071 -0.492,-0.211c-0.141,-0.142 -0.211,-0.306 -0.211,-0.493c0,-2.492 0.003,-4.579 0.01,-6.261c0.006,-1.682 0.02,-3.066 0.04,-4.152c0.02,-1.085 0.046,-1.912 0.08,-2.482c0.034,-0.569 0.071,-0.981 0.111,-1.236c0.013,-0.094 0.04,-0.187 0.08,-0.281c0.041,-0.094 0.094,-0.175 0.161,-0.241c0.081,-0.108 0.157,-0.161 0.231,-0.161c0.074,0 0.145,0 0.211,0c0.107,0 0.182,0.013 0.222,0.04c0.12,0.026 0.227,0.114 0.321,0.261l-0.02,-0.02l0.16,0.18c0.094,0.496 0.239,1.076 0.433,1.74c0.194,0.663 0.425,1.437 0.693,2.321l0.121,0.362c0.147,0.496 0.265,0.874 0.352,1.136c0.087,0.261 0.17,0.526 0.251,0.794c0.08,0.268 0.174,0.596 0.281,0.985c0.108,0.389 0.262,0.958 0.463,1.709c0.013,-1.582 0.03,-2.915 0.05,-4.001c0.02,-1.085 0.051,-1.979 0.091,-2.683c0.04,-0.704 0.084,-1.247 0.13,-1.628c0.047,-0.382 0.104,-0.66 0.171,-0.835c0.067,-0.174 0.141,-0.277 0.221,-0.311c0.081,-0.034 0.168,-0.05 0.262,-0.05c0.187,0 0.348,0.063 0.482,0.19c0.134,0.128 0.201,0.299 0.201,0.514c0,0.093 -0.007,0.167 -0.021,0.22c-0.026,0.175 -0.05,0.63 -0.07,1.367c-0.02,0.737 -0.04,1.705 -0.06,2.905c-0.02,1.199 -0.037,2.613 -0.05,4.241c-0.014,1.628 -0.02,3.421 -0.02,5.377c0,0.067 -0.004,0.114 -0.01,0.141c-0.007,0.027 -0.031,0.067 -0.071,0.121c-0.013,0.026 -0.03,0.06 -0.05,0.1c-0.02,0.04 -0.043,0.073 -0.07,0.101l-0.081,0.06c-0.026,0.027 -0.073,0.053 -0.14,0.08c-0.068,0.027 -0.115,0.04 -0.141,0.04c0,0.014 0.007,0.021 0.02,0.021c0,0 0,0.006 0,0.019c-0.013,0 -0.041,0.004 -0.081,0.011c-0.04,0.006 -0.066,0.01 -0.08,0.01c-0.174,0 -0.334,-0.074 -0.482,-0.222l-0.041,-0.04c-0.04,-0.04 -0.066,-0.073 -0.08,-0.1c-0.04,-0.054 -0.063,-0.101 -0.07,-0.141c-0.007,-0.04 -0.01,-0.08 -0.01,-0.121c-0.51,-2.063 -1.002,-3.906 -1.478,-5.527c-0.475,-1.622 -0.901,-3.049 -1.276,-4.282c-0.027,1.22 -0.044,2.647 -0.051,4.282c-0.006,1.635 -0.009,3.451 -0.009,5.447c0,0.187 -0.068,0.351 -0.201,0.493c-0.134,0.14 -0.295,0.211 -0.483,0.211" style="fill:#fefefe;fill-rule:nonzero;"/></g></svg>