<?xml version="1.0" encoding="UTF-8" standalone="no"?><!DOCTYPE svg PUBLIC "-//W3C//DTD SVG 1.1//EN" "http://www.w3.org/Graphics/SVG/1.1/DTD/svg11.dtd"><svg width="100%" height="100%" viewBox="0 0 445 445" version="1.1" xmlns="http://www.w3.org/2000/svg" xmlns:xlink="http://www.w3.org/1999/xlink" xml:space="preserve" style="fill-rule:evenodd;clip-rule:evenodd;stroke-linejoin:round;stroke-miterlimit:1.41421;"><path d="M434.252,114.203l-21.409,-21.416c-7.419,-7.04 -16.084,-10.561 -25.975,-10.561c-10.095,0 -18.657,3.521 -25.7,10.561l-138.758,138.762l-138.757,-138.758c-7.042,-7.04 -15.606,-10.561 -25.697,-10.561c-9.896,0 -18.559,3.521 -25.979,10.561l-21.128,21.416c-7.234,7.229 -10.849,15.892 -10.849,25.981c0,10.277 3.619,18.842 10.848,25.693l185.864,185.865c6.855,7.23 15.416,10.848 25.697,10.848c10.088,0 18.75,-3.617 25.977,-10.848l185.865,-185.865c7.043,-7.044 10.567,-15.608 10.567,-25.693c0.001,-9.901 -3.523,-18.559 -10.566,-25.985Z" style="fill:#a9cd36;fill-rule:nonzero;"/></svg>