<?xml version="1.0" encoding="UTF-8" standalone="no"?><!DOCTYPE svg PUBLIC "-//W3C//DTD SVG 1.1//EN" "http://www.w3.org/Graphics/SVG/1.1/DTD/svg11.dtd"><svg width="100%" height="100%" viewBox="0 0 90 40" version="1.1" xmlns="http://www.w3.org/2000/svg" xmlns:xlink="http://www.w3.org/1999/xlink" xml:space="preserve" style="fill-rule:evenodd;clip-rule:evenodd;stroke-miterlimit:22.9256;"><g><path d="M0.002,28.016c-0.013,-1.111 0.038,-2.136 0.154,-3.075c0.117,-0.939 0.278,-1.755 0.484,-2.448c0.206,-0.692 0.459,-1.244 0.761,-1.655c0.302,-0.412 0.631,-0.652 0.988,-0.721c0.534,-0.054 1.031,0.213 1.49,0.802c0.46,0.59 0.847,1.502 1.163,2.737c0.055,0.192 0.027,0.373 -0.083,0.545c-0.109,0.17 -0.246,0.277 -0.411,0.318l0.021,0c-0.206,0.069 -0.391,0.051 -0.556,-0.052c-0.164,-0.102 -0.281,-0.25 -0.349,-0.442c-0.234,-0.891 -0.446,-1.532 -0.638,-1.923c-0.192,-0.391 -0.336,-0.572 -0.432,-0.545c-0.124,0.014 -0.257,0.158 -0.401,0.432c-0.144,0.274 -0.275,0.679 -0.391,1.214c-0.117,0.534 -0.209,1.203 -0.277,2.005c-0.069,0.802 -0.096,1.738 -0.083,2.808c-0.013,1.111 0.017,2.071 0.092,2.88c0.076,0.809 0.176,1.488 0.299,2.036c0.123,0.549 0.268,0.974 0.432,1.275c0.164,0.302 0.329,0.501 0.493,0.597c0.028,0.028 0.055,0.028 0.083,0c0.205,-0.124 0.394,-0.408 0.566,-0.854c0.171,-0.445 0.25,-1.045 0.236,-1.799c0,-0.192 0.065,-0.36 0.195,-0.505c0.13,-0.143 0.306,-0.215 0.525,-0.215c0.192,0 0.36,0.072 0.504,0.215c0.144,0.145 0.215,0.313 0.215,0.505c0,0.919 -0.133,1.728 -0.4,2.427c-0.268,0.699 -0.634,1.186 -1.101,1.46c-0.274,0.151 -0.528,0.227 -0.761,0.227c-0.247,0 -0.507,-0.076 -0.782,-0.227c-0.658,-0.398 -1.165,-1.292 -1.522,-2.684c-0.356,-1.392 -0.527,-3.171 -0.514,-5.338" style="fill:#fefefe;fill-rule:nonzero;"/><path d="M10.596,28.366c0.014,1.125 -0.038,2.159 -0.154,3.106c-0.117,0.946 -0.281,1.766 -0.495,2.458c-0.212,0.692 -0.476,1.241 -0.791,1.645c-0.315,0.405 -0.665,0.635 -1.049,0.69l-0.185,0c-0.192,0 -0.398,-0.049 -0.617,-0.145c-0.22,-0.096 -0.442,-0.277 -0.669,-0.545c-0.226,-0.267 -0.449,-0.631 -0.668,-1.089c-0.219,-0.46 -0.432,-1.054 -0.638,-1.78c-0.096,-0.357 -0.157,-0.782 -0.185,-1.275c-0.028,-0.494 -0.041,-1.029 -0.041,-1.605c0,-0.658 0.013,-1.333 0.041,-2.026c0.028,-0.692 0.055,-1.326 0.082,-1.902c0.042,-0.714 0.062,-1.269 0.062,-1.667c0,-0.905 0.137,-1.707 0.411,-2.406c0.274,-0.7 0.652,-1.187 1.132,-1.461l-0.021,0c0.247,-0.164 0.528,-0.247 0.843,-0.247c0.124,0 0.261,0.025 0.412,0.072c0.151,0.049 0.288,0.107 0.411,0.175c0.686,0.425 1.213,1.334 1.584,2.726c0.37,1.392 0.549,3.15 0.535,5.276Zm-2.695,6.459c0.137,-0.014 0.285,-0.158 0.442,-0.433c0.158,-0.274 0.299,-0.678 0.422,-1.213c0.124,-0.535 0.223,-1.2 0.298,-1.995c0.076,-0.796 0.107,-1.735 0.093,-2.818c0.014,-1.097 -0.02,-2.047 -0.103,-2.849c-0.082,-0.802 -0.189,-1.477 -0.319,-2.026c-0.13,-0.549 -0.281,-0.977 -0.452,-1.286c-0.171,-0.308 -0.347,-0.511 -0.525,-0.607c-0.068,-0.041 -0.144,-0.041 -0.226,0l0.02,-0.02c-0.205,0.123 -0.397,0.411 -0.576,0.864c-0.177,0.452 -0.26,1.049 -0.246,1.789c0,0.192 -0.004,0.439 -0.011,0.741c-0.007,0.301 -0.024,0.631 -0.051,0.987c-0.027,0.549 -0.058,1.163 -0.092,1.841c-0.035,0.679 -0.052,1.334 -0.052,1.965c0,0.521 0.014,1.014 0.041,1.481c0.027,0.466 0.076,0.836 0.145,1.11c0.232,0.837 0.458,1.464 0.678,1.882c0.219,0.418 0.384,0.614 0.494,0.587l0.02,0Z" style="fill:#fefefe;fill-rule:nonzero;"/><path d="M11.501,36.08c-0.096,0 -0.185,-0.035 -0.267,-0.103c-0.192,-0.069 -0.302,-0.147 -0.329,-0.237c-0.028,-0.089 -0.041,-0.216 -0.041,-0.381c0,-0.013 0.003,-0.02 0.01,-0.02c0.006,0 0.01,-0.014 0.01,-0.041c-0.041,-0.247 -0.072,-0.655 -0.092,-1.224c-0.021,-0.569 -0.038,-1.403 -0.052,-2.499c-0.014,-1.097 -0.024,-2.503 -0.031,-4.217c-0.006,-1.714 -0.01,-3.84 -0.01,-6.377c0,-0.219 0.072,-0.394 0.216,-0.524c0.144,-0.13 0.312,-0.195 0.503,-0.195c0.192,0 0.361,0.065 0.505,0.195c0.144,0.13 0.216,0.305 0.216,0.524c0,1.92 0.003,3.662 0.01,5.225c0.007,1.563 0.014,2.924 0.021,4.083c0.007,1.158 0.016,2.112 0.031,2.859c0.013,0.748 0.027,1.258 0.041,1.532l0.143,0c0.234,0 0.508,0.004 0.824,0.011c0.315,0.007 0.678,0.01 1.089,0.01c0.192,0 0.357,0.073 0.494,0.216c0.138,0.145 0.206,0.312 0.206,0.504c0,0.192 -0.068,0.36 -0.206,0.505c-0.137,0.143 -0.302,0.215 -0.494,0.215c-0.822,0 -1.446,-0.003 -1.871,-0.01c-0.426,-0.007 -0.734,-0.024 -0.926,-0.051" style="fill:#fefefe;fill-rule:nonzero;"/><path d="M17.569,21.66c0,3.662 0.017,6.616 0.052,8.865c0.034,2.25 0.078,3.642 0.133,4.176l0.885,0c0.192,0 0.36,0.073 0.503,0.216c0.145,0.145 0.216,0.312 0.216,0.504c0,0.192 -0.071,0.36 -0.216,0.505c-0.143,0.143 -0.311,0.215 -0.503,0.215l-3.271,0c-0.192,0 -0.36,-0.072 -0.504,-0.215c-0.144,-0.145 -0.215,-0.313 -0.215,-0.505c0,-0.192 0.071,-0.359 0.215,-0.504c0.144,-0.143 0.312,-0.216 0.504,-0.216l0.987,0c-0.027,-0.37 -0.054,-0.881 -0.082,-1.532c-0.027,-0.652 -0.051,-1.492 -0.072,-2.52c-0.02,-1.029 -0.034,-2.279 -0.041,-3.754c-0.006,-1.474 -0.01,-3.219 -0.01,-5.235l-1.173,0c-0.192,0 -0.359,-0.072 -0.504,-0.216c-0.143,-0.144 -0.215,-0.312 -0.215,-0.504c0,-0.192 0.072,-0.356 0.215,-0.494c0.145,-0.137 0.312,-0.206 0.504,-0.206l3.662,0c0.192,0 0.36,0.069 0.503,0.206c0.145,0.138 0.216,0.302 0.216,0.494c0,0.192 -0.071,0.36 -0.216,0.504c-0.143,0.144 -0.311,0.216 -0.503,0.216l-1.07,0l0,0Z" style="fill:#fefefe;fill-rule:nonzero;"/><path d="M22.115,36.265c-0.329,0 -0.655,-0.059 -0.977,-0.175c-0.323,-0.117 -0.621,-0.278 -0.895,-0.483c-0.425,-0.344 -0.748,-0.755 -0.967,-1.235c-0.219,-0.48 -0.329,-1.008 -0.329,-1.584c0,-0.329 0.034,-0.651 0.103,-0.966c0.041,-0.192 0.144,-0.343 0.308,-0.453c0.165,-0.11 0.35,-0.137 0.556,-0.082c0.178,0.055 0.325,0.164 0.442,0.329c0.117,0.164 0.148,0.343 0.093,0.535c-0.041,0.192 -0.062,0.404 -0.062,0.637c0,0.356 0.062,0.675 0.185,0.957c0.124,0.281 0.309,0.518 0.555,0.71c0.302,0.246 0.625,0.37 0.967,0.37c0.179,0 0.35,-0.042 0.514,-0.124c0.563,-0.274 0.844,-0.912 0.844,-1.913c0.027,-0.672 -0.144,-1.309 -0.514,-1.913c-0.371,-0.603 -0.81,-1.234 -1.317,-1.892l-0.349,-0.473l-0.268,-0.35l0.041,0.041c-0.603,-0.726 -1.039,-1.481 -1.306,-2.262c-0.267,-0.782 -0.401,-1.53 -0.401,-2.243c0,-0.439 0.045,-0.86 0.134,-1.265c0.088,-0.404 0.229,-0.764 0.421,-1.079c0.274,-0.398 0.604,-0.706 0.988,-0.926c0.384,-0.22 0.775,-0.329 1.172,-0.329c0.233,0 0.466,0.041 0.7,0.123c0.15,0.055 0.335,0.158 0.555,0.308c0.219,0.152 0.428,0.375 0.627,0.67c0.199,0.294 0.363,0.681 0.494,1.161c0.13,0.48 0.188,1.07 0.175,1.769c0,0.22 -0.062,0.402 -0.185,0.546c-0.124,0.144 -0.316,0.202 -0.576,0.174c-0.192,-0.027 -0.357,-0.106 -0.494,-0.236c-0.137,-0.13 -0.192,-0.312 -0.165,-0.545l0,0.02c0.028,-0.699 -0.034,-1.265 -0.185,-1.697c-0.15,-0.431 -0.377,-0.703 -0.679,-0.812c-0.205,-0.069 -0.418,-0.059 -0.637,0.031c-0.219,0.089 -0.411,0.25 -0.576,0.483c-0.219,0.398 -0.329,0.932 -0.329,1.604c0,0.549 0.103,1.135 0.308,1.759c0.206,0.624 0.562,1.245 1.07,1.861l-0.021,-0.02l0.124,0.144l0.514,0.679l0,-0.021c0.288,0.384 0.562,0.758 0.823,1.121c0.26,0.364 0.49,0.734 0.689,1.111c0.198,0.377 0.35,0.771 0.453,1.183c0.102,0.411 0.147,0.85 0.133,1.316c0,0.521 -0.058,0.967 -0.175,1.338c-0.117,0.37 -0.257,0.678 -0.421,0.925c-0.165,0.247 -0.34,0.442 -0.525,0.586c-0.185,0.144 -0.36,0.25 -0.524,0.319l0.02,0c-0.384,0.179 -0.761,0.268 -1.131,0.268" style="fill:#fefefe;fill-rule:nonzero;"/><path d="M25.694,36.141c-0.192,0 -0.36,-0.072 -0.504,-0.215c-0.144,-0.145 -0.216,-0.313 -0.216,-0.505l0,-6.87c0,-0.027 -0.003,-0.055 -0.011,-0.083c-0.006,-0.027 0.004,-0.068 0.032,-0.123c0,-1.207 0.003,-2.235 0.01,-3.085c0.007,-0.851 0.017,-1.564 0.031,-2.14c0.014,-0.576 0.031,-1.035 0.051,-1.378c0.021,-0.343 0.045,-0.603 0.072,-0.781l-0.02,-0.021c0,-0.137 0.024,-0.24 0.072,-0.309c0.047,-0.068 0.106,-0.137 0.174,-0.205c0.096,-0.096 0.176,-0.151 0.237,-0.164c0.062,-0.015 0.134,-0.022 0.216,-0.022l3.559,0c0.192,0 0.36,0.069 0.503,0.206c0.145,0.138 0.217,0.302 0.217,0.494c0,0.192 -0.072,0.36 -0.217,0.504c-0.143,0.144 -0.311,0.216 -0.503,0.216l-2.9,0l-0.083,5.965c0.453,-0.041 1.132,-0.061 2.037,-0.061c0.192,0 0.359,0.071 0.504,0.216c0.143,0.143 0.215,0.311 0.215,0.503c0,0.192 -0.072,0.357 -0.215,0.494c-0.145,0.138 -0.312,0.206 -0.504,0.206c-0.48,0 -0.889,0.007 -1.224,0.021c-0.337,0.013 -0.607,0.034 -0.813,0.061l0,3.271c0,0.247 -0.004,0.493 -0.011,0.74c-0.006,0.247 -0.009,0.501 -0.009,0.761c0,0.261 0,0.549 0,0.864l3.003,0c0.192,0 0.36,0.073 0.503,0.216c0.145,0.145 0.217,0.312 0.217,0.504c0,0.192 -0.072,0.36 -0.217,0.505c-0.143,0.143 -0.311,0.215 -0.503,0.215l-3.703,0l0,0Z" style="fill:#fefefe;fill-rule:nonzero;"/><path d="M35.053,20.2c0.22,0 0.395,0.071 0.525,0.216c0.13,0.143 0.196,0.311 0.196,0.503l0,11.931c-0.028,0.617 -0.117,1.142 -0.268,1.573c-0.151,0.432 -0.343,0.782 -0.576,1.05c-0.233,0.267 -0.493,0.462 -0.781,0.586c-0.288,0.124 -0.576,0.185 -0.864,0.185c-0.398,0 -0.793,-0.103 -1.183,-0.309c-0.391,-0.205 -0.751,-0.493 -1.08,-0.864c-0.329,-0.37 -0.6,-0.815 -0.812,-1.337c-0.213,-0.521 -0.333,-1.097 -0.361,-1.727c0,-1.578 -0.003,-3.014 -0.01,-4.309c-0.007,-1.297 -0.013,-2.414 -0.02,-3.354c-0.007,-0.939 -0.014,-1.686 -0.021,-2.242c-0.007,-0.555 -0.017,-0.888 -0.031,-0.998c-0.014,-0.04 -0.021,-0.102 -0.021,-0.185c0,-0.192 0.073,-0.36 0.216,-0.503c0.145,-0.145 0.313,-0.216 0.505,-0.216c0.136,0 0.25,0.017 0.339,0.051c0.089,0.034 0.165,0.161 0.226,0.38c0.062,0.22 0.107,0.567 0.134,1.04c0.027,0.472 0.051,1.144 0.072,2.015c0.021,0.871 0.031,1.975 0.031,3.312c0,1.337 0,2.986 0,4.947c0.013,0.425 0.085,0.813 0.216,1.162c0.13,0.35 0.291,0.651 0.483,0.905c0.192,0.254 0.404,0.449 0.638,0.586c0.233,0.138 0.459,0.206 0.679,0.206c0.315,0 0.565,-0.178 0.75,-0.535c0.185,-0.357 0.292,-0.85 0.319,-1.481l0,-11.869c0,-0.192 0.069,-0.36 0.206,-0.503c0.137,-0.145 0.301,-0.216 0.493,-0.216" style="fill:#fefefe;fill-rule:nonzero;"/><path d="M36.741,36.141c-0.192,0 -0.361,-0.072 -0.505,-0.215c-0.143,-0.145 -0.216,-0.313 -0.216,-0.505c0,-2.509 0.004,-4.618 0.011,-6.325c0.007,-1.707 0.02,-3.109 0.04,-4.207c0.022,-1.097 0.042,-1.933 0.063,-2.509c0.02,-0.576 0.051,-0.994 0.092,-1.255c0,-0.302 0.089,-0.528 0.267,-0.679c0.083,-0.096 0.161,-0.154 0.237,-0.175c0.076,-0.02 0.168,-0.016 0.277,0.011l0.022,0c0.013,0 0.023,0.003 0.03,0.01c0.007,0.007 0.024,0.01 0.052,0.01c0.095,0.028 0.171,0.062 0.226,0.103l0.165,0.185l-0.083,-0.062c0.041,0.028 0.083,0.069 0.124,0.124c0.04,0.055 0.068,0.103 0.082,0.144c0.452,1.879 0.884,3.566 1.296,5.06l0.288,1.09l0.164,0.576l0.062,-0.349c0.028,-0.206 0.065,-0.415 0.113,-0.627c0.048,-0.213 0.086,-0.422 0.113,-0.628l0.083,-0.432c0.15,-0.905 0.301,-1.759 0.452,-2.56c0.151,-0.803 0.35,-1.561 0.596,-2.274l0.021,-0.021c0.014,-0.013 0.021,-0.023 0.021,-0.03c0,-0.007 0.007,-0.017 0.02,-0.031l0.165,-0.144c0.027,-0.028 0.076,-0.055 0.144,-0.083c0.068,-0.027 0.116,-0.041 0.144,-0.041c0.014,0 0.024,-0.003 0.031,-0.01c0.007,-0.007 0.017,-0.01 0.03,-0.01l-0.123,0.02l0.062,-0.02c0.068,-0.027 0.144,-0.027 0.226,0c0.027,0 0.062,0 0.103,0c0.041,0 0.116,0.054 0.226,0.164l0.103,0.082c0.068,0.069 0.11,0.138 0.124,0.206c0.013,0.069 0.02,0.124 0.02,0.165c0.014,0 0.02,-0.007 0.02,-0.021c0,0 0.007,0 0.021,0c0,2.044 0.007,3.915 0.021,5.616c0.014,1.7 0.03,3.175 0.051,4.422c0.021,1.248 0.041,2.246 0.062,2.994c0.021,0.746 0.044,1.203 0.072,1.367c0,0.014 0.003,0.038 0.01,0.073c0.007,0.033 0.011,0.058 0.011,0.071c0,0.192 -0.072,0.36 -0.216,0.505c-0.144,0.143 -0.313,0.215 -0.505,0.215c-0.096,0 -0.181,-0.014 -0.257,-0.041c-0.075,-0.027 -0.144,-0.116 -0.205,-0.268c-0.062,-0.15 -0.121,-0.386 -0.175,-0.709c-0.055,-0.322 -0.1,-0.778 -0.134,-1.368c-0.034,-0.589 -0.065,-1.337 -0.093,-2.242c-0.027,-0.905 -0.047,-2.016 -0.061,-3.333c-0.082,0.44 -0.165,0.885 -0.247,1.338c-0.083,0.453 -0.179,0.918 -0.288,1.398l0,-0.081c0,0.013 -0.003,0.023 -0.01,0.03c-0.007,0.006 -0.011,0.017 -0.011,0.031c0,0.027 -0.013,0.075 -0.04,0.144c-0.028,0.068 -0.056,0.116 -0.083,0.144l-0.103,0.123l-0.185,0.124c-0.069,0.027 -0.123,0.044 -0.165,0.051c-0.04,0.007 -0.075,0.01 -0.102,0.01c-0.124,0 -0.233,-0.034 -0.329,-0.103c-0.083,-0.027 -0.158,-0.102 -0.227,-0.226l-0.103,-0.103c-0.109,-0.425 -0.222,-0.874 -0.339,-1.347c-0.117,-0.473 -0.244,-0.95 -0.38,-1.43l-0.268,-0.987c-0.069,-0.219 -0.127,-0.442 -0.175,-0.668c-0.048,-0.227 -0.106,-0.457 -0.174,-0.689c-0.015,1.22 -0.024,2.625 -0.031,4.217c-0.007,1.59 -0.011,3.345 -0.011,5.265c0,0.192 -0.072,0.36 -0.216,0.505c-0.144,0.143 -0.311,0.215 -0.503,0.215l0,0Zm0.864,-15.407l-0.103,-0.144c0.068,0.056 0.103,0.103 0.103,0.144Zm4.093,-0.349l-0.062,-0.062c0.041,0.027 0.062,0.048 0.062,0.062Zm-0.165,-0.103l0.103,0.041l-0.103,-0.041Z" style="fill:#fefefe;fill-rule:nonzero;"/><path d="M61.729,35.948c0.124,0 0.225,-0.1 0.226,-0.224l0.006,-2.331c0.001,-0.774 -0.607,-1.444 -1.356,-1.494l-0.024,-0.002c-0.352,-0.024 -0.689,0.097 -0.95,0.34c-0.281,0.261 -0.445,0.646 -0.446,1.053l-0.011,2.421c-0.001,0.124 0.099,0.225 0.223,0.225l0.001,0c0.124,0 0.225,-0.1 0.225,-0.223l0.011,-2.42c0.001,-0.285 0.112,-0.55 0.303,-0.727c0.169,-0.158 0.387,-0.236 0.614,-0.22l0.023,0.001c0.518,0.035 0.938,0.504 0.937,1.045l-0.006,2.331c0,0.124 0.1,0.224 0.224,0.225l0,0Z" style="fill:#fefefe;stroke:#fefefe;stroke-width:0.58px;"/><path d="M60.423,26.631c0.042,0 0.086,0.003 0.13,0.01l0.024,0.003c0.515,0.084 0.95,0.614 0.949,1.159l-0.005,2.082c-0.621,-0.065 -1.248,-0.126 -1.87,-0.182l0.01,-2.213c0.002,-0.499 0.323,-0.859 0.762,-0.859l0,0Zm1.322,3.729c0.054,0 0.108,-0.021 0.15,-0.058c0.047,-0.043 0.074,-0.103 0.074,-0.167l0.007,-2.33c0.001,-0.767 -0.594,-1.486 -1.329,-1.604l-0.024,-0.004c-0.066,-0.011 -0.134,-0.016 -0.2,-0.016c-0.687,0 -1.208,0.562 -1.212,1.306l-0.01,2.42c-0.001,0.117 0.088,0.215 0.205,0.225c0.77,0.068 1.548,0.144 2.315,0.226l0.024,0.002Z" style="fill:#fefefe;stroke:#fefefe;stroke-width:0.58px;"/><path d="M60.357,20.928c0.065,0 0.131,0.008 0.198,0.025l0.023,0.006c0.524,0.133 0.965,0.716 0.963,1.274l-0.005,2.055c-0.615,-0.126 -1.238,-0.245 -1.858,-0.353l0.009,-2.229c0.003,-0.459 0.278,-0.778 0.67,-0.778l0,0Zm1.402,3.86c0.052,0 0.102,-0.017 0.142,-0.05c0.053,-0.042 0.083,-0.107 0.083,-0.174l0.007,-2.33c0.001,-0.761 -0.583,-1.528 -1.302,-1.711l-0.023,-0.005c-0.104,-0.027 -0.207,-0.04 -0.309,-0.04c-0.644,0 -1.115,0.515 -1.118,1.224l-0.012,2.421c-0.001,0.11 0.079,0.204 0.187,0.222c0.767,0.132 1.54,0.28 2.299,0.438c0.016,0.004 0.032,0.005 0.046,0.005l0,0Z" style="fill:#fefefe;stroke:#fefefe;stroke-width:0.58px;"/><path d="M57.573,35.928c0.123,0 0.223,-0.099 0.224,-0.223l0.013,-2.478c0.004,-0.82 -0.607,-1.513 -1.363,-1.547l-0.024,-0.001c-0.342,-0.016 -0.674,0.111 -0.931,0.356c-0.293,0.279 -0.462,0.688 -0.464,1.122l-0.012,2.538c-0.001,0.124 0.099,0.225 0.223,0.226c0.001,0 0.001,0 0.002,0c0.123,0 0.223,-0.1 0.224,-0.224l0.012,-2.537c0.002,-0.313 0.12,-0.604 0.325,-0.8c0.168,-0.16 0.382,-0.242 0.602,-0.232l0.024,0c0.517,0.024 0.935,0.515 0.932,1.097l-0.012,2.478c-0.001,0.124 0.099,0.225 0.223,0.225l0.002,0Z" style="fill:#fefefe;stroke:#fefefe;stroke-width:0.58px;"/><path d="M56.337,26.102c0.028,0 0.056,0.001 0.084,0.004l0.024,0.002c0.524,0.056 0.949,0.583 0.946,1.174l-0.011,2.237c-0.625,-0.044 -1.257,-0.085 -1.885,-0.121l0.011,-2.324c0.003,-0.554 0.36,-0.972 0.831,-0.972l0,0Zm1.266,3.884c0.056,0 0.111,-0.022 0.152,-0.06c0.046,-0.042 0.072,-0.102 0.072,-0.163l0,-0.002l0.013,-2.477c0.005,-0.816 -0.601,-1.543 -1.348,-1.622l-0.024,-0.002c-0.044,-0.005 -0.087,-0.007 -0.131,-0.007c-0.714,0 -1.276,0.623 -1.28,1.419l-0.012,2.537c-0.001,0.119 0.093,0.219 0.212,0.225c0.775,0.044 1.559,0.094 2.329,0.151c0.006,0.001 0.012,0.001 0.017,0.001l0,0Z" style="fill:#fefefe;stroke:#fefefe;stroke-width:0.58px;"/><path d="M56.308,20.093c0.042,0 0.086,0.004 0.13,0.011l0.023,0.003c0.524,0.087 0.964,0.66 0.96,1.251l-0.011,2.221c-0.625,-0.087 -1.258,-0.167 -1.886,-0.236l0.011,-2.335c0.003,-0.522 0.335,-0.915 0.773,-0.915l0,0Zm1.325,3.969c0.054,0 0.106,-0.019 0.147,-0.055c0.049,-0.042 0.078,-0.104 0.078,-0.168l0.012,-2.479c0.005,-0.812 -0.595,-1.572 -1.335,-1.696l-0.024,-0.004c-0.067,-0.011 -0.136,-0.017 -0.203,-0.017c-0.693,0 -1.219,0.586 -1.222,1.363l-0.012,2.537c-0.001,0.116 0.086,0.212 0.2,0.224c0.775,0.084 1.558,0.182 2.327,0.292c0.011,0.002 0.021,0.003 0.032,0.003l0,0Z" style="fill:#fefefe;stroke:#fefefe;stroke-width:0.58px;"/><path d="M53.414,35.916c0.124,0 0.224,-0.1 0.225,-0.223l0.01,-2.573c0.004,-0.85 -0.612,-1.554 -1.372,-1.571l-0.024,-0.001c-0.337,-0.008 -0.664,0.126 -0.919,0.374c-0.298,0.291 -0.47,0.715 -0.471,1.163l-0.006,2.602c0,0.124 0.1,0.225 0.225,0.225c0.124,0 0.224,-0.1 0.224,-0.224l0.007,-2.602c0.001,-0.328 0.122,-0.635 0.335,-0.843c0.167,-0.163 0.379,-0.251 0.596,-0.246l0.024,0.001c0.516,0.011 0.934,0.514 0.932,1.12l-0.01,2.573c-0.001,0.124 0.1,0.225 0.224,0.225Z" style="fill:#fefefe;stroke:#fefefe;stroke-width:0.58px;"/><path d="M52.215,25.786c0.014,0 0.028,0 0.042,0.001l0.024,0.001c0.522,0.027 0.945,0.548 0.943,1.16l-0.009,2.341c-0.628,-0.025 -1.263,-0.046 -1.893,-0.062l0.005,-2.381c0.002,-0.595 0.392,-1.06 0.888,-1.06l0,0Zm1.223,3.961c0.058,0 0.114,-0.022 0.156,-0.062c0.044,-0.043 0.069,-0.101 0.069,-0.162l0.01,-2.572c0.004,-0.849 -0.611,-1.572 -1.369,-1.612l-0.024,-0.001c-0.021,-0.001 -0.043,-0.001 -0.065,-0.001c-0.747,0 -1.335,0.662 -1.337,1.508l-0.006,2.602c-0.001,0.122 0.097,0.222 0.219,0.225c0.778,0.017 1.564,0.043 2.338,0.074c0.004,0.001 0.006,0.001 0.009,0.001Z" style="fill:#fefefe;stroke:#fefefe;stroke-width:0.58px;"/><path d="M52.206,19.594c0.021,0 0.043,0 0.064,0.002l0.024,0.002c0.519,0.042 0.956,0.593 0.954,1.201l-0.009,2.331c-0.632,-0.048 -1.27,-0.087 -1.903,-0.118l0.006,-2.387c0.001,-0.579 0.381,-1.031 0.864,-1.031Zm1.257,4.004c0.056,0 0.11,-0.022 0.152,-0.06c0.046,-0.043 0.072,-0.102 0.072,-0.164l0.01,-2.573c0.004,-0.849 -0.61,-1.589 -1.367,-1.651l-0.024,-0.002c-0.033,-0.003 -0.067,-0.004 -0.1,-0.004c-0.735,0 -1.311,0.65 -1.313,1.48l-0.006,2.602c0,0.121 0.094,0.22 0.214,0.225c0.779,0.035 1.567,0.084 2.344,0.146c0.006,0 0.012,0.001 0.018,0.001l0,0Z" style="fill:#fefefe;stroke:#fefefe;stroke-width:0.58px;"/><path d="M46.923,35.911c0.124,-0.001 0.225,-0.101 0.224,-0.225l-0.002,-2.613c0,-0.304 0.1,-0.589 0.284,-0.802c0.176,-0.204 0.405,-0.316 0.649,-0.316l0.023,0c0.217,0 0.429,0.092 0.597,0.26c0.213,0.214 0.336,0.526 0.335,0.857l-0.002,2.614c0,0.124 0.1,0.224 0.224,0.225c0.124,0 0.225,-0.1 0.225,-0.224l0.002,-2.614c0.001,-0.45 -0.169,-0.879 -0.467,-1.176c-0.252,-0.252 -0.577,-0.392 -0.914,-0.392l-0.001,0l-0.023,0c-0.376,0.001 -0.727,0.168 -0.989,0.473c-0.254,0.294 -0.393,0.684 -0.392,1.095l0.002,2.614c0,0.124 0.101,0.224 0.225,0.224l0,0Z" style="fill:#fefefe;stroke:#fefefe;stroke-width:0.58px;"/><path d="M48.128,29.188c-0.327,0 -0.658,0.002 -0.987,0.004l-0.002,-2.387c-0.001,-0.304 0.101,-0.59 0.286,-0.805c0.176,-0.205 0.408,-0.318 0.652,-0.318l0.025,0c0.217,0 0.431,0.092 0.599,0.262c0.215,0.215 0.338,0.528 0.338,0.86l-0.002,2.388c-0.303,-0.002 -0.607,-0.004 -0.909,-0.004l0,0Zm-1.211,0.455c0,0 0.001,0 0.002,0c0.401,-0.004 0.808,-0.005 1.209,-0.005c0.376,0 0.756,0.001 1.131,0.004c0.001,0 0.002,0 0.002,0c0.059,0 0.116,-0.023 0.158,-0.064c0.043,-0.042 0.067,-0.1 0.067,-0.159l0.002,-2.614c0.001,-0.45 -0.171,-0.88 -0.469,-1.179c-0.253,-0.254 -0.58,-0.394 -0.918,-0.394l-0.024,0c-0.377,0 -0.73,0.17 -0.993,0.476c-0.255,0.296 -0.395,0.686 -0.395,1.098l0.003,2.613c0,0.06 0.024,0.117 0.067,0.159c0.042,0.042 0.099,0.065 0.158,0.065l0,0Z" style="fill:#fefefe;stroke:#fefefe;stroke-width:0.58px;"/><path d="M44.856,29.23c-0.629,0.016 -1.264,0.037 -1.893,0.061l-0.009,-2.338c-0.002,-0.612 0.421,-1.133 0.944,-1.161l0.022,-0.002c0.015,0 0.029,0 0.042,0c0.497,0 0.887,0.464 0.888,1.058l0.006,2.382Zm-2.117,0.52c0.003,0 0.007,0 0.01,0c0.776,-0.033 1.562,-0.058 2.337,-0.076c0.123,-0.004 0.22,-0.103 0.22,-0.225l-0.006,-2.602c-0.003,-0.87 -0.624,-1.546 -1.402,-1.505l-0.024,0.001c-0.759,0.041 -1.373,0.763 -1.37,1.612l0.011,2.571c0,0.061 0.025,0.12 0.07,0.162c0.041,0.04 0.097,0.062 0.154,0.062l0,0Z" style="fill:#fefefe;stroke:#fefefe;stroke-width:0.58px;"/><path d="M41.219,30.945c9.268,-0.776 12.532,-0.284 21.786,0.604c0.124,0.012 0.233,-0.079 0.245,-0.203c0.012,-0.123 -0.079,-0.232 -0.203,-0.245c-9.268,-0.888 -12.546,-1.382 -21.828,-0.607" style="fill:none;stroke:#fefefe;stroke-width:0.58px;"/><path d="M40.085,24.952c7.625,-0.844 15.425,-0.481 22.9,1.088c0.122,0.026 0.24,-0.052 0.266,-0.173c0.025,-0.122 -0.052,-0.241 -0.174,-0.267c-7.477,-1.569 -15.277,-1.938 -22.905,-1.109" style="fill:none;stroke:#fefefe;stroke-width:0.58px;"/><path d="M63.204,20.789c0.095,0 0.182,-0.06 0.213,-0.155c0.039,-0.118 -0.026,-0.245 -0.143,-0.283c-4.208,-1.373 -8.597,-2.165 -13.045,-2.356c-0.124,-0.004 -0.229,0.091 -0.234,0.215c-0.006,0.124 0.09,0.229 0.214,0.234c4.408,0.189 8.757,0.974 12.925,2.335c0.023,0.007 0.047,0.01 0.07,0.01Z" style="fill:#fefefe;stroke:#fefefe;stroke-width:0.58px;"/><path d="M62.924,35.981c0.124,0 0.225,-0.101 0.225,-0.225l0.017,-17.043c0,-0.095 -0.06,-0.18 -0.149,-0.213c-3.95,-1.411 -8.077,-2.252 -12.267,-2.5c-0.121,-0.008 -0.225,0.082 -0.237,0.202c-0.254,2.584 -0.511,5.233 -0.766,7.878c-1.084,-0.024 -2.181,-0.024 -3.264,0c-0.107,0.003 -0.198,0.08 -0.216,0.186c-0.648,3.697 -1.297,7.435 -1.925,11.049l-0.064,0.364c-0.021,0.122 0.061,0.238 0.183,0.26c0.123,0.021 0.239,-0.06 0.26,-0.184l0.063,-0.363c0.618,-3.555 1.257,-7.23 1.894,-10.866c1.085,-0.022 2.184,-0.018 3.268,0.008c0.116,0.003 0.217,-0.086 0.228,-0.203c0.255,-2.64 0.512,-5.286 0.765,-7.869c4.02,0.257 7.98,1.068 11.777,2.409l-0.016,16.884c-0.001,0.124 0.1,0.226 0.224,0.226l0,0Z" style="fill:#fefefe;stroke:#fefefe;stroke-width:0.58px;"/><path d="M42.764,35.916l0.001,0c0.124,0 0.224,-0.101 0.224,-0.225l-0.011,-2.571c-0.002,-0.607 0.416,-1.109 0.933,-1.121l0.023,0c0.4,-0.007 0.759,0.294 0.884,0.743l-0.501,2.908c-0.021,0.123 0.061,0.239 0.184,0.26c0.121,0.021 0.238,-0.061 0.259,-0.183l0.509,-2.957c0.005,-0.03 0.004,-0.061 -0.003,-0.09c-0.164,-0.679 -0.716,-1.144 -1.342,-1.13l-0.023,0c-0.76,0.018 -1.375,0.722 -1.372,1.571l0.01,2.572c0.001,0.124 0.102,0.223 0.225,0.223l0,0Z" style="fill:#fefefe;stroke:#fefefe;stroke-width:0.58px;"/><path d="M41.847,35.96l21.302,0c0.113,0 0.204,-0.091 0.204,-0.204c0,-0.112 -0.091,-0.204 -0.204,-0.204l-21.564,-0.001" style="fill:none;stroke:#fefefe;stroke-width:0.58px;"/><path d="M41.911,35.765l20.964,0.159" style="fill:none;stroke:#fefefe;stroke-width:0.58px;"/><path d="M41.341,24.235c7.741,-0.039 15.275,0.375 21.852,1.607" style="fill:none;stroke:#fefefe;stroke-width:0.58px;"/></g></svg>