<?xml version="1.0" encoding="UTF-8" standalone="no"?><!DOCTYPE svg PUBLIC "-//W3C//DTD SVG 1.1//EN" "http://www.w3.org/Graphics/SVG/1.1/DTD/svg11.dtd"><svg width="100%" height="100%" viewBox="0 0 90 40" version="1.1" xmlns="http://www.w3.org/2000/svg" xmlns:xlink="http://www.w3.org/1999/xlink" xml:space="preserve" style="fill-rule:evenodd;clip-rule:evenodd;stroke-miterlimit:22.9256;"><g><path d="M55.195,32.054c0.133,-0.318 0.258,-0.637 0.377,-0.959c0.033,-0.089 0.131,-0.135 0.221,-0.102c0.089,0.032 0.103,0.034 0.071,0.124c-0.811,2.195 -1.325,3.13 -2.52,5.295c-0.044,0.088 -0.047,0.142 -0.1,0.211c-0.033,0.044 -0.065,0.085 -0.095,0.131c-0.033,0.051 -0.088,0.078 -0.144,0.078c-0.032,0 -0.064,-0.008 -0.094,-0.028c-0.079,-0.051 -0.102,-0.158 -0.05,-0.237c0.037,-0.057 0.074,-0.106 0.11,-0.153c0.048,-0.063 0.09,-0.117 0.123,-0.183c0.225,-0.385 0.411,-0.729 0.593,-1.091c0.303,-0.544 0.576,-1.065 0.827,-1.577" style="fill:none;stroke:#fefefe;stroke-width:0.58px;"/><path d="M56.16,30.129c-0.018,0 -0.036,-0.003 -0.054,-0.009c-0.09,-0.03 -0.139,-0.127 -0.108,-0.217c0.685,-2.044 1.153,-4.156 1.573,-6.144c0.02,-0.094 0.111,-0.153 0.204,-0.133c0.093,0.019 0.152,0.111 0.133,0.203c-0.423,1.999 -0.893,4.122 -1.585,6.183c-0.025,0.071 -0.091,0.117 -0.163,0.117l0,0Z" style="fill:#fefefe;stroke:#fefefe;stroke-width:0.58px;"/><path d="M57.949,22.786c-0.007,0 -0.016,-0.001 -0.024,-0.002c-0.094,-0.013 -0.159,-0.1 -0.146,-0.195c0.056,-0.389 0.116,-0.783 0.175,-1.163c0.082,-0.543 0.168,-1.103 0.242,-1.653c0.345,-2.844 0.527,-5.849 0.557,-9.185c0.001,-0.096 0.077,-0.172 0.173,-0.17c0.095,0.001 0.171,0.078 0.17,0.173c-0.03,3.349 -0.213,6.367 -0.559,9.226c-0.074,0.554 -0.161,1.117 -0.244,1.661c-0.058,0.38 -0.118,0.773 -0.174,1.16c-0.012,0.086 -0.086,0.148 -0.17,0.148l0,0Z" style="fill:#fefefe;stroke:#fefefe;stroke-width:0.58px;"/><path d="M65.657,36.832c-0.059,0 -0.115,-0.029 -0.148,-0.083c-1.11,-1.838 -2.002,-3.668 -2.724,-5.592c-0.034,-0.089 0.011,-0.189 0.1,-0.222c0.089,-0.033 0.188,0.012 0.221,0.101c0.716,1.905 1.598,3.715 2.697,5.535c0.049,0.082 0.023,0.187 -0.058,0.236c-0.028,0.017 -0.058,0.025 -0.088,0.025l0,0Z" style="fill:#fefefe;stroke:#fefefe;stroke-width:0.58px;"/><path d="M62.526,30.085c-0.072,0 -0.14,-0.046 -0.164,-0.117c-0.044,-0.131 -0.092,-0.264 -0.139,-0.393c-0.066,-0.182 -0.135,-0.369 -0.193,-0.56c-0.105,-0.344 -0.203,-0.692 -0.285,-0.987c-0.371,-1.345 -0.698,-2.755 -0.969,-4.192c-0.018,-0.092 0.043,-0.182 0.137,-0.2c0.092,-0.018 0.182,0.043 0.201,0.137c0.269,1.426 0.593,2.827 0.963,4.163c0.08,0.293 0.177,0.639 0.281,0.979c0.056,0.181 0.123,0.365 0.188,0.542c0.048,0.13 0.097,0.267 0.142,0.402c0.03,0.09 -0.018,0.187 -0.108,0.217c-0.018,0.006 -0.036,0.009 -0.054,0.009l0,0Z" style="fill:#fefefe;stroke:#fefefe;stroke-width:0.58px;"/><path d="M60.731,22.778c-0.082,0 -0.156,-0.059 -0.169,-0.143c-0.192,-1.146 -0.357,-2.349 -0.492,-3.576c-0.147,-1.335 -0.26,-2.7 -0.345,-4.174c-0.076,-1.315 -0.127,-2.686 -0.158,-4.191c-0.002,-0.095 0.073,-0.174 0.168,-0.175c0.096,-0.001 0.174,0.073 0.175,0.168c0.03,1.5 0.083,2.867 0.158,4.178c0.085,1.468 0.197,2.827 0.343,4.157c0.134,1.22 0.299,2.417 0.489,3.556c0.016,0.094 -0.047,0.182 -0.14,0.198c-0.01,0.002 -0.02,0.002 -0.029,0.002Z" style="fill:#fefefe;stroke:#fefefe;stroke-width:0.58px;"/><path d="M62.549,36.832c-0.095,0 -0.172,-0.077 -0.172,-0.172c0,-2.492 -1.366,-4.519 -3.047,-4.519c-1.679,0 -3.046,2.027 -3.046,4.519c0,0.095 -0.077,0.172 -0.172,0.172c-0.095,0 -0.172,-0.077 -0.172,-0.172c0,-1.287 0.346,-2.5 0.973,-3.414c0.641,-0.934 1.5,-1.449 2.417,-1.449c0.919,0 1.777,0.515 2.418,1.449c0.627,0.914 0.973,2.127 0.973,3.414c0,0.095 -0.077,0.172 -0.172,0.172l0,0Z" style="fill:#fefefe;stroke:#fefefe;stroke-width:0.58px;"/><path d="M59.33,8.315c-0.094,0 -0.171,-0.077 -0.171,-0.172l0,-1.971c0,-0.095 0.077,-0.172 0.171,-0.172c0.096,0 0.173,0.077 0.173,0.172l0,1.971c0,0.095 -0.077,0.172 -0.173,0.172Z" style="fill:#fefefe;stroke:#fefefe;stroke-width:0.58px;"/><path d="M58.742,10.223l1.164,0l0,-1.544c0,-0.201 -0.162,-0.364 -0.363,-0.364l-0.437,0c-0.2,0 -0.364,0.163 -0.364,0.364l0,1.544Zm1.337,0.343l-1.508,0c-0.096,0 -0.172,-0.077 -0.172,-0.172l0,-1.715c0,-0.39 0.317,-0.707 0.707,-0.707l0.437,0c0.391,0 0.707,0.317 0.707,0.707l0,1.715c0,0.095 -0.077,0.172 -0.171,0.172Z" style="fill:#fefefe;stroke:#fefefe;stroke-width:0.58px;"/><path d="M55.282,30.773l7.965,0l0,-0.416l-7.965,0l0,0.416Zm8.137,0.343l-8.309,0c-0.095,0 -0.171,-0.076 -0.171,-0.172l0,-0.759c0,-0.095 0.076,-0.172 0.171,-0.172l8.309,0c0.095,0 0.172,0.077 0.172,0.172l0,0.759c0,0.096 -0.077,0.172 -0.172,0.172Z" style="fill:#fefefe;stroke:#fefefe;stroke-width:0.58px;"/><path d="M57.299,23.442l3.932,0l0,-0.416l-3.932,0l0,0.416Zm4.103,0.344l-4.275,0c-0.095,0 -0.172,-0.077 -0.172,-0.172l0,-0.759c0,-0.096 0.077,-0.172 0.172,-0.172l4.275,0c0.096,0 0.172,0.077 0.172,0.172l0,0.759c0,0.095 -0.076,0.172 -0.172,0.172Z" style="fill:#fefefe;stroke:#fefefe;stroke-width:0.58px;"/><path d="M58.742,10.223l1.164,0l0,-1.544c0,-0.201 -0.162,-0.364 -0.363,-0.364l-0.437,0c-0.2,0 -0.364,0.163 -0.364,0.364l0,1.544Zm1.337,0.343l-1.508,0c-0.096,0 -0.172,-0.077 -0.172,-0.172l0,-1.715c0,-0.39 0.317,-0.707 0.707,-0.707l0.437,0c0.391,0 0.707,0.317 0.707,0.707l0,1.715c0,0.095 -0.077,0.172 -0.171,0.172Z" style="fill:#fefefe;stroke:#fefefe;stroke-width:0.58px;"/><path d="M55.991,36.782l-3.051,0.05c-0.086,0 -0.156,-0.069 -0.156,-0.156c0,-0.086 0.07,-0.156 0.156,-0.156l3.255,0c0.086,0 0.156,0.07 0.156,0.156c0,0.087 -0.07,0.156 -0.156,0.156l-0.083,0" style="fill:none;stroke:#fefefe;stroke-width:0.58px;"/><path d="M65.725,36.832l-3.255,0c-0.087,0 -0.156,-0.069 -0.156,-0.156c0,-0.086 0.069,-0.156 0.156,-0.156l3.255,0c0.086,0 0.156,0.07 0.156,0.156c0,0.087 -0.07,0.156 -0.156,0.156Z" style="fill:#fefefe;stroke:#fefefe;stroke-width:0.58px;"/><path d="M0.702,37.367c-0.187,0 -0.351,-0.07 -0.491,-0.211c-0.14,-0.14 -0.21,-0.303 -0.21,-0.49l0,-6.688c0,-0.026 -0.003,-0.053 -0.01,-0.08c-0.007,-0.026 0.003,-0.066 0.03,-0.12c0,-1.175 0.003,-2.175 0.01,-3.003c0.007,-0.828 0.017,-1.522 0.03,-2.083c0.013,-0.561 0.03,-1.007 0.05,-1.341c0.02,-0.334 0.043,-0.587 0.07,-0.761l-0.02,-0.02c0,-0.133 0.024,-0.233 0.07,-0.3c0.047,-0.067 0.104,-0.134 0.17,-0.201c0.094,-0.093 0.17,-0.146 0.231,-0.16c0.06,-0.013 0.13,-0.02 0.21,-0.02l3.464,0c0.187,0 0.351,0.067 0.49,0.201c0.14,0.133 0.21,0.293 0.21,0.48c0,0.187 -0.07,0.35 -0.21,0.491c-0.139,0.14 -0.303,0.21 -0.49,0.21l-2.824,0l-0.08,5.806c0.441,-0.04 1.102,-0.059 1.983,-0.059c0.187,0 0.35,0.069 0.491,0.21c0.139,0.139 0.21,0.304 0.21,0.49c0,0.187 -0.071,0.347 -0.21,0.481c-0.141,0.133 -0.304,0.2 -0.491,0.2c-0.467,0 -0.865,0.006 -1.191,0.02c-0.328,0.013 -0.591,0.033 -0.792,0.06l0,3.184c0,0.24 -0.003,0.48 -0.009,0.721c-0.007,0.24 -0.01,0.487 -0.01,0.74c0,0.254 0,0.534 0,0.841l2.923,0c0.187,0 0.351,0.07 0.49,0.21c0.14,0.141 0.21,0.304 0.21,0.491c0,0.187 -0.07,0.35 -0.21,0.49c-0.139,0.141 -0.303,0.211 -0.49,0.211l-3.604,0l0,0Zm6.807,-14.096c0,3.564 0.018,6.44 0.051,8.629c0.033,2.19 0.076,3.544 0.13,4.065l0.861,0c0.187,0 0.35,0.07 0.49,0.21c0.14,0.141 0.211,0.304 0.211,0.491c0,0.187 -0.071,0.35 -0.211,0.49c-0.14,0.141 -0.303,0.211 -0.49,0.211l-3.184,0c-0.187,0 -0.35,-0.07 -0.49,-0.211c-0.14,-0.14 -0.211,-0.303 -0.211,-0.49c0,-0.187 0.071,-0.35 0.211,-0.491c0.14,-0.14 0.303,-0.21 0.49,-0.21l0.962,0c-0.028,-0.361 -0.054,-0.857 -0.081,-1.491c-0.027,-0.635 -0.05,-1.452 -0.07,-2.453c-0.02,-1.002 -0.033,-2.22 -0.04,-3.654c-0.007,-1.435 -0.01,-3.134 -0.01,-5.096l-1.141,0c-0.187,0 -0.351,-0.07 -0.491,-0.21c-0.14,-0.141 -0.21,-0.304 -0.21,-0.491c0,-0.187 0.07,-0.347 0.21,-0.48c0.14,-0.134 0.304,-0.201 0.491,-0.201l3.564,0c0.187,0 0.35,0.067 0.49,0.201c0.14,0.133 0.211,0.293 0.211,0.48c0,0.187 -0.071,0.35 -0.211,0.491c-0.14,0.14 -0.303,0.21 -0.49,0.21l-1.042,0l0,0Zm2.304,14.096c-0.214,0 -0.384,-0.07 -0.511,-0.211c-0.128,-0.14 -0.191,-0.303 -0.191,-0.49l0,-6.808c0,-1.175 0.007,-2.182 0.02,-3.023c0.013,-0.841 0.027,-1.549 0.04,-2.122c0.013,-0.575 0.03,-1.028 0.05,-1.362c0.02,-0.334 0.044,-0.587 0.071,-0.761l-0.021,-0.02c0,-0.2 0.074,-0.367 0.22,-0.501c0.067,-0.106 0.141,-0.163 0.221,-0.17c0.08,-0.007 0.16,-0.01 0.24,-0.01l3.464,0c0.187,0 0.347,0.067 0.481,0.201c0.133,0.133 0.2,0.293 0.2,0.48c0,0.187 -0.067,0.35 -0.2,0.491c-0.134,0.14 -0.294,0.21 -0.481,0.21l-2.823,0c-0.027,0.44 -0.043,1.124 -0.05,2.052c-0.007,0.928 -0.017,2.179 -0.03,3.754c0.44,-0.04 1.101,-0.059 1.982,-0.059c0.187,0 0.347,0.063 0.481,0.189c0.133,0.127 0.199,0.297 0.199,0.511c0,0.187 -0.066,0.347 -0.199,0.481c-0.134,0.133 -0.294,0.2 -0.481,0.2c-0.467,0 -0.865,0.006 -1.191,0.02c-0.327,0.013 -0.59,0.033 -0.791,0.06l0,2.503c0,0.573 -0.004,1.167 -0.01,1.782c-0.007,0.614 -0.01,1.248 -0.01,1.902c0,0.187 -0.067,0.35 -0.2,0.49c-0.134,0.141 -0.294,0.211 -0.48,0.211l0,0Zm4.685,0c-0.187,0 -0.351,-0.07 -0.491,-0.211c-0.14,-0.14 -0.21,-0.303 -0.21,-0.49l0,-6.688c0,-0.026 -0.004,-0.053 -0.01,-0.08c-0.007,-0.026 0.003,-0.066 0.03,-0.12c0,-1.175 0.003,-2.175 0.01,-3.003c0.006,-0.828 0.016,-1.522 0.03,-2.083c0.013,-0.561 0.03,-1.007 0.049,-1.341c0.021,-0.334 0.044,-0.587 0.071,-0.761l-0.02,-0.02c0,-0.133 0.024,-0.233 0.07,-0.3c0.047,-0.067 0.103,-0.134 0.17,-0.201c0.093,-0.093 0.17,-0.146 0.23,-0.16c0.06,-0.013 0.13,-0.02 0.21,-0.02l3.465,0c0.187,0 0.35,0.067 0.49,0.201c0.14,0.133 0.21,0.293 0.21,0.48c0,0.187 -0.07,0.35 -0.21,0.491c-0.14,0.14 -0.303,0.21 -0.49,0.21l-2.824,0l-0.08,5.806c0.441,-0.04 1.102,-0.059 1.982,-0.059c0.187,0 0.351,0.069 0.491,0.21c0.14,0.139 0.21,0.304 0.21,0.49c0,0.187 -0.07,0.347 -0.21,0.481c-0.14,0.133 -0.304,0.2 -0.491,0.2c-0.467,0 -0.864,0.006 -1.191,0.02c-0.327,0.013 -0.59,0.033 -0.791,0.06l0,3.184c0,0.24 -0.003,0.48 -0.01,0.721c-0.006,0.24 -0.01,0.487 -0.01,0.74c0,0.254 0,0.534 0,0.841l2.924,0c0.187,0 0.35,0.07 0.49,0.21c0.14,0.141 0.21,0.304 0.21,0.491c0,0.187 -0.07,0.35 -0.21,0.49c-0.14,0.141 -0.303,0.211 -0.49,0.211l-3.604,0Zm4.785,-0.06c-0.093,0 -0.18,-0.033 -0.26,-0.1c-0.187,-0.067 -0.294,-0.144 -0.321,-0.231c-0.026,-0.086 -0.039,-0.21 -0.039,-0.37c0,-0.014 0.003,-0.02 0.01,-0.02c0.006,0 0.009,-0.013 0.009,-0.04c-0.04,-0.24 -0.07,-0.638 -0.09,-1.192c-0.019,-0.554 -0.037,-1.364 -0.05,-2.432c-0.013,-1.068 -0.023,-2.436 -0.03,-4.105c-0.007,-1.669 -0.01,-3.738 -0.01,-6.207c0,-0.214 0.071,-0.383 0.211,-0.511c0.139,-0.127 0.303,-0.19 0.49,-0.19c0.187,0 0.35,0.063 0.491,0.19c0.14,0.128 0.21,0.297 0.21,0.511c0,1.869 0.003,3.564 0.01,5.085c0.007,1.523 0.013,2.847 0.019,3.975c0.007,1.129 0.018,2.056 0.031,2.783c0.013,0.728 0.026,1.225 0.04,1.492l0.14,0c0.227,0 0.494,0.003 0.801,0.01c0.307,0.007 0.661,0.01 1.061,0.01c0.187,0 0.347,0.07 0.481,0.21c0.133,0.141 0.2,0.304 0.2,0.491c0,0.187 -0.067,0.35 -0.2,0.49c-0.134,0.141 -0.294,0.211 -0.481,0.211c-0.8,0 -1.408,-0.004 -1.822,-0.01c-0.414,-0.007 -0.714,-0.024 -0.901,-0.05l0,0Zm3.884,0c-0.093,0 -0.18,-0.033 -0.26,-0.1c-0.187,-0.067 -0.294,-0.144 -0.32,-0.231c-0.027,-0.086 -0.04,-0.21 -0.04,-0.37c0,-0.014 0.003,-0.02 0.01,-0.02c0.006,0 0.01,-0.013 0.01,-0.04c-0.04,-0.24 -0.07,-0.638 -0.091,-1.192c-0.019,-0.554 -0.036,-1.364 -0.05,-2.432c-0.013,-1.068 -0.022,-2.436 -0.029,-4.105c-0.007,-1.669 -0.011,-3.738 -0.011,-6.207c0,-0.214 0.071,-0.383 0.211,-0.511c0.14,-0.127 0.303,-0.19 0.491,-0.19c0.186,0 0.35,0.063 0.49,0.19c0.14,0.128 0.211,0.297 0.211,0.511c0,1.869 0.002,3.564 0.009,5.085c0.006,1.523 0.013,2.847 0.02,3.975c0.007,1.129 0.017,2.056 0.03,2.783c0.014,0.728 0.027,1.225 0.04,1.492l0.141,0c0.226,0 0.493,0.003 0.8,0.01c0.307,0.007 0.661,0.01 1.062,0.01c0.186,0 0.347,0.07 0.48,0.21c0.133,0.141 0.201,0.304 0.201,0.491c0,0.187 -0.068,0.35 -0.201,0.49c-0.133,0.141 -0.294,0.211 -0.48,0.211c-0.802,0 -1.409,-0.004 -1.823,-0.01c-0.413,-0.007 -0.713,-0.024 -0.901,-0.05" style="fill:#fff;fill-rule:nonzero;"/><path d="M28.349,23.273c-0.187,0 -0.347,-0.069 -0.48,-0.21c-0.134,-0.14 -0.2,-0.303 -0.2,-0.49c0,-0.187 0.066,-0.347 0.2,-0.481c0.133,-0.133 0.293,-0.2 0.48,-0.2l4.385,0c0.187,0 0.351,0.067 0.49,0.2c0.141,0.134 0.211,0.294 0.211,0.481c0,0.187 -0.07,0.35 -0.211,0.49c-0.139,0.141 -0.303,0.21 -0.49,0.21l-1.382,0l0,13.396c0,0.186 -0.07,0.35 -0.21,0.49c-0.14,0.14 -0.303,0.211 -0.491,0.211c-0.186,0 -0.347,-0.071 -0.48,-0.211c-0.133,-0.14 -0.2,-0.304 -0.2,-0.49l0,-13.396l-1.622,0l0,0Zm9.991,6.528c0.014,1.095 -0.037,2.102 -0.15,3.023c-0.113,0.921 -0.274,1.719 -0.48,2.393c-0.207,0.674 -0.464,1.208 -0.771,1.602c-0.307,0.393 -0.648,0.617 -1.021,0.671l-0.18,0c-0.188,0 -0.388,-0.047 -0.601,-0.141c-0.214,-0.093 -0.431,-0.27 -0.651,-0.53c-0.22,-0.261 -0.437,-0.614 -0.651,-1.061c-0.214,-0.448 -0.42,-1.025 -0.62,-1.733c-0.094,-0.347 -0.154,-0.76 -0.181,-1.241c-0.027,-0.481 -0.04,-1.001 -0.04,-1.561c0,-0.641 0.013,-1.299 0.04,-1.973c0.027,-0.674 0.053,-1.291 0.081,-1.852c0.04,-0.694 0.059,-1.235 0.059,-1.622c0,-0.88 0.134,-1.661 0.401,-2.342c0.267,-0.681 0.634,-1.155 1.101,-1.422l-0.02,0c0.241,-0.16 0.514,-0.24 0.821,-0.24c0.12,0 0.254,0.023 0.401,0.07c0.146,0.046 0.28,0.103 0.4,0.17c0.668,0.414 1.181,1.298 1.541,2.653c0.361,1.355 0.535,3.067 0.521,5.136l0,0Zm-2.623,6.287c0.134,-0.013 0.278,-0.153 0.43,-0.421c0.154,-0.267 0.291,-0.66 0.411,-1.181c0.121,-0.52 0.218,-1.167 0.29,-1.942c0.074,-0.774 0.104,-1.689 0.091,-2.743c0.013,-1.069 -0.021,-1.992 -0.101,-2.773c-0.08,-0.781 -0.183,-1.438 -0.309,-1.972c-0.128,-0.535 -0.274,-0.951 -0.441,-1.252c-0.167,-0.3 -0.337,-0.497 -0.51,-0.59c-0.068,-0.04 -0.141,-0.04 -0.221,0l0.02,-0.021c-0.2,0.121 -0.387,0.401 -0.561,0.842c-0.173,0.44 -0.254,1.021 -0.24,1.741c0,0.187 -0.004,0.427 -0.01,0.721c-0.007,0.294 -0.023,0.614 -0.05,0.961c-0.027,0.534 -0.057,1.132 -0.09,1.792c-0.034,0.661 -0.05,1.298 -0.05,1.912c0,0.508 0.013,0.988 0.04,1.442c0.027,0.454 0.073,0.814 0.14,1.081c0.227,0.814 0.447,1.425 0.661,1.833c0.213,0.406 0.373,0.597 0.481,0.57l0.019,0Zm10.295,-14.196c0.187,0.027 0.337,0.117 0.451,0.27c0.113,0.154 0.17,0.317 0.17,0.491c-0.054,0.401 -0.127,1.004 -0.22,1.812c-0.094,0.808 -0.21,1.712 -0.35,2.713c-0.141,1.001 -0.291,2.039 -0.451,3.114c-0.16,1.074 -0.324,2.079 -0.49,3.013c-0.167,0.934 -0.337,1.745 -0.511,2.433c-0.174,0.687 -0.341,1.138 -0.501,1.351l0.021,-0.02c-0.121,0.187 -0.315,0.28 -0.582,0.28c-0.08,0 -0.15,-0.006 -0.21,-0.019c-0.06,-0.014 -0.123,-0.054 -0.19,-0.121c-0.027,-0.013 -0.057,-0.047 -0.09,-0.1c-0.034,-0.053 -0.064,-0.093 -0.09,-0.12c-0.027,-0.027 -0.05,-0.06 -0.071,-0.1c-0.019,-0.04 -0.03,-0.093 -0.03,-0.161c-0.039,-0.426 -0.069,-0.777 -0.09,-1.051c-0.019,-0.273 -0.039,-0.51 -0.059,-0.71c-0.021,-0.2 -0.041,-0.391 -0.061,-0.571c-0.02,-0.18 -0.04,-0.384 -0.06,-0.611c-0.02,-0.227 -0.047,-0.506 -0.08,-0.841c-0.033,-0.333 -0.07,-0.76 -0.11,-1.281c-0.067,0.654 -0.137,1.275 -0.21,1.862c-0.073,0.587 -0.15,1.122 -0.231,1.602c-0.079,0.48 -0.166,0.891 -0.26,1.231c-0.093,0.341 -0.193,0.584 -0.3,0.731l0.02,-0.02c-0.12,0.187 -0.314,0.28 -0.581,0.28c-0.066,0 -0.13,-0.003 -0.189,-0.01c-0.061,-0.006 -0.131,-0.043 -0.211,-0.109c-0.161,-0.121 -0.254,-0.275 -0.28,-0.462l-2.303,-14.075l0.02,0.04c-0.053,-0.2 -0.017,-0.384 0.11,-0.551c0.127,-0.166 0.284,-0.263 0.47,-0.29l-0.04,0.02c0.174,-0.04 0.342,0.014 0.502,0.16c0.159,0.147 0.273,0.321 0.34,0.521l1.642,10.091c0.08,-0.734 0.156,-1.532 0.23,-2.392c0.074,-0.862 0.14,-1.736 0.2,-2.623c0.06,-0.888 0.114,-1.773 0.16,-2.654c0.047,-0.881 0.083,-1.701 0.11,-2.462c0,-0.094 0.027,-0.174 0.08,-0.24c0.014,-0.068 0.081,-0.161 0.201,-0.281l0.18,-0.08l-0.06,0.04c0.026,-0.026 0.067,-0.05 0.119,-0.07c0.054,-0.02 0.121,-0.03 0.201,-0.03c0.027,0 0.08,0.013 0.16,0.04c0.04,0 0.087,0.013 0.141,0.04c0.053,0.027 0.126,0.087 0.22,0.18l0.04,0.1l-0.1,-0.06c0.04,0.027 0.086,0.074 0.14,0.14l0.04,0.061c0.026,0.053 0.04,0.093 0.04,0.12l0.88,9.931c0.121,-0.735 0.245,-1.518 0.371,-2.352c0.127,-0.835 0.247,-1.686 0.361,-2.554c0.113,-0.867 0.223,-1.732 0.33,-2.592c0.107,-0.862 0.207,-1.673 0.301,-2.433c0.026,-0.187 0.113,-0.344 0.26,-0.471c0.146,-0.126 0.313,-0.177 0.5,-0.15l0,0Zm-3.043,0.501l-0.04,-0.061l-0.04,-0.08c0.053,0.054 0.08,0.101 0.08,0.141Zm4.404,14.977c-0.186,0 -0.35,-0.071 -0.49,-0.211c-0.14,-0.14 -0.21,-0.304 -0.21,-0.49l0,-6.688c0,-0.026 -0.003,-0.053 -0.01,-0.08c-0.007,-0.027 0.003,-0.067 0.029,-0.12c0,-1.175 0.004,-2.175 0.011,-3.003c0.007,-0.828 0.016,-1.523 0.03,-2.083c0.013,-0.561 0.03,-1.007 0.05,-1.341c0.02,-0.334 0.043,-0.588 0.07,-0.761l-0.02,-0.02c0,-0.134 0.023,-0.234 0.07,-0.301c0.046,-0.066 0.104,-0.133 0.17,-0.2c0.094,-0.093 0.17,-0.146 0.231,-0.16c0.06,-0.014 0.129,-0.02 0.21,-0.02l3.464,0c0.186,0 0.35,0.067 0.49,0.2c0.14,0.134 0.21,0.294 0.21,0.481c0,0.187 -0.07,0.35 -0.21,0.49c-0.14,0.141 -0.304,0.21 -0.49,0.21l-2.824,0l-0.08,5.807c0.441,-0.04 1.101,-0.06 1.982,-0.06c0.188,0 0.351,0.07 0.491,0.21c0.14,0.141 0.21,0.304 0.21,0.49c0,0.188 -0.07,0.347 -0.21,0.481c-0.14,0.134 -0.303,0.201 -0.491,0.201c-0.466,0 -0.864,0.006 -1.191,0.019c-0.327,0.014 -0.591,0.034 -0.791,0.061l0,3.184c0,0.24 -0.003,0.48 -0.01,0.72c-0.006,0.24 -0.01,0.488 -0.01,0.741c0,0.254 0,0.534 0,0.841l2.924,0c0.186,0 0.35,0.07 0.49,0.21c0.14,0.14 0.21,0.304 0.21,0.491c0,0.186 -0.07,0.35 -0.21,0.49c-0.14,0.14 -0.304,0.211 -0.49,0.211l-3.605,0l0,0Zm7.99,-8.07c-0.161,0.2 -0.334,0.394 -0.52,0.581c0.052,0.294 0.143,0.724 0.269,1.292c0.127,0.567 0.288,1.165 0.481,1.792c0.194,0.626 0.42,1.234 0.681,1.822c0.26,0.587 0.551,1.04 0.87,1.361c0.121,0.134 0.185,0.283 0.191,0.451c0.007,0.167 -0.043,0.316 -0.15,0.45c-0.134,0.174 -0.314,0.26 -0.541,0.26c-0.187,0 -0.347,-0.066 -0.48,-0.2c-0.347,-0.36 -0.662,-0.817 -0.941,-1.371c-0.281,-0.555 -0.528,-1.138 -0.741,-1.753c-0.214,-0.613 -0.394,-1.211 -0.54,-1.791c-0.148,-0.582 -0.268,-1.078 -0.361,-1.492c-0.24,0.093 -0.494,0.153 -0.761,0.18c0.027,1.548 0.05,2.796 0.07,3.744c0.02,0.948 0.05,1.542 0.09,1.782c0.027,0.041 0.043,0.077 0.05,0.11c0.007,0.034 0.01,0.084 0.01,0.151c0,0.186 -0.07,0.35 -0.21,0.49c-0.14,0.14 -0.304,0.211 -0.491,0.211c-0.093,0 -0.183,-0.024 -0.27,-0.071c-0.087,-0.047 -0.167,-0.206 -0.24,-0.48c-0.074,-0.273 -0.137,-0.707 -0.191,-1.301c-0.053,-0.595 -0.1,-1.439 -0.14,-2.534c-0.04,-1.094 -0.07,-2.486 -0.089,-4.174c-0.021,-1.688 -0.031,-3.768 -0.031,-6.237c0,-0.107 0.02,-0.187 0.06,-0.241c0,-0.066 0.047,-0.146 0.141,-0.24c0.133,-0.133 0.3,-0.2 0.5,-0.2c0.587,0 1.101,0.063 1.542,0.19c0.44,0.127 0.814,0.294 1.121,0.501c0.307,0.207 0.561,0.433 0.76,0.681c0.201,0.247 0.361,0.49 0.482,0.731c0.293,0.573 0.44,1.241 0.44,2.002c0,0.574 -0.09,1.147 -0.271,1.722c-0.18,0.574 -0.443,1.1 -0.79,1.581l0,0Zm-2.603,-5.966c0,1.121 0,2.202 0,3.244c0,1.04 0.007,2.001 0.02,2.882c0.347,-0.052 0.641,-0.183 0.881,-0.39c0.24,-0.207 0.434,-0.404 0.581,-0.591c0.253,-0.36 0.45,-0.757 0.59,-1.191c0.141,-0.434 0.211,-0.864 0.211,-1.291c0,-0.521 -0.101,-0.982 -0.301,-1.382c-0.361,-0.707 -1.021,-1.135 -1.982,-1.281l0,0Zm0.04,6.547c0,-0.067 -0.004,-0.137 -0.01,-0.21c-0.007,-0.074 -0.01,-0.144 -0.01,-0.211c-0.067,0.014 -0.127,0.024 -0.18,0.031c-0.054,0.007 -0.114,0.003 -0.181,-0.011l0.381,0.401Z" style="fill:#fff;fill-rule:nonzero;"/></g></svg>