<?xml version="1.0" encoding="UTF-8" standalone="no"?><!DOCTYPE svg PUBLIC "-//W3C//DTD SVG 1.1//EN" "http://www.w3.org/Graphics/SVG/1.1/DTD/svg11.dtd"><svg width="100%" height="100%" viewBox="0 0 90 40" version="1.1" xmlns="http://www.w3.org/2000/svg" xmlns:xlink="http://www.w3.org/1999/xlink" xml:space="preserve" style="fill-rule:evenodd;clip-rule:evenodd;stroke-miterlimit:22.9256;"><g><path d="M2.193,36.722c-0.334,-0.173 -0.634,-0.503 -0.9,-0.988c-0.267,-0.487 -0.49,-1.1 -0.67,-1.84c-0.18,-0.739 -0.32,-1.592 -0.419,-2.558c-0.1,-0.966 -0.157,-2.015 -0.17,-3.147c-0.014,-0.227 -0.024,-0.477 -0.031,-0.75c-0.006,-0.273 -0.009,-0.516 -0.009,-0.729c0,-1.453 0.143,-2.625 0.43,-3.518c0.286,-0.893 0.722,-1.486 1.308,-1.779c0.134,-0.067 0.27,-0.117 0.411,-0.15c0.139,-0.033 0.289,-0.05 0.449,-0.05c0.52,0 1.019,0.187 1.499,0.56c0.2,0.174 0.393,0.38 0.579,0.619c0.187,0.24 0.347,0.493 0.48,0.76c0.133,0.266 0.227,0.543 0.28,0.829c0.053,0.287 0.047,0.557 -0.02,0.81c-0.04,0.187 -0.143,0.329 -0.309,0.429c-0.168,0.1 -0.344,0.124 -0.53,0.071c-0.187,-0.04 -0.33,-0.144 -0.43,-0.31c-0.1,-0.167 -0.124,-0.343 -0.07,-0.53c0.053,-0.2 -0.003,-0.453 -0.17,-0.759c-0.166,-0.307 -0.383,-0.573 -0.65,-0.8c-0.106,-0.08 -0.243,-0.16 -0.409,-0.24c-0.167,-0.08 -0.324,-0.08 -0.469,0l0.019,-0.02c-0.08,0.04 -0.177,0.127 -0.289,0.26c-0.114,0.133 -0.224,0.35 -0.331,0.65c-0.106,0.3 -0.196,0.702 -0.27,1.209c-0.073,0.506 -0.109,1.159 -0.109,1.959c0,0.226 0.003,0.459 0.01,0.699c0.006,0.24 0.016,0.493 0.03,0.759c0,1.213 0.04,2.262 0.12,3.148c0.08,0.887 0.186,1.623 0.32,2.209c0.133,0.586 0.282,1.039 0.449,1.359c0.167,0.32 0.337,0.526 0.51,0.62c0.053,0.026 0.107,0.012 0.159,-0.04c0.32,-0.227 0.597,-0.727 0.83,-1.499c0.233,-0.774 0.35,-1.733 0.35,-2.879c0,-0.226 -0.003,-0.399 -0.01,-0.519c-0.007,-0.12 -0.017,-0.306 -0.03,-0.56c-0.32,-0.04 -0.786,-0.06 -1.4,-0.06c-0.185,0 -0.349,-0.069 -0.489,-0.209c-0.139,-0.14 -0.21,-0.303 -0.21,-0.49c0,-0.187 0.071,-0.35 0.21,-0.49c0.14,-0.14 0.304,-0.21 0.489,-0.21c0.627,0 1.124,0.023 1.49,0.07c0.366,0.047 0.639,0.11 0.819,0.19c0.18,0.08 0.296,0.17 0.35,0.27c0.054,0.1 0.08,0.196 0.08,0.29c0.027,0.28 0.05,0.569 0.07,0.869c0.02,0.3 0.03,0.583 0.03,0.849c0,0.707 -0.05,1.359 -0.15,1.96c-0.1,0.599 -0.23,1.139 -0.39,1.618c-0.159,0.48 -0.35,0.886 -0.569,1.219c-0.22,0.333 -0.45,0.58 -0.69,0.739c-0.293,0.187 -0.593,0.28 -0.899,0.28c-0.12,0 -0.237,-0.016 -0.35,-0.05c-0.113,-0.033 -0.223,-0.076 -0.329,-0.13" style="fill:#fefefe;fill-rule:nonzero;"/><path d="M9.787,28.728c-0.16,0.2 -0.333,0.393 -0.52,0.579c0.054,0.294 0.144,0.723 0.27,1.29c0.127,0.566 0.286,1.163 0.48,1.789c0.193,0.625 0.42,1.232 0.68,1.818c0.26,0.587 0.549,1.04 0.869,1.359c0.12,0.133 0.183,0.284 0.189,0.45c0.007,0.166 -0.042,0.316 -0.149,0.45c-0.133,0.173 -0.313,0.259 -0.54,0.259c-0.187,0 -0.346,-0.066 -0.48,-0.199c-0.346,-0.36 -0.659,-0.817 -0.939,-1.369c-0.28,-0.554 -0.526,-1.136 -0.74,-1.75c-0.213,-0.612 -0.393,-1.208 -0.539,-1.788c-0.146,-0.58 -0.267,-1.076 -0.359,-1.489c-0.241,0.094 -0.494,0.153 -0.76,0.18c0.026,1.546 0.05,2.791 0.069,3.738c0.021,0.945 0.051,1.538 0.09,1.778c0.027,0.04 0.044,0.077 0.051,0.11c0.006,0.033 0.01,0.083 0.01,0.15c0,0.186 -0.071,0.35 -0.21,0.489c-0.14,0.14 -0.304,0.211 -0.49,0.211c-0.093,0 -0.183,-0.024 -0.27,-0.071c-0.086,-0.046 -0.166,-0.206 -0.24,-0.479c-0.073,-0.274 -0.137,-0.707 -0.189,-1.299c-0.054,-0.593 -0.1,-1.436 -0.14,-2.529c-0.04,-1.092 -0.071,-2.481 -0.09,-4.166c-0.021,-1.686 -0.03,-3.761 -0.03,-6.226c0,-0.107 0.02,-0.187 0.06,-0.24c0,-0.067 0.046,-0.147 0.14,-0.24c0.133,-0.133 0.299,-0.199 0.5,-0.199c0.585,0 1.099,0.062 1.538,0.189c0.44,0.127 0.813,0.293 1.119,0.5c0.307,0.206 0.56,0.433 0.76,0.679c0.199,0.247 0.36,0.49 0.479,0.73c0.293,0.573 0.44,1.239 0.44,1.998c0,0.573 -0.09,1.146 -0.27,1.719c-0.18,0.573 -0.443,1.099 -0.789,1.579l0,0Zm-2.598,-5.956c0,1.119 0,2.199 0,3.238c0,1.04 0.006,1.999 0.02,2.878c0.346,-0.054 0.639,-0.183 0.879,-0.39c0.24,-0.206 0.433,-0.403 0.58,-0.59c0.253,-0.359 0.449,-0.756 0.589,-1.189c0.14,-0.433 0.21,-0.862 0.21,-1.289c0,-0.52 -0.1,-0.979 -0.3,-1.378c-0.36,-0.707 -1.019,-1.133 -1.978,-1.28l0,0Zm0.039,6.535c0,-0.066 -0.003,-0.136 -0.009,-0.209c-0.007,-0.073 -0.01,-0.143 -0.01,-0.21c-0.067,0.014 -0.127,0.023 -0.18,0.03c-0.053,0.006 -0.114,0.003 -0.18,-0.01l0.379,0.399Z" style="fill:#fefefe;fill-rule:nonzero;"/><path d="M12.545,36.722c-0.187,0 -0.347,-0.063 -0.48,-0.19c-0.133,-0.126 -0.207,-0.282 -0.22,-0.469c-0.027,-0.48 -0.043,-0.976 -0.05,-1.489c-0.006,-0.513 -0.01,-0.99 -0.01,-1.429c0,-1.732 0.07,-3.274 0.21,-4.627c0.14,-1.352 0.327,-2.515 0.559,-3.487c0.234,-0.973 0.497,-1.753 0.791,-2.339c0.293,-0.586 0.592,-0.979 0.899,-1.179c0.199,-0.093 0.422,-0.137 0.669,-0.13c0.246,0.007 0.457,0.057 0.63,0.15c0.293,0.199 0.553,0.553 0.779,1.059c0.227,0.507 0.416,1.146 0.57,1.919c0.153,0.773 0.266,1.663 0.339,2.668c0.074,1.006 0.111,2.116 0.111,3.328c-0.014,0.853 -0.04,1.752 -0.08,2.698c-0.041,0.946 -0.1,1.925 -0.18,2.938c-0.027,0.186 -0.104,0.34 -0.23,0.46c-0.127,0.119 -0.303,0.18 -0.53,0.18c-0.186,-0.027 -0.336,-0.117 -0.45,-0.27c-0.113,-0.154 -0.169,-0.317 -0.169,-0.49c0.079,-0.973 0.136,-1.832 0.169,-2.579c0.033,-0.745 0.057,-1.498 0.07,-2.257l-1.778,0c-0.213,0 -0.397,-0.004 -0.55,-0.011c-0.153,-0.006 -0.29,-0.017 -0.409,-0.029c-0.014,0.332 -0.024,0.665 -0.031,0.999c-0.007,0.333 -0.009,0.686 -0.009,1.059c0,0.879 0.019,1.819 0.059,2.818c0,0.187 -0.066,0.35 -0.199,0.49c-0.134,0.14 -0.294,0.209 -0.48,0.209l0,0Zm3.397,-6.915c-0.013,-2.224 -0.133,-3.903 -0.359,-5.036c-0.227,-1.133 -0.467,-1.812 -0.72,-2.039c-0.306,0.24 -0.616,0.946 -0.929,2.119c-0.314,1.172 -0.53,2.805 -0.65,4.896c0.267,0.027 0.627,0.044 1.079,0.05c0.453,0.007 0.98,0.01 1.579,0.01l0,0Zm-1.139,-7.115l0.06,0.04l-0.04,-0.04l-0.02,0l0,0Zm0.12,0l-0.06,0.04c0.014,0 0.027,-0.006 0.04,-0.02l0.02,-0.02l0,0Z" style="fill:#fefefe;fill-rule:nonzero;"/><path d="M18.201,36.783c-0.187,0 -0.35,-0.071 -0.49,-0.211c-0.14,-0.139 -0.21,-0.303 -0.21,-0.489c0,-2.478 0.004,-4.554 0.01,-6.226c0.007,-1.672 0.02,-3.048 0.04,-4.127c0.02,-1.079 0.047,-1.902 0.08,-2.468c0.034,-0.566 0.07,-0.976 0.11,-1.229c0.013,-0.093 0.04,-0.187 0.08,-0.28c0.04,-0.093 0.094,-0.173 0.16,-0.24c0.08,-0.106 0.157,-0.16 0.23,-0.16c0.073,0 0.143,0 0.209,0c0.107,0 0.18,0.014 0.22,0.04c0.121,0.027 0.227,0.114 0.32,0.26l-0.02,-0.02l0.16,0.18c0.094,0.493 0.237,1.069 0.43,1.729c0.193,0.659 0.423,1.429 0.689,2.308l0.12,0.36c0.147,0.493 0.264,0.869 0.35,1.129c0.087,0.26 0.17,0.523 0.25,0.789c0.08,0.267 0.173,0.594 0.28,0.98c0.106,0.386 0.26,0.952 0.459,1.698c0.014,-1.572 0.031,-2.898 0.05,-3.976c0.021,-1.08 0.05,-1.97 0.09,-2.669c0.04,-0.699 0.083,-1.239 0.13,-1.619c0.047,-0.379 0.104,-0.656 0.17,-0.829c0.067,-0.173 0.14,-0.277 0.22,-0.31c0.08,-0.033 0.167,-0.05 0.259,-0.05c0.187,0 0.348,0.064 0.48,0.19c0.133,0.127 0.2,0.296 0.2,0.51c0,0.093 -0.006,0.166 -0.02,0.219c-0.026,0.174 -0.05,0.627 -0.07,1.359c-0.02,0.734 -0.039,1.696 -0.06,2.889c-0.019,1.192 -0.036,2.598 -0.05,4.217c-0.013,1.618 -0.019,3.401 -0.019,5.346c0,0.067 -0.004,0.113 -0.011,0.14c-0.006,0.027 -0.029,0.067 -0.069,0.12c-0.014,0.026 -0.031,0.059 -0.05,0.1c-0.021,0.04 -0.044,0.073 -0.07,0.1l-0.081,0.06c-0.026,0.026 -0.073,0.053 -0.139,0.08c-0.067,0.026 -0.114,0.039 -0.14,0.039c0,0.014 0.007,0.021 0.02,0.021c0,0 0,0.006 0,0.019c-0.013,0 -0.04,0.004 -0.08,0.011c-0.04,0.006 -0.067,0.01 -0.08,0.01c-0.173,0 -0.333,-0.074 -0.479,-0.22l-0.041,-0.04c-0.04,-0.04 -0.066,-0.074 -0.08,-0.1c-0.04,-0.054 -0.063,-0.1 -0.07,-0.14c-0.006,-0.04 -0.01,-0.08 -0.01,-0.12c-0.506,-2.052 -0.995,-3.884 -1.468,-5.496c-0.474,-1.613 -0.897,-3.032 -1.27,-4.258c-0.026,1.213 -0.043,2.633 -0.05,4.258c-0.006,1.625 -0.009,3.431 -0.009,5.416c0,0.186 -0.068,0.35 -0.201,0.489c-0.133,0.14 -0.293,0.211 -0.479,0.211" style="fill:#fefefe;fill-rule:nonzero;"/><path d="M23.557,36.303c-0.027,-0.027 -0.04,-0.053 -0.04,-0.08c-0.027,-0.04 -0.043,-0.08 -0.05,-0.12c-0.006,-0.04 -0.01,-0.12 -0.01,-0.24c0.013,-0.106 0.023,-0.51 0.03,-1.209c0.007,-0.699 0.013,-1.649 0.02,-2.848c0.007,-1.199 0.01,-2.628 0.01,-4.287c0,-1.659 0,-3.501 0,-5.526c0,-0.187 0.07,-0.347 0.21,-0.48c0.14,-0.133 0.303,-0.2 0.49,-0.2c0.679,0 1.292,0.22 1.838,0.66c0.547,0.439 0.999,1.092 1.359,1.958c0.293,0.707 0.51,1.496 0.65,2.369c0.14,0.873 0.21,1.768 0.21,2.688c0,0.733 -0.044,1.456 -0.131,2.168c-0.086,0.713 -0.213,1.383 -0.379,2.009c-0.166,0.627 -0.37,1.193 -0.609,1.699c-0.241,0.506 -0.513,0.912 -0.82,1.219c-0.48,0.48 -1.006,0.719 -1.579,0.719c-0.293,0 -0.606,-0.08 -0.939,-0.239c-0.12,-0.054 -0.207,-0.14 -0.26,-0.26l0,0Zm2.598,-11.832c-0.346,-0.812 -0.759,-1.339 -1.239,-1.579l0,9.174c0,0.945 -0.006,1.672 -0.02,2.178c-0.013,0.507 -0.033,0.886 -0.059,1.139c0.173,-0.013 0.346,-0.106 0.519,-0.279c0.239,-0.24 0.456,-0.573 0.649,-1c0.194,-0.426 0.357,-0.909 0.49,-1.449c0.133,-0.539 0.234,-1.122 0.3,-1.749c0.067,-0.626 0.1,-1.258 0.1,-1.898c0,-0.84 -0.06,-1.655 -0.18,-2.448c-0.12,-0.793 -0.306,-1.489 -0.56,-2.089" style="fill:#fefefe;fill-rule:nonzero;"/><path d="M30.701,28.788c-0.014,-1.079 0.036,-2.075 0.149,-2.988c0.114,-0.912 0.27,-1.705 0.471,-2.378c0.199,-0.673 0.446,-1.21 0.739,-1.609c0.293,-0.399 0.613,-0.633 0.959,-0.699c0.519,-0.054 1.002,0.206 1.449,0.779c0.446,0.573 0.823,1.459 1.13,2.658c0.052,0.186 0.026,0.363 -0.081,0.529c-0.106,0.168 -0.239,0.27 -0.399,0.31l0.02,0c-0.2,0.067 -0.38,0.05 -0.54,-0.05c-0.16,-0.099 -0.273,-0.243 -0.34,-0.429c-0.226,-0.866 -0.433,-1.489 -0.619,-1.869c-0.187,-0.38 -0.326,-0.556 -0.42,-0.529c-0.12,0.013 -0.25,0.153 -0.39,0.419c-0.139,0.267 -0.266,0.66 -0.379,1.179c-0.113,0.52 -0.203,1.17 -0.27,1.949c-0.067,0.779 -0.094,1.689 -0.08,2.728c-0.014,1.08 0.017,2.012 0.09,2.799c0.073,0.786 0.17,1.445 0.289,1.978c0.12,0.533 0.26,0.946 0.42,1.239c0.16,0.293 0.32,0.487 0.48,0.579c0.026,0.027 0.053,0.027 0.08,0c0.2,-0.119 0.383,-0.396 0.55,-0.829c0.166,-0.433 0.243,-1.016 0.229,-1.749c0,-0.186 0.064,-0.349 0.19,-0.489c0.127,-0.14 0.297,-0.21 0.51,-0.21c0.186,0 0.349,0.07 0.489,0.21c0.14,0.14 0.211,0.303 0.211,0.489c0,0.893 -0.131,1.679 -0.391,2.358c-0.26,0.68 -0.616,1.153 -1.068,1.42c-0.267,0.146 -0.514,0.219 -0.74,0.219c-0.24,0 -0.493,-0.073 -0.759,-0.219c-0.641,-0.387 -1.133,-1.256 -1.479,-2.609c-0.347,-1.352 -0.514,-3.081 -0.5,-5.186" style="fill:#fefefe;fill-rule:nonzero;"/><path d="M36.517,36.622c-0.187,0 -0.347,-0.062 -0.48,-0.189c-0.133,-0.127 -0.207,-0.283 -0.219,-0.47c-0.028,-0.48 -0.044,-0.976 -0.051,-1.489c-0.006,-0.512 -0.01,-0.989 -0.01,-1.428c0,-1.733 0.07,-3.275 0.21,-4.627c0.14,-1.353 0.327,-2.515 0.559,-3.488c0.234,-0.973 0.497,-1.752 0.791,-2.338c0.293,-0.587 0.592,-0.98 0.899,-1.179c0.199,-0.094 0.422,-0.137 0.669,-0.13c0.246,0.006 0.457,0.056 0.63,0.149c0.293,0.2 0.553,0.554 0.779,1.059c0.227,0.507 0.416,1.146 0.57,1.919c0.153,0.773 0.266,1.663 0.339,2.668c0.074,1.006 0.111,2.116 0.111,3.328c-0.014,0.853 -0.04,1.753 -0.08,2.698c-0.04,0.947 -0.1,1.925 -0.18,2.938c-0.027,0.186 -0.104,0.34 -0.23,0.46c-0.127,0.119 -0.303,0.18 -0.53,0.18c-0.186,-0.027 -0.336,-0.117 -0.45,-0.27c-0.113,-0.153 -0.169,-0.317 -0.169,-0.49c0.079,-0.973 0.136,-1.832 0.169,-2.578c0.033,-0.746 0.057,-1.499 0.07,-2.258l-1.778,0c-0.213,0 -0.397,-0.004 -0.55,-0.011c-0.153,-0.006 -0.29,-0.016 -0.409,-0.029c-0.014,0.332 -0.024,0.666 -0.031,0.999c-0.007,0.333 -0.009,0.686 -0.009,1.059c0,0.879 0.019,1.819 0.059,2.818c0,0.187 -0.066,0.35 -0.199,0.49c-0.134,0.14 -0.294,0.209 -0.48,0.209l0,0Zm3.397,-6.915c-0.013,-2.224 -0.133,-3.903 -0.359,-5.036c-0.227,-1.133 -0.467,-1.812 -0.72,-2.039c-0.306,0.24 -0.616,0.947 -0.929,2.119c-0.314,1.172 -0.53,2.805 -0.65,4.897c0.267,0.026 0.627,0.043 1.079,0.05c0.453,0.006 0.98,0.009 1.579,0.009l0,0Zm-1.139,-7.114l0.06,0.039l-0.04,-0.039l-0.02,0Zm0.12,0l-0.06,0.039c0.014,0 0.027,-0.006 0.04,-0.02l0.02,-0.019l0,0Z" style="fill:#fefefe;fill-rule:nonzero;"/><path d="M42.173,36.683c-0.187,0 -0.35,-0.071 -0.49,-0.21c-0.14,-0.14 -0.21,-0.303 -0.21,-0.49c0,-2.478 0.004,-4.554 0.01,-6.226c0.007,-1.672 0.02,-3.047 0.04,-4.127c0.02,-1.079 0.047,-1.902 0.08,-2.468c0.034,-0.566 0.071,-0.976 0.11,-1.229c0.013,-0.093 0.04,-0.187 0.08,-0.28c0.04,-0.093 0.094,-0.173 0.16,-0.239c0.08,-0.107 0.157,-0.161 0.23,-0.161c0.073,0 0.143,0 0.209,0c0.107,0 0.18,0.014 0.22,0.04c0.121,0.027 0.227,0.114 0.32,0.261l-0.019,-0.021l0.159,0.18c0.094,0.493 0.237,1.07 0.43,1.729c0.193,0.66 0.423,1.429 0.689,2.308l0.12,0.36c0.147,0.493 0.264,0.869 0.35,1.129c0.087,0.26 0.17,0.523 0.25,0.789c0.08,0.267 0.173,0.594 0.28,0.98c0.106,0.386 0.26,0.953 0.459,1.699c0.014,-1.573 0.031,-2.899 0.05,-3.977c0.021,-1.08 0.05,-1.969 0.09,-2.668c0.04,-0.7 0.083,-1.239 0.13,-1.62c0.047,-0.379 0.104,-0.656 0.17,-0.829c0.067,-0.173 0.14,-0.277 0.22,-0.31c0.08,-0.033 0.167,-0.05 0.26,-0.05c0.186,0 0.347,0.064 0.48,0.19c0.132,0.127 0.199,0.296 0.199,0.51c0,0.093 -0.006,0.167 -0.02,0.219c-0.026,0.174 -0.05,0.627 -0.07,1.36c-0.02,0.733 -0.039,1.695 -0.06,2.888c-0.019,1.192 -0.036,2.598 -0.049,4.217c-0.014,1.619 -0.02,3.401 -0.02,5.346c0,0.067 -0.004,0.113 -0.011,0.14c-0.006,0.027 -0.029,0.067 -0.069,0.12c-0.014,0.026 -0.031,0.06 -0.05,0.1c-0.021,0.04 -0.044,0.073 -0.07,0.1l-0.081,0.06c-0.026,0.027 -0.073,0.053 -0.139,0.08c-0.067,0.027 -0.114,0.039 -0.14,0.039c0,0.014 0.007,0.021 0.02,0.021c0,0 0,0.007 0,0.019c-0.013,0 -0.04,0.004 -0.08,0.011c-0.04,0.006 -0.067,0.01 -0.08,0.01c-0.173,0 -0.333,-0.073 -0.479,-0.22l-0.04,-0.04c-0.041,-0.04 -0.067,-0.073 -0.081,-0.1c-0.04,-0.054 -0.063,-0.1 -0.07,-0.14c-0.006,-0.04 -0.01,-0.08 -0.01,-0.12c-0.506,-2.052 -0.995,-3.884 -1.468,-5.496c-0.474,-1.612 -0.897,-3.031 -1.269,-4.257c-0.027,1.212 -0.044,2.632 -0.051,4.257c-0.006,1.626 -0.009,3.431 -0.009,5.416c0,0.187 -0.068,0.35 -0.201,0.49c-0.133,0.139 -0.293,0.21 -0.479,0.21" style="fill:#fefefe;fill-rule:nonzero;"/><path d="M48.608,21.773c0.107,0.506 0.243,1.01 0.41,1.509c0.167,0.5 0.346,0.986 0.54,1.459c0.193,0.473 0.39,0.923 0.589,1.349c0.2,0.427 0.386,0.806 0.56,1.14c0.253,-0.933 0.506,-1.85 0.759,-2.749c0.253,-0.899 0.507,-1.815 0.76,-2.748c0.04,-0.16 0.143,-0.293 0.31,-0.399c0.166,-0.107 0.343,-0.134 0.529,-0.081c0.187,0.054 0.324,0.161 0.41,0.32c0.087,0.16 0.11,0.333 0.07,0.52l-3.858,14.09c-0.04,0.147 -0.123,0.266 -0.25,0.36c-0.126,0.093 -0.263,0.14 -0.409,0.14l-0.1,-0.021c-0.213,-0.052 -0.37,-0.163 -0.47,-0.329c-0.099,-0.166 -0.129,-0.343 -0.089,-0.53l1.818,-6.655c-0.133,-0.24 -0.333,-0.6 -0.599,-1.08c-0.267,-0.479 -0.547,-1.039 -0.84,-1.678c-0.293,-0.64 -0.576,-1.332 -0.849,-2.079c-0.273,-0.746 -0.49,-1.499 -0.65,-2.258l0.02,0.02c-0.053,-0.2 -0.03,-0.373 0.07,-0.519c0.1,-0.147 0.243,-0.247 0.43,-0.301c0.2,-0.053 0.382,-0.023 0.55,0.09c0.166,0.114 0.263,0.27 0.289,0.47l0,-0.04l0,0Z" style="fill:#fefefe;fill-rule:nonzero;"/><path d="M58.522,29.128c0.013,1.093 -0.037,2.099 -0.151,3.018c-0.112,0.919 -0.272,1.715 -0.479,2.388c-0.206,0.673 -0.463,1.206 -0.769,1.599c-0.307,0.393 -0.647,0.616 -1.02,0.669l-0.18,0c-0.186,0 -0.386,-0.046 -0.599,-0.14c-0.214,-0.092 -0.43,-0.269 -0.65,-0.529c-0.22,-0.26 -0.436,-0.613 -0.649,-1.059c-0.213,-0.446 -0.42,-1.022 -0.62,-1.729c-0.093,-0.346 -0.153,-0.759 -0.18,-1.239c-0.026,-0.48 -0.04,-0.999 -0.04,-1.559c0,-0.639 0.014,-1.295 0.04,-1.969c0.027,-0.673 0.054,-1.289 0.08,-1.848c0.04,-0.693 0.06,-1.233 0.06,-1.619c0,-0.879 0.133,-1.659 0.4,-2.338c0.266,-0.68 0.633,-1.153 1.099,-1.42l-0.02,0c0.24,-0.159 0.513,-0.239 0.82,-0.239c0.119,0 0.253,0.023 0.4,0.07c0.146,0.046 0.279,0.103 0.399,0.169c0.667,0.414 1.179,1.297 1.539,2.649c0.36,1.352 0.533,3.06 0.52,5.126l0,0Zm-2.619,6.276c0.134,-0.014 0.277,-0.154 0.431,-0.42c0.152,-0.266 0.289,-0.66 0.409,-1.18c0.12,-0.519 0.216,-1.165 0.29,-1.938c0.073,-0.773 0.103,-1.686 0.09,-2.738c0.013,-1.066 -0.021,-1.988 -0.1,-2.768c-0.08,-0.78 -0.184,-1.436 -0.31,-1.969c-0.127,-0.533 -0.273,-0.949 -0.44,-1.249c-0.166,-0.3 -0.336,-0.496 -0.51,-0.589c-0.066,-0.04 -0.139,-0.04 -0.22,0l0.021,-0.021c-0.2,0.12 -0.387,0.4 -0.56,0.84c-0.173,0.439 -0.253,1.019 -0.24,1.739c0,0.187 -0.003,0.426 -0.01,0.719c-0.006,0.294 -0.023,0.613 -0.049,0.96c-0.028,0.533 -0.057,1.129 -0.09,1.788c-0.034,0.66 -0.05,1.296 -0.05,1.909c0,0.506 0.013,0.986 0.039,1.439c0.027,0.453 0.073,0.813 0.141,1.079c0.226,0.813 0.446,1.422 0.659,1.829c0.213,0.407 0.373,0.596 0.48,0.57l0.019,0Z" style="fill:#fefefe;fill-rule:nonzero;"/><path d="M59.322,36.683c-0.187,0 -0.35,-0.071 -0.49,-0.21c-0.14,-0.14 -0.21,-0.303 -0.21,-0.49c0,-2.478 0.003,-4.554 0.009,-6.226c0.007,-1.672 0.021,-3.047 0.04,-4.127c0.021,-1.079 0.047,-1.902 0.081,-2.468c0.033,-0.566 0.07,-0.976 0.109,-1.229c0.014,-0.093 0.04,-0.187 0.08,-0.28c0.04,-0.093 0.094,-0.173 0.161,-0.239c0.08,-0.107 0.156,-0.161 0.229,-0.161c0.074,0 0.143,0 0.21,0c0.106,0 0.18,0.014 0.22,0.04c0.12,0.027 0.226,0.114 0.32,0.261l-0.02,-0.021l0.159,0.18c0.094,0.493 0.237,1.07 0.43,1.729c0.193,0.66 0.424,1.429 0.69,2.308l0.12,0.36c0.147,0.493 0.263,0.869 0.349,1.129c0.087,0.26 0.17,0.523 0.25,0.789c0.081,0.267 0.174,0.594 0.28,0.98c0.107,0.386 0.26,0.953 0.46,1.699c0.013,-1.573 0.03,-2.899 0.05,-3.977c0.02,-1.08 0.05,-1.969 0.09,-2.668c0.04,-0.7 0.083,-1.239 0.13,-1.62c0.046,-0.379 0.103,-0.656 0.17,-0.829c0.066,-0.173 0.14,-0.277 0.22,-0.31c0.079,-0.033 0.166,-0.05 0.259,-0.05c0.187,0 0.347,0.064 0.48,0.19c0.133,0.127 0.2,0.296 0.2,0.51c0,0.093 -0.007,0.167 -0.02,0.219c-0.027,0.174 -0.05,0.627 -0.071,1.36c-0.019,0.733 -0.039,1.695 -0.059,2.888c-0.02,1.192 -0.037,2.598 -0.05,4.217c-0.014,1.619 -0.02,3.401 -0.02,5.346c0,0.067 -0.004,0.113 -0.01,0.14c-0.007,0.027 -0.03,0.067 -0.07,0.12c-0.013,0.026 -0.03,0.06 -0.05,0.1c-0.02,0.04 -0.043,0.073 -0.07,0.1l-0.08,0.06c-0.027,0.027 -0.073,0.053 -0.14,0.08c-0.067,0.027 -0.113,0.039 -0.14,0.039c0,0.014 0.007,0.021 0.021,0.021c0,0 0,0.007 0,0.019c-0.014,0 -0.041,0.004 -0.081,0.011c-0.04,0.006 -0.066,0.01 -0.08,0.01c-0.173,0 -0.333,-0.073 -0.479,-0.22l-0.04,-0.04c-0.04,-0.04 -0.066,-0.073 -0.08,-0.1c-0.04,-0.054 -0.064,-0.1 -0.07,-0.14c-0.006,-0.04 -0.01,-0.08 -0.01,-0.12c-0.507,-2.052 -0.996,-3.884 -1.469,-5.496c-0.473,-1.612 -0.896,-3.031 -1.269,-4.257c-0.027,1.212 -0.043,2.632 -0.05,4.257c-0.007,1.626 -0.01,3.431 -0.01,5.416c0,0.187 -0.067,0.35 -0.2,0.49c-0.133,0.139 -0.294,0.21 -0.479,0.21" style="fill:#fefefe;fill-rule:nonzero;"/><path d="M73.858,17.531c0.904,-0.805 2.097,-1.295 3.403,-1.295c2.827,0 5.119,2.292 5.119,5.119c0,1.35 -0.524,2.578 -1.378,3.493c-0.133,0.167 -0.065,-0.052 -0.098,-0.077c-0.113,-0.087 -0.047,-0.176 -0.162,-0.259c0.031,-0.032 -0.009,-0.062 0.02,-0.094c0.732,-0.811 1.162,-1.96 1.162,-3.139c0,-2.524 -2.123,-4.579 -4.713,-4.579c-1.185,0 -2.18,0.424 -3.015,1.137c-0.122,0.104 -0.477,0.165 -0.522,-0.033c-0.044,-0.193 -0.16,-0.013 0.184,-0.273" style="fill:#fefefe;"/><path d="M63.989,33.21l11.55,0c0.115,-0.34 1.459,0.884 0.511,-0.329l-12.94,-0.006l1.403,-1.031c1.129,-0.787 0.659,-0.704 1.719,-0.702l1.348,0.001c3.067,-0.028 6.223,0 9.309,-0.001c0.459,0 0.954,-0.07 1.37,-0.003l0.076,-0.33l-0.748,-0.005c0,-0.574 0.062,-3.479 -0.045,-3.752c-0.407,-0.107 -0.289,0.346 -0.289,0.684c0,0.571 0.039,2.828 -0.02,3.075l-1.569,-0.007c-0.086,-0.483 0.079,-1.593 -0.049,-1.972c-0.213,-0.076 -0.298,-0.012 -0.303,0.217l0.004,1.759l-1.353,0c0.011,-1.848 0.015,-3.711 0.001,-5.558c-0.005,-0.7 0.085,-0.668 -0.309,-1.064c-0.44,-0.442 -0.484,-0.497 -0.481,-0.889l0,-2.095c0,-0.206 0.056,-0.515 -0.161,-0.522c-0.235,-0.006 -0.173,0.332 -0.172,0.522l0,2.059c0,0.272 -0.047,0.443 0.092,0.617c0.713,0.89 0.696,0.467 0.696,1.372c0.001,1.852 -0.009,3.705 0,5.558l-3.12,-0.002c-0.001,-0.337 0,-0.673 0,-1.01c0,-0.231 0.096,-0.764 -0.188,-0.74c-0.249,0.02 -0.149,0.608 -0.149,0.811c0,0.238 0.026,0.732 -0.017,0.944l-0.81,-0.008c-0.038,-0.269 -0.012,-1.654 -0.011,-2.109c0,-0.205 0.071,-0.572 -0.189,-0.548c-0.214,0.021 -0.146,0.381 -0.146,0.584c0,0.422 0.028,1.853 -0.015,2.08l-0.857,0c-0.08,-0.399 0.176,-1.223 -0.303,-1.088c-0.12,0.257 -0.02,0.756 -0.056,1.087l-0.521,-0.006c-0.093,-0.678 0.085,-3.056 -0.044,-3.472c-0.406,-0.13 -0.302,0.273 -0.302,0.618l0,2.859l-1.317,-0.005l-0.004,-6.859l-0.318,0.099c-0.046,0.852 0.096,6.63 -0.029,6.846c-0.064,0.062 -0.57,0.439 -1.238,0.927m-0.57,4.61l24.409,0.001c0.127,0.007 1.271,0.027 1.363,-0.014c0.133,-0.058 0.119,-0.243 -0.008,-0.299c-0.205,-0.09 -1.56,0.051 -1.885,-0.029c-0.097,-0.024 -0.918,-0.717 -1.055,-0.835c-0.233,-0.203 -0.88,-0.697 -1.037,-0.871c-0.115,-0.056 -0.385,-0.299 -0.502,-0.398l-3.26,-2.698l-0.001,-1.895c-0.169,-0.023 -0.174,-0.066 -0.371,-0.061c0.019,0.61 0.019,1.246 0.036,1.928c0.007,0.294 0.146,0.308 0.303,0.443c1.557,1.34 3.337,2.701 4.902,4.049c0.07,0.06 0.121,0.094 0.197,0.157l0.193,0.192l-22.827,-0.01m1.399,-15.892c-0.051,0.172 -0.024,2.087 -0.025,2.536c-0.001,0.222 -0.009,0.208 0.101,0.339c0.072,0.085 0.135,0.179 0.223,0.226c0.016,-0.791 0.001,-1.915 0.001,-2.77c0.001,-0.276 0.13,-0.335 0.294,-0.455c0.126,0.045 1.123,0.621 1.238,0.711c0.217,0.168 0.282,0.367 0.28,0.704c-0.007,1.056 -0.292,3.624 0.029,4.208c0.077,0.139 0.256,0.103 0.296,-0.057c0.002,-0.88 -0.059,-4.216 -0.055,-4.647c-0.125,-0.395 -0.394,-0.505 -0.73,-0.702c-0.284,-0.168 -0.65,-0.405 -0.924,-0.529c0.008,-1.435 -0.158,-1.702 1.042,-2.246c0.319,-0.145 0.258,-0.142 0.671,-0.14c0.556,0.001 2.089,-0.036 2.434,0.011c0.063,0.759 -0.091,0.527 -0.447,0.903c-0.151,0.159 -0.204,0.771 0.242,1.04l0.006,-0.828c0.119,-0.065 0.303,-0.227 0.417,-0.328c0.186,-0.164 0.124,-0.349 0.124,-0.662c0.161,0.027 0.674,0.331 0.842,0.424c-0.001,0.484 -0.046,8.056 0.032,8.324c0.42,0.141 0.296,-0.362 0.296,-0.722c0,-2.458 0.041,-5.122 0.001,-7.529c0.754,-0.044 1.612,-0.008 2.378,-0.008c0.478,-0.001 0.575,0.077 0.892,0.289c0.195,0.131 0.541,0.345 0.706,0.501c0.039,0.079 0.006,3.411 0.008,3.802c0.001,0.201 0.01,0.214 0.105,0.345c0.321,0.449 0.215,0.35 0.215,1.215c0.001,0.32 0,0.64 0,0.959c0,0.227 -0.089,0.787 0.14,0.821c0.294,0.043 0.197,-0.5 0.197,-0.715l0.001,-1.919c-0.009,-0.344 -0.259,-0.408 -0.315,-0.641c-0.046,-0.198 -0.035,-3.469 0,-3.793c0.544,-0.014 0.946,0.156 0.992,0.675l0.003,3.335c-0.002,0.319 -0.092,1.451 0.075,1.636c0.189,0.081 0.443,-0.019 0.745,0.105c0.77,0.315 0.532,0.112 0.572,0.782c0.018,0.309 0.399,0.323 0.845,0.68c0.083,0.066 0.418,0.453 0.443,0.542l0.01,2.008c0,0.216 -0.097,0.88 0.128,0.928c0.309,0.066 0.2,-0.593 0.2,-0.822l0.002,-2.026c0.001,-0.576 -0.482,-0.476 -0.478,-1.026l0.001,-2.523c0,-0.515 -0.043,-0.458 0.171,-0.843c0.217,-0.397 0.161,-0.344 0.161,-0.862c0,-0.254 -0.028,-0.794 0.019,-1.014c0.501,0.009 0.712,-0.052 0.707,0.516c-0.003,0.291 -0.038,0.322 0.108,0.524c0.076,0.105 0.22,0.264 0.243,0.402c0.175,1.02 -0.33,1.578 -0.328,2.199c0.002,0.418 -0.067,2.238 0.052,2.476c0.459,0.921 0.522,0.367 0.444,2.089c-0.009,0.074 -0.021,0.339 -0.036,0.565l0.369,0.039l-0.01,-2.02c-0.503,-1.152 -0.489,-0.158 -0.489,-1.941c-0.001,-1.283 -0.109,-1.087 0.268,-2.181c0.112,-0.325 0.071,-0.746 0.072,-1.123c0.002,-0.505 -0.307,-0.521 -0.361,-0.825c-0.078,-0.442 0.069,-0.727 -0.285,-0.932c-0.16,-0.093 -0.888,-0.221 -1.053,-0.055c-0.104,0.156 -0.049,1.152 -0.048,1.424c0.005,0.741 -0.33,0.592 -0.339,1.098c-0.017,0.976 0.032,1.977 -0.002,2.95c-0.13,-0.053 -0.378,-0.214 -0.48,-0.294c-0.005,-0.896 0.121,-0.672 -0.65,-0.992c-0.365,-0.152 -0.305,-0.12 -0.734,-0.153l-0.007,-4.137c0,-0.518 0.011,-0.834 -0.263,-1.169c-0.22,-0.269 -0.543,-0.368 -1.029,-0.372c-0.266,-0.001 -0.648,-0.335 -0.875,-0.495c-0.305,-0.214 -0.531,-0.36 -1.004,-0.368c-0.47,-0.007 -0.953,-0.003 -1.423,-0.001c-0.357,0.004 -1.047,0.085 -1.325,-0.07c-0.302,-0.168 -0.599,-0.32 -0.903,-0.482c-0.273,-0.145 -2.275,-0.069 -2.746,-0.07c-0.657,0 -0.592,0.058 -1.105,0.291c-1.545,0.703 -0.723,2.108 -1.023,2.493c-0.112,0.143 -0.217,0.157 -0.349,0.372l0,0Z" style="fill:#fefefe;stroke:#fefefe;stroke-width:0.58px;"/><path d="M75.37,13.507c0.137,0.145 0.167,0.417 0.269,0.515c0.136,0.08 0.243,0.008 0.405,0.126c0.388,0.286 -0.318,0.271 1.292,0.276c0.144,-0.044 0.159,-0.053 0.151,-0.236c-0.156,-0.171 -0.649,-0.096 -1.062,-0.103c-0.064,-0.13 -0.134,-0.2 -0.293,-0.275c-0.247,-0.117 -0.209,0.018 -0.325,-0.242c-0.131,-0.291 -0.299,-0.456 -0.618,-0.548c-0.835,-0.132 -0.978,0.426 -1.142,0.663c-0.276,-0.008 -0.455,0.022 -0.63,0.16c-0.224,0.176 -0.154,0.253 -0.294,0.47c-0.262,0.012 -0.691,-0.028 -0.894,0.046c-0.101,0.337 0.149,0.292 0.432,0.291c0.218,-0.002 0.61,0.062 0.748,-0.068c0.138,-0.145 0.028,-0.347 0.248,-0.5c0.266,-0.187 0.377,0.028 0.634,-0.009c0.172,-0.237 0.032,-0.426 0.344,-0.646c0.246,-0.17 0.593,-0.107 0.735,0.08" style="fill:#fefefe;"/><path d="M86.286,25.188c0.206,0.069 1.065,0.06 1.242,-0.013l0.014,-0.238c-0.195,-0.075 -0.506,-0.044 -0.724,-0.045l-0.336,-0.004c-0.057,-0.123 -0.125,-0.184 -0.245,-0.253c-0.079,-0.046 -0.088,-0.043 -0.174,-0.072c-0.289,-0.099 -0.055,-0.067 -0.341,-0.443c-0.26,-0.344 -0.797,-0.417 -1.155,-0.205c-0.297,0.177 -0.275,0.284 -0.457,0.568c-0.753,-0.049 -0.81,0.448 -0.924,0.631c-0.255,0.016 -0.7,-0.028 -0.89,0.047c-0.031,0.09 -0.031,0.162 0.002,0.25c0.239,0.095 1.009,0.074 1.208,-0.031c0.06,-0.253 0.029,-0.379 0.24,-0.51c0.309,-0.192 0.41,0.108 0.612,-0.022c0.115,-0.088 0.059,-0.69 0.641,-0.718c0.585,-0.028 0.58,0.596 0.701,0.691c0.26,0.159 0.33,-0.09 0.586,0.367" style="fill:#fefefe;"/></g></svg>