<?xml version="1.0" encoding="UTF-8" standalone="no"?><!DOCTYPE svg PUBLIC "-//W3C//DTD SVG 1.1//EN" "http://www.w3.org/Graphics/SVG/1.1/DTD/svg11.dtd"><svg width="100%" height="100%" viewBox="0 0 100 75" version="1.1" xmlns="http://www.w3.org/2000/svg" xmlns:xlink="http://www.w3.org/1999/xlink" xml:space="preserve" style="fill-rule:evenodd;clip-rule:evenodd;stroke-miterlimit:22.9256;"><g><path d="M47.195,34.523c-1.275,1.142 -4.113,7.895 -0.027,7.649c4.149,-0.252 1.239,-6.531 0.027,-7.649" style="fill:#d8d88c;"/><path d="M24.901,32.997c-1.307,1.246 -4.258,7.203 -0.557,7.24c2.942,0.029 2.476,-3.149 1.606,-5.312c-0.207,-0.515 -0.246,-0.598 -0.466,-1.025c-0.031,-0.06 -0.236,-0.441 -0.259,-0.477l-0.324,-0.426l0,0Z" style="fill:#e47268;"/><path d="M60.861,39.813c1.142,-1.645 0.452,-2.678 -0.415,-4.615c-0.559,-1.259 -0.429,-1.141 -1.017,-1.415c-0.352,1.443 -3.24,6.372 1.432,6.03" style="fill:#79d0af;"/><path d="M73.18,31.834c-0.59,0.322 -3.819,5.12 -0.911,5.555c3.423,0.514 1.097,-4.817 0.911,-5.555l0,0Z" style="fill-opacity:0.509804;stroke:#fefefe;stroke-opacity:0.509804;stroke-width:0.53px;"/><path d="M32.413,45.647c-0.166,0.194 -5.083,8.24 0.001,8.017c1.654,-0.074 2.69,-2.024 2.38,-3.884c-0.119,-0.711 -1.545,-3.356 -2.05,-3.868c-0.258,-0.264 -0.024,-0.081 -0.331,-0.265" style="fill:#f1e9a0;"/><path d="M66.787,37.027l-0.816,-0.314c-0.394,1.101 -0.957,2.095 -1.205,3.137c-0.348,1.46 0.064,2.943 1.58,2.913c3.662,-0.068 1.183,-4.176 0.441,-5.736" style="fill:#c7261a;"/><path d="M39.435,39.281c-0.823,1.359 -3.48,6.794 0.018,6.593c3.362,-0.194 0.57,-5 -0.018,-6.593" style="fill:#dcb0c4;"/><path d="M54.55,39.256c-0.916,0.307 -0.322,-0.23 -1.23,1.331c-0.284,0.488 -0.659,0.91 -0.815,1.598c-0.839,3.736 4.289,3.734 3.442,0.281c-0.238,-0.969 -1.155,-2.127 -1.397,-3.21" style="fill:#e47268;"/><path d="M72.621,39.863c-0.306,0.346 -1.334,2.41 -1.539,3.019c-0.449,1.323 0.247,2.792 1.712,2.695c3.203,-0.213 1.134,-4.649 -0.173,-5.714" style="fill:#ebebe8;"/><path d="M31.718,37.767c-0.405,0.702 -1.193,2.263 -1.389,3.051c-0.829,3.341 4.052,4.506 2.932,0.091c-0.139,-0.543 -0.382,-1.159 -0.595,-1.674c-0.562,-1.373 -0.386,-1.254 -0.948,-1.468" style="fill:#acd1d5;"/><path d="M37.211,52.684l-0.469,0.543c-3.786,6.023 2.723,6.656 1.83,2.516c-0.202,-0.927 -1.017,-2.079 -1.361,-3.059" style="fill:#d8d88c;"/><path d="M60.091,42.059c-0.76,1.192 -2.323,5.889 0.664,5.412c2.559,-0.408 0.049,-4.878 -0.664,-5.412" style="fill:#acd1d5;"/><path d="M18.568,43.449c-0.701,1.108 -2.149,5.775 0.71,5.24c1.016,-0.188 1.48,-1.577 0.941,-2.783c-0.287,-0.634 -0.894,-2.216 -1.651,-2.457" style="fill:#687685;"/><path d="M48.299,43.099c-0.944,1.017 -2.315,5.079 0.183,5.134c1.184,0.026 1.652,-1.278 1.251,-2.519c-0.155,-0.476 -1.127,-2.282 -1.434,-2.615" style="fill:#8c3885;"/><path d="M26.143,46.234c0.268,-1.299 -0.343,-3.539 -1.242,-3.97c-1.53,1.978 -1.389,5.671 1.242,3.97" style="fill:#c7261a;"/><path d="M40.832,51.134c0.149,-1.429 -0.382,-2.795 -1.191,-3.421c-1.454,1.439 -1.296,5.833 1.191,3.421" style="fill:#c7261a;"/><path d="M65.971,36.713l0.816,0.314c-0.269,-0.51 -0.125,-0.455 -0.615,-0.687l-0.201,0.373Z" style="fill-opacity:0.509804;stroke:#fefefe;stroke-opacity:0.509804;stroke-width:0.53px;"/><path d="M50.66,3.896c4.348,0 7.871,3.204 7.871,7.156c0,3.952 -3.523,7.154 -7.871,7.154c-4.346,0 -7.872,-3.202 -7.872,-7.154c0,-3.952 3.526,-7.156 7.872,-7.156Z" style="fill:#acce44;stroke:#272424;stroke-width:0.53px;"/><path d="M59.4,11.452c4.348,0 7.871,3.204 7.871,7.156c0,3.952 -3.523,7.156 -7.871,7.156c-4.348,0 -7.871,-3.204 -7.871,-7.156c0,-3.952 3.523,-7.156 7.871,-7.156l0,0Z" style="fill:#acce44;stroke:#272424;stroke-width:0.53px;"/><path d="M40.425,9.767c3.623,0 6.557,2.67 6.557,5.963c0,3.293 -2.934,5.961 -6.557,5.961c-3.622,0 -6.558,-2.668 -6.558,-5.961c0,-3.293 2.936,-5.963 6.558,-5.963Z" style="fill:#acce44;stroke:#272424;stroke-width:0.53px;"/><path d="M33.396,15.913c3.449,0 6.244,2.543 6.244,5.677c0,3.135 -2.795,5.677 -6.244,5.677c-3.449,0 -6.243,-2.542 -6.243,-5.677c0,-3.134 2.794,-5.677 6.243,-5.677l0,0Z" style="fill:#acce44;stroke:#272424;stroke-width:0.53px;"/><path d="M24.897,19.628c1.67,0 3.024,1.231 3.024,2.749c0,1.519 -1.354,2.75 -3.024,2.75c-1.67,0 -3.024,-1.231 -3.024,-2.75c0,-1.518 1.354,-2.749 3.024,-2.749Z" style="fill:#acce44;stroke:#272424;stroke-width:0.53px;"/><path d="M24.077,24.134c1.671,0 3.024,1.231 3.024,2.749c0,1.519 -1.353,2.75 -3.024,2.75c-1.669,0 -3.025,-1.231 -3.025,-2.75c0,-1.518 1.356,-2.749 3.025,-2.749Z" style="fill:#acce44;stroke:#272424;stroke-width:0.53px;"/><path d="M29.414,22.854c2.404,0 4.354,1.772 4.354,3.958c0,2.186 -1.95,3.958 -4.354,3.958c-2.406,0 -4.356,-1.772 -4.356,-3.958c0,-2.186 1.95,-3.958 4.356,-3.958Z" style="fill:#acce44;stroke:#272424;stroke-width:0.53px;"/><path d="M35.969,25.582c2.96,0 5.359,2.182 5.359,4.871c0,2.69 -2.399,4.869 -5.359,4.869c-2.959,0 -5.357,-2.179 -5.357,-4.869c0,-2.689 2.398,-4.871 5.357,-4.871l0,0Z" style="fill:#acce44;stroke:#000;stroke-width:0.53px;"/><path d="M46.787,23.808c2.959,0 5.358,2.179 5.358,4.869c0,2.689 -2.399,4.87 -5.358,4.87c-2.959,0 -5.357,-2.181 -5.357,-4.87c0,-2.69 2.398,-4.869 5.357,-4.869Z" style="fill:#acce44;stroke:#272424;stroke-width:0.53px;"/><path d="M69.274,17.069c2.96,0 5.358,2.182 5.358,4.871c0,2.689 -2.398,4.872 -5.358,4.872c-2.959,0 -5.357,-2.183 -5.357,-4.872c0,-2.689 2.398,-4.871 5.357,-4.871l0,0Z" style="fill:#acce44;stroke:#272424;stroke-width:0.53px;"/><path d="M75.557,19.877c2.312,0 4.188,1.705 4.188,3.807c0,2.102 -1.876,3.807 -4.188,3.807c-2.313,0 -4.187,-1.705 -4.187,-3.807c0,-2.102 1.874,-3.807 4.187,-3.807Z" style="fill:#acce44;stroke:#272424;stroke-width:0.53px;"/><path d="M80.274,24.394c0.999,0 1.806,0.735 1.806,1.642c0,0.906 -0.807,1.64 -1.806,1.64c-0.995,0 -1.805,-0.734 -1.805,-1.64c0,-0.907 0.81,-1.642 1.805,-1.642Z" style="fill:#acce44;stroke:#272424;stroke-width:0.53px;"/><path d="M71.459,29.448c0.997,0 1.806,0.735 1.806,1.642c0,0.906 -0.809,1.641 -1.806,1.641c-0.997,0 -1.805,-0.735 -1.805,-1.641c0,-0.907 0.808,-1.642 1.805,-1.642Z" style="fill:#acce44;stroke:#272424;stroke-width:0.53px;"/><path d="M72.416,25.74c1.487,0 2.693,1.097 2.693,2.449c0,1.353 -1.206,2.447 -2.693,2.447c-1.488,0 -2.692,-1.094 -2.692,-2.447c0,-1.352 1.204,-2.449 2.692,-2.449Z" style="fill:#acce44;stroke:#272424;stroke-width:0.53px;"/><path d="M66.635,26.195c2.317,0 4.195,1.709 4.195,3.814c0,2.107 -1.878,3.816 -4.195,3.816c-2.316,0 -4.196,-1.709 -4.196,-3.816c0,-2.105 1.88,-3.814 4.196,-3.814Z" style="fill:#acce44;stroke:#272424;stroke-width:0.53px;"/><path d="M58.987,25.331c2.316,0 4.196,1.708 4.196,3.814c0,2.106 -1.88,3.813 -4.196,3.813c-2.317,0 -4.195,-1.707 -4.195,-3.813c0,-2.106 1.878,-3.814 4.195,-3.814Z" style="fill:#acce44;stroke:#272424;stroke-width:0.53px;"/><path d="M53.344,27.015c2.316,0 4.194,1.707 4.194,3.814c0,2.107 -1.878,3.815 -4.194,3.815c-2.319,0 -4.196,-1.708 -4.196,-3.815c0,-2.107 1.877,-3.814 4.196,-3.814Z" style="fill:#acce44;stroke:#272424;stroke-width:0.53px;"/><path d="M42.422,32.749c1.015,0 1.84,0.748 1.84,1.672c0,0.925 -0.825,1.672 -1.84,1.672c-1.016,0 -1.839,-0.747 -1.839,-1.672c0,-0.924 0.823,-1.672 1.839,-1.672Z" style="fill:#acce44;stroke:#000;stroke-width:0.53px;"/><path d="M53.994,21.033c2.407,0 4.355,1.773 4.355,3.959c0,2.185 -1.948,3.958 -4.355,3.958c-2.404,0 -4.354,-1.773 -4.354,-3.958c0,-2.186 1.95,-3.959 4.354,-3.959Z" style="fill:#acce44;stroke:#272424;stroke-width:0.53px;"/><path d="M49.463,16.558c2.404,0 4.355,1.772 4.355,3.959c0,2.187 -1.951,3.958 -4.355,3.958c-2.405,0 -4.355,-1.771 -4.355,-3.958c0,-2.187 1.95,-3.959 4.355,-3.959Z" style="fill:#acce44;stroke:#272424;stroke-width:0.53px;"/><path d="M54.947,19.487c0.999,0 1.805,0.735 1.805,1.641c0,0.907 -0.806,1.641 -1.805,1.641c-0.996,0 -1.804,-0.734 -1.804,-1.641c0,-0.906 0.808,-1.641 1.804,-1.641Z" style="fill:#acce44;stroke:#272424;stroke-width:0.53px;"/><path d="M62.993,24.146c0.997,0 1.806,0.735 1.806,1.641c0,0.907 -0.809,1.642 -1.806,1.642c-0.996,0 -1.805,-0.735 -1.805,-1.642c0,-0.906 0.809,-1.641 1.805,-1.641Z" style="fill:#acce44;stroke:#272424;stroke-width:0.53px;"/><path d="M40.323,22.765c1.671,0 3.026,1.231 3.026,2.75c0,1.517 -1.355,2.748 -3.026,2.748c-1.67,0 -3.024,-1.231 -3.024,-2.748c0,-1.519 1.354,-2.75 3.024,-2.75Z" style="fill:#acce44;stroke:#272424;stroke-width:0.53px;"/><path d="M43.501,18.769c2.284,0 4.135,1.682 4.135,3.758c0,2.075 -1.851,3.758 -4.135,3.758c-2.283,0 -4.134,-1.683 -4.134,-3.758c0,-2.076 1.851,-3.758 4.134,-3.758l0,0Z" style="fill:#acce44;stroke:#272424;stroke-width:0.53px;"/><path d="M19.444,24.398c1.119,0 2.027,0.825 2.027,1.842c0,1.018 -0.908,1.842 -2.027,1.842c-1.118,0 -2.027,-0.824 -2.027,-1.842c0,-1.017 0.909,-1.842 2.027,-1.842Z" style="fill:#acce44;stroke:#272424;stroke-width:0.53px;"/><path d="M39.614,66.871c0.797,0.061 1.353,-0.066 1.855,-0.349c0.343,-1.123 -0.114,-3.571 -1.092,-4.037c-0.547,0.327 -0.936,1.382 -1.138,1.972c-0.455,1.335 -0.168,1.553 0.375,2.414" style="fill:#ebecec;"/><path d="M16.621,68.338c-0.051,0.034 -0.099,0.052 -0.141,0.052c-0.041,0 -0.079,0.008 -0.114,0.025c-0.085,0.084 -0.182,0.136 -0.292,0.154c-0.112,0.016 -0.225,0.016 -0.345,0c-0.663,-0.102 -1.321,-0.243 -1.975,-0.422c-0.653,-0.178 -1.294,-0.411 -1.923,-0.7c-0.917,-0.442 -1.766,-1.027 -2.548,-1.757c-0.27,-0.238 -0.512,-0.501 -0.725,-0.79c-0.213,-0.289 -0.387,-0.604 -0.523,-0.944c-0.034,-0.101 -0.051,-0.186 -0.051,-0.255c0.034,-0.101 0.088,-0.165 0.166,-0.19c0.076,-0.026 0.156,-0.055 0.242,-0.089c0.254,-0.136 0.412,-0.339 0.471,-0.612c0.059,-0.271 -0.004,-0.518 -0.191,-0.738c-0.153,-0.188 -0.356,-0.263 -0.611,-0.231c-0.085,0.019 -0.162,0.035 -0.228,0.052c-0.069,0.017 -0.145,0.026 -0.231,0.026c-0.153,0.034 -0.246,-0.035 -0.281,-0.203c-0.016,-0.068 -0.024,-0.161 -0.024,-0.28c0,-0.289 -0.004,-0.575 -0.013,-0.855c-0.009,-0.28 -0.005,-0.564 0.013,-0.854c0.034,-0.44 0.105,-0.87 0.216,-1.286c0.109,-0.417 0.251,-0.827 0.42,-1.237c0.697,-1.647 1.801,-3.031 3.313,-4.151c0.593,-0.442 1.227,-0.785 1.897,-1.032c0.672,-0.246 1.379,-0.421 2.128,-0.522c0.339,-0.07 0.683,-0.111 1.031,-0.127c0.348,-0.018 0.701,-0.018 1.059,0c1.611,0.083 3.03,0.62 4.253,1.605c0.273,0.237 0.527,0.478 0.765,0.725c0.238,0.246 0.475,0.497 0.714,0.751c0.27,0.306 0.412,0.649 0.42,1.032c0.007,0.383 -0.107,0.719 -0.345,1.006c-0.255,0.324 -0.577,0.523 -0.968,0.599c-0.391,0.078 -0.763,0.022 -1.121,-0.165c-0.067,-0.033 -0.131,-0.072 -0.19,-0.114c-0.059,-0.043 -0.125,-0.081 -0.192,-0.115c-0.441,-0.34 -0.909,-0.62 -1.4,-0.84c-0.493,-0.221 -1.021,-0.375 -1.581,-0.46l-0.993,-0.228c-0.459,-0.087 -0.892,-0.078 -1.3,0.025c-0.135,0.034 -0.271,0.054 -0.407,0.063c-0.136,0.01 -0.271,0.031 -0.408,0.064c-1.358,0.289 -2.351,1.036 -2.981,2.242c-0.084,0.135 -0.152,0.28 -0.204,0.434c-0.05,0.153 -0.102,0.296 -0.152,0.432c-0.102,0.288 -0.186,0.595 -0.256,0.917c-0.067,0.051 -0.168,0.145 -0.305,0.28c-0.204,0.205 -0.22,0.418 -0.05,0.638c0.033,0.05 0.075,0.092 0.127,0.128c0.119,0.102 0.195,0.263 0.228,0.483c0.17,0.986 0.671,1.758 1.505,2.318c0.779,0.544 1.621,0.917 2.521,1.121c0.17,0.035 0.277,0.073 0.318,0.115c0.043,0.043 0.073,0.148 0.09,0.318c0.016,0.052 0.021,0.103 0.014,0.154c-0.01,0.05 -0.005,0.092 0.012,0.126c0.068,0.171 0.135,0.281 0.203,0.332c0.187,0.17 0.413,0.234 0.676,0.191c0.263,-0.042 0.462,-0.175 0.597,-0.395c0.036,-0.069 0.068,-0.136 0.104,-0.204c0.034,-0.068 0.067,-0.145 0.102,-0.229c0.049,0 0.1,-0.005 0.152,-0.012c0.052,-0.01 0.109,-0.005 0.178,0.012c0.475,0.035 0.95,0.063 1.427,0.089c0.476,0.026 0.959,0.021 1.451,-0.012c0.238,-0.035 0.486,-0.056 0.74,-0.064c0.254,-0.008 0.509,-0.03 0.763,-0.064c0.206,-0.033 0.413,-0.047 0.626,-0.037c0.211,0.007 0.419,0.011 0.622,0.011l1.301,0c0.797,0 1.588,0.145 2.37,0.434c0.136,0.033 0.259,0.085 0.368,0.152c0.111,0.068 0.218,0.144 0.319,0.23c0.356,0.306 0.442,0.67 0.256,1.095c-0.035,0.102 -0.082,0.203 -0.141,0.307c-0.06,0.102 -0.123,0.195 -0.191,0.279c-0.256,0.306 -0.544,0.558 -0.867,0.752c-0.322,0.195 -0.68,0.351 -1.069,0.471c-0.391,0.103 -0.787,0.174 -1.186,0.216c-0.399,0.043 -0.802,0.082 -1.209,0.116l-0.611,0.076c-0.154,0.016 -0.306,0.031 -0.46,0.038c-0.152,0.009 -0.296,0.013 -0.434,0.013c-0.711,0 -1.408,0 -2.088,0c-0.679,0 -1.367,-0.008 -2.063,-0.025l-0.28,0c-0.17,-0.018 -0.277,-0.047 -0.319,-0.089c-0.043,-0.044 -0.105,-0.166 -0.191,-0.371l0,0Zm-4.689,-12.584c0,-0.035 -0.016,-0.069 -0.049,-0.103c-0.034,-0.016 -0.077,-0.008 -0.128,0.025c-0.051,0.035 -0.077,0.068 -0.077,0.102c0,0.052 0.018,0.078 0.051,0.078c0.102,0.049 0.17,0.017 0.203,-0.102Zm1.988,10.852c0.034,0 0.056,0.005 0.064,0.012c0.008,0.01 0.021,0.014 0.039,0.014c-0.018,0 0,-0.026 0.051,-0.077c-0.051,-0.051 -0.077,-0.059 -0.077,-0.025c0,0 -0.025,0.025 -0.077,0.076l0,0Zm-6.369,-4.485c0.051,0.087 0.076,0.138 0.076,0.154c0,0.017 -0.041,0.043 -0.126,0.078c-0.035,-0.035 -0.052,-0.061 -0.052,-0.078c0.017,-0.034 0.031,-0.06 0.038,-0.076c0.009,-0.017 0.03,-0.042 0.064,-0.078" style="fill:#fefefe;fill-rule:nonzero;"/><path d="M26.685,53.053c0.034,0.101 0.06,0.182 0.076,0.241c0.017,0.06 0.043,0.114 0.077,0.166c0.085,0.204 0.22,0.298 0.406,0.28c0.29,0 0.451,-0.126 0.486,-0.381c0.05,-0.255 -0.026,-0.425 -0.232,-0.51c-0.049,-0.034 -0.113,-0.054 -0.189,-0.064c-0.077,-0.008 -0.158,-0.029 -0.242,-0.062c0.068,-0.036 0.123,-0.071 0.165,-0.104c0.043,-0.034 0.081,-0.06 0.115,-0.076c0.255,-0.101 0.518,-0.127 0.789,-0.077c0.272,0.051 0.518,0.129 0.739,0.231c0.358,0.168 0.625,0.394 0.803,0.673c0.178,0.282 0.292,0.617 0.343,1.007c0.086,0.611 0.124,1.223 0.115,1.834c-0.008,0.611 -0.003,1.223 0.014,1.834c0.016,0.392 0.021,0.775 0.011,1.148c-0.007,0.373 -0.011,0.747 -0.011,1.12c0,0.222 0,0.434 0,0.637c0,0.204 -0.036,0.408 -0.103,0.612c-0.016,0.051 -0.026,0.106 -0.026,0.165c0,0.06 0,0.114 0,0.166c0,0.067 0.005,0.128 0.015,0.179c0.007,0.049 0.003,0.11 -0.015,0.177c-0.032,0.29 -0.068,0.583 -0.101,0.88c-0.034,0.297 -0.068,0.598 -0.102,0.904c-0.034,0.273 -0.059,0.538 -0.076,0.803c-0.017,0.263 -0.043,0.538 -0.078,0.828c-0.016,0.118 -0.041,0.234 -0.075,0.343c-0.034,0.112 -0.034,0.234 0,0.37c0.068,0.069 0.136,0.101 0.203,0.101c0.068,0 0.145,-0.007 0.229,-0.025c0.392,-0.033 0.778,-0.068 1.16,-0.102c0.383,-0.034 0.769,-0.067 1.159,-0.102l2.421,0c0.458,0 0.907,0.026 1.351,0.078c0.237,0.033 0.466,0.042 0.687,0.024c0.22,-0.017 0.45,-0.017 0.687,0c0.154,0.018 0.31,0.03 0.472,0.039c0.16,0.009 0.319,0.02 0.471,0.038c0.102,0.018 0.205,0.029 0.305,0.038c0.103,0.01 0.205,0.012 0.306,0.012c0.612,0 1.216,0.026 1.808,0.077c0.392,0.035 0.775,0.089 1.148,0.165c0.374,0.078 0.756,0.15 1.146,0.218c0.171,0.033 0.332,0.083 0.486,0.152c0.236,0.102 0.313,0.289 0.228,0.562c-0.051,0.152 -0.128,0.279 -0.228,0.38c-0.052,0.051 -0.107,0.098 -0.166,0.141c-0.061,0.043 -0.133,0.081 -0.218,0.116c-0.51,0.287 -1.069,0.467 -1.682,0.534c-0.033,-0.067 -0.059,-0.132 -0.076,-0.191c-0.017,-0.061 -0.043,-0.123 -0.075,-0.191c-0.153,0.016 -0.311,0.03 -0.472,0.037c-0.161,0.009 -0.311,0.031 -0.446,0.065c-0.17,0.052 -0.331,0.153 -0.484,0.306c-0.153,0.186 -0.34,0.287 -0.561,0.305c-0.662,0.101 -1.325,0.204 -1.988,0.306c-0.661,0.101 -1.322,0.194 -1.986,0.28c-0.118,0.034 -0.242,0.042 -0.37,0.026c-0.127,-0.018 -0.241,-0.01 -0.343,0.025c-0.103,0.052 -0.208,0.085 -0.318,0.101c-0.111,0.018 -0.217,0.044 -0.319,0.077c-0.849,0.119 -1.685,0.239 -2.51,0.358c-0.822,0.118 -1.651,0.237 -2.484,0.356c-0.595,0.101 -1.155,0.084 -1.681,-0.051c-0.086,-0.035 -0.158,-0.061 -0.217,-0.078c-0.059,-0.016 -0.132,-0.042 -0.217,-0.076c-0.305,-0.151 -0.552,-0.352 -0.738,-0.597c-0.187,-0.247 -0.309,-0.514 -0.369,-0.803c-0.059,-0.29 -0.052,-0.586 0.024,-0.891c0.078,-0.306 0.225,-0.587 0.447,-0.841c0.067,-0.07 0.135,-0.133 0.204,-0.192c0.068,-0.06 0.127,-0.133 0.178,-0.216c0.152,-0.187 0.22,-0.4 0.204,-0.637c0,-0.136 -0.007,-0.247 -0.026,-0.332c-0.068,-0.305 -0.111,-0.619 -0.127,-0.943c-0.018,-0.322 -0.044,-0.645 -0.077,-0.967c-0.034,-0.289 -0.063,-0.578 -0.088,-0.867c-0.025,-0.289 -0.047,-0.578 -0.064,-0.865c-0.018,-0.119 -0.03,-0.231 -0.039,-0.332c-0.009,-0.102 -0.02,-0.212 -0.038,-0.331l0,-0.051c-0.018,-0.322 -0.043,-0.637 -0.076,-0.943c-0.035,-0.305 -0.067,-0.611 -0.102,-0.916c-0.017,-0.137 -0.026,-0.259 -0.026,-0.37c0,-0.112 -0.017,-0.234 -0.051,-0.37c-0.033,-0.339 -0.072,-0.687 -0.115,-1.044c-0.043,-0.356 -0.038,-0.723 0.014,-1.096c0.017,-0.085 0,-0.187 -0.052,-0.306c-0.119,-0.305 -0.178,-0.637 -0.178,-0.994l0,-0.966c0.017,-0.392 0.154,-0.783 0.408,-1.174c0.035,-0.067 0.081,-0.126 0.139,-0.177c0.06,-0.051 0.133,-0.119 0.218,-0.204l0,0Zm1.299,4.84c0,-0.118 -0.042,-0.217 -0.128,-0.293c-0.085,-0.076 -0.194,-0.105 -0.332,-0.089c-0.237,0 -0.355,0.136 -0.355,0.408c-0.018,0.119 0.012,0.217 0.09,0.292c0.075,0.076 0.164,0.116 0.265,0.116c0.138,0 0.247,-0.043 0.332,-0.128c0.086,-0.085 0.128,-0.187 0.128,-0.306Zm10.827,9.579c0,-0.015 0.005,-0.03 0.013,-0.038c0.008,-0.008 0.013,-0.021 0.013,-0.039c-0.051,-0.168 -0.174,-0.288 -0.369,-0.355c-0.196,-0.069 -0.361,-0.06 -0.497,0.024c-0.068,0.069 -0.103,0.112 -0.103,0.128c-0.083,0.203 -0.102,0.39 -0.051,0.561c0.036,0.102 0.112,0.135 0.23,0.102l0.764,-0.383l0,0Zm-9.707,-14.064c-0.032,-0.168 -0.11,-0.254 -0.229,-0.254c-0.135,0 -0.203,0.068 -0.203,0.205c0,0.049 0.026,0.096 0.075,0.14c0.052,0.042 0.12,0.047 0.206,0.013c0.033,0 0.057,-0.013 0.076,-0.038c0.016,-0.026 0.043,-0.047 0.075,-0.066Zm-0.177,4.282c0.033,0.033 0.067,0.068 0.102,0.101c0.033,0.034 0.067,0.06 0.101,0.077c0.034,0.016 0.072,0 0.115,-0.051c0.043,-0.052 0.064,-0.094 0.064,-0.127c-0.034,-0.138 -0.102,-0.187 -0.205,-0.154c-0.016,0 -0.075,0.052 -0.177,0.154Zm6.369,11.822c0.067,-0.07 0.102,-0.112 0.102,-0.129c-0.016,-0.067 -0.059,-0.118 -0.128,-0.153c-0.033,-0.017 -0.069,-0.008 -0.101,0.025c-0.034,0.034 -0.042,0.07 -0.026,0.103c0.016,0.051 0.068,0.102 0.153,0.154l0,0Zm3.058,-2.268c-0.07,0.083 -0.112,0.135 -0.129,0.151c-0.102,0.069 -0.154,0.044 -0.154,-0.075c-0.016,-0.034 -0.016,-0.064 0,-0.09c0.019,-0.025 0.036,-0.038 0.052,-0.038c0.034,0 0.068,0.005 0.102,0.013c0.034,0.008 0.077,0.022 0.129,0.039" style="fill:#fefefe;fill-rule:nonzero;"/><path d="M45.614,52.416c0.255,0.169 0.518,0.187 0.791,0.05c0.254,-0.136 0.406,-0.364 0.457,-0.686c0.017,-0.068 0.021,-0.133 0.013,-0.192c-0.008,-0.06 -0.013,-0.123 -0.013,-0.191c0,-0.222 0.112,-0.357 0.332,-0.408c0.034,0 0.072,-0.005 0.114,-0.012c0.042,-0.01 0.081,-0.014 0.114,-0.014c0.713,-0.084 1.398,-0.051 2.051,0.102c0.655,0.153 1.278,0.434 1.874,0.841c0.458,0.341 0.892,0.697 1.3,1.071c0.66,0.644 1.255,1.333 1.782,2.063c0.525,0.73 0.995,1.502 1.4,2.318c0.426,0.832 0.792,1.677 1.097,2.535c0.306,0.859 0.543,1.745 0.714,2.662c0.168,0.883 0.234,1.751 0.189,2.599c-0.041,0.85 -0.233,1.69 -0.571,2.521c-0.052,0.138 -0.107,0.268 -0.166,0.396c-0.06,0.127 -0.107,0.251 -0.14,0.37c-0.035,0.016 -0.061,0.035 -0.077,0.051c-0.017,0.017 -0.035,0.025 -0.051,0.025c-0.272,0.085 -0.429,0.161 -0.472,0.229c-0.042,0.069 -0.054,0.247 -0.037,0.535c-0.154,0.205 -0.332,0.396 -0.535,0.574c-0.205,0.178 -0.425,0.335 -0.662,0.472c-0.307,0.185 -0.626,0.335 -0.957,0.445c-0.332,0.11 -0.665,0.208 -1.005,0.294c-0.085,0.017 -0.213,0.024 -0.384,0.024c-0.186,0 -0.364,-0.003 -0.533,-0.012c-0.171,-0.01 -0.348,-0.005 -0.536,0.012c-0.443,0.035 -0.869,0.004 -1.287,-0.09c-0.416,-0.093 -0.819,-0.207 -1.209,-0.342c-0.646,-0.222 -1.27,-0.481 -1.874,-0.777c-0.603,-0.298 -1.193,-0.626 -1.771,-0.981c-0.593,-0.375 -1.095,-0.821 -1.503,-1.339c-0.407,-0.518 -0.756,-1.09 -1.044,-1.72c-0.221,-0.474 -0.408,-0.959 -0.561,-1.452c-0.152,-0.492 -0.279,-0.993 -0.38,-1.503c-0.069,-0.339 -0.129,-0.682 -0.18,-1.03c-0.051,-0.348 -0.093,-0.693 -0.126,-1.033c-0.035,-0.442 -0.04,-0.874 -0.014,-1.299c0.026,-0.424 0.089,-0.849 0.191,-1.273c0.085,-0.291 0.157,-0.582 0.217,-0.881c0.059,-0.296 0.123,-0.597 0.191,-0.903c0.033,-0.137 0.085,-0.251 0.152,-0.344c0.068,-0.094 0.18,-0.158 0.332,-0.192c0.051,0 0.11,-0.016 0.178,-0.05c0.051,-0.035 0.085,-0.09 0.101,-0.166c0.019,-0.077 0,-0.132 -0.05,-0.165c-0.033,-0.051 -0.076,-0.095 -0.127,-0.128c-0.051,-0.034 -0.102,-0.076 -0.153,-0.128c0.288,-0.644 0.624,-1.251 1.006,-1.82c0.381,-0.57 0.853,-1.076 1.415,-1.517c0.085,-0.068 0.166,-0.123 0.241,-0.165c0.076,-0.043 0.157,-0.09 0.242,-0.14c0.018,-0.017 0.042,-0.022 0.077,-0.012c0.034,0.007 0.059,0.02 0.076,0.036c0.05,0.052 0.076,0.12 0.076,0.204l-0.305,0.536l0,0Zm7.413,14.216c0.051,-0.068 0.098,-0.128 0.141,-0.179c0.043,-0.05 0.081,-0.102 0.115,-0.152c1.256,-1.529 1.603,-3.237 1.044,-5.122c-0.254,-0.916 -0.616,-1.757 -1.083,-2.52c-0.467,-0.766 -1.023,-1.487 -1.669,-2.168c-0.305,-0.306 -0.632,-0.56 -0.98,-0.763c-0.349,-0.204 -0.744,-0.322 -1.185,-0.356c-0.017,0 -0.034,-0.005 -0.052,-0.013c-0.016,-0.01 -0.032,-0.013 -0.05,-0.013c-0.017,-0.033 -0.026,-0.052 -0.026,-0.052c-0.017,-0.033 -0.026,-0.075 -0.026,-0.126c0,-0.255 -0.067,-0.455 -0.204,-0.599c-0.135,-0.145 -0.313,-0.259 -0.533,-0.344c-0.052,-0.035 -0.107,-0.052 -0.166,-0.052c-0.06,0 -0.114,-0.016 -0.166,-0.05c-0.068,-0.016 -0.13,-0.034 -0.191,-0.052c-0.059,-0.016 -0.124,-0.033 -0.191,-0.05c-0.052,-0.018 -0.099,-0.043 -0.14,-0.077c-0.042,-0.034 -0.106,-0.025 -0.191,0.026c0.102,0.288 0.059,0.594 -0.127,0.917c-0.119,0.22 -0.093,0.459 0.075,0.713c0.035,0.068 0.077,0.132 0.128,0.191c0.052,0.06 0.102,0.133 0.154,0.217c-0.341,0.271 -0.63,0.603 -0.868,0.994c-0.27,0.441 -0.483,0.908 -0.637,1.401c-0.151,0.492 -0.237,1.002 -0.254,1.528c-0.102,2.19 0.612,4.05 2.14,5.578c0.458,0.477 0.96,0.876 1.503,1.2c0.544,0.322 1.147,0.525 1.81,0.611c0.033,0 0.101,0.033 0.204,0.101c0,0.067 0,0.138 0,0.205c0,0.068 0.008,0.135 0.024,0.203c0.034,0.203 0.132,0.384 0.293,0.535c0.162,0.153 0.344,0.247 0.548,0.28c0.204,0.034 0.395,0.018 0.574,-0.049c0.177,-0.07 0.326,-0.197 0.445,-0.382c0.12,-0.189 0.166,-0.363 0.14,-0.524c-0.025,-0.161 -0.088,-0.327 -0.191,-0.497c-0.068,-0.085 -0.131,-0.174 -0.191,-0.268c-0.059,-0.093 -0.131,-0.189 -0.217,-0.292l0,0Zm-0.866,-12.255c0,-0.187 -0.067,-0.343 -0.204,-0.471c-0.135,-0.128 -0.305,-0.183 -0.509,-0.166c-0.152,0 -0.284,0.068 -0.394,0.204c-0.111,0.136 -0.166,0.298 -0.166,0.484c0,0.188 0.064,0.336 0.19,0.446c0.128,0.11 0.294,0.166 0.497,0.166c0.171,0 0.311,-0.064 0.42,-0.192c0.111,-0.127 0.166,-0.284 0.166,-0.471l0,0Zm-7.922,1.147c-0.187,0 -0.281,0.095 -0.281,0.28c0,0.187 0.094,0.281 0.281,0.281c0.238,0 0.357,-0.094 0.357,-0.281c0,-0.085 -0.039,-0.153 -0.117,-0.204c-0.075,-0.05 -0.156,-0.076 -0.24,-0.076l0,0Zm-1.045,4.075c0.034,-0.151 -0.035,-0.245 -0.204,-0.28c-0.17,0 -0.256,0.086 -0.256,0.257c-0.016,0.083 -0.003,0.156 0.039,0.215c0.042,0.06 0.106,0.081 0.192,0.064c0.151,0 0.229,-0.085 0.229,-0.256l0,0Zm10.266,10.498c-0.034,-0.052 -0.06,-0.09 -0.076,-0.114c-0.017,-0.026 -0.033,-0.056 -0.051,-0.091c-0.084,0.035 -0.136,0.077 -0.153,0.129c-0.067,0.067 -0.042,0.118 0.078,0.151c0.033,0 0.067,-0.007 0.1,-0.023c0.035,-0.019 0.068,-0.035 0.102,-0.052" style="fill:#fefefe;fill-rule:nonzero;"/><path d="M66.481,60.568c0.033,-0.169 0.054,-0.335 0.064,-0.497c0.007,-0.161 0.029,-0.327 0.062,-0.495c0.016,-0.138 0.026,-0.26 0.026,-0.37c0,-0.111 0,-0.235 0,-0.37l0,-5.477c0,-0.188 0.009,-0.361 0.025,-0.522c0.017,-0.161 0.034,-0.327 0.052,-0.497c0.017,-0.136 0.046,-0.264 0.089,-0.383c0.042,-0.118 0.089,-0.245 0.14,-0.383c0.373,-0.695 0.942,-0.95 1.708,-0.763c0.286,0.101 0.525,0.28 0.712,0.535c0.288,0.356 0.501,0.798 0.636,1.325c0.086,0.306 0.154,0.616 0.206,0.929c0.049,0.315 0.1,0.632 0.152,0.957c0.068,0.372 0.097,0.746 0.089,1.119c-0.008,0.374 0.03,0.748 0.114,1.12c0.018,0.104 0.026,0.206 0.026,0.308l0,3.541c0,0.237 -0.008,0.471 -0.026,0.7c-0.017,0.229 -0.042,0.464 -0.075,0.702c-0.036,0.389 -0.081,0.78 -0.14,1.171c-0.06,0.39 -0.123,0.782 -0.192,1.171c-0.119,0.579 -0.254,1.139 -0.408,1.683c-0.151,0.544 -0.364,1.078 -0.637,1.603c-0.171,0.325 -0.356,0.63 -0.56,0.92c-0.203,0.286 -0.44,0.559 -0.713,0.814c-0.696,0.663 -1.512,1.095 -2.447,1.3c-0.289,0.084 -0.585,0.122 -0.891,0.114c-0.306,-0.009 -0.611,-0.039 -0.917,-0.089c-0.34,-0.068 -0.645,-0.187 -0.917,-0.357c-0.273,-0.169 -0.527,-0.382 -0.766,-0.637c-0.185,-0.186 -0.346,-0.382 -0.482,-0.586c-0.136,-0.204 -0.274,-0.424 -0.409,-0.662c-0.27,-0.492 -0.497,-0.994 -0.675,-1.503c-0.178,-0.511 -0.335,-1.036 -0.471,-1.58c-0.135,-0.527 -0.25,-1.056 -0.344,-1.594c-0.094,-0.533 -0.166,-1.073 -0.216,-1.616c-0.017,-0.272 -0.047,-0.535 -0.09,-0.789c-0.043,-0.256 -0.08,-0.518 -0.114,-0.791l0,-0.1c0.034,-0.426 0.017,-0.843 -0.052,-1.249c-0.067,-0.409 -0.101,-0.824 -0.101,-1.248c0.034,-1.072 0.034,-2.159 0,-3.263c0,-0.322 0.085,-0.652 0.255,-0.993c0.135,-0.287 0.314,-0.519 0.535,-0.688c0.221,-0.17 0.491,-0.256 0.816,-0.256c0.338,0 0.639,0.074 0.903,0.218c0.263,0.145 0.481,0.361 0.651,0.649c0.05,0.102 0.093,0.209 0.126,0.319c0.035,0.11 0.068,0.217 0.102,0.317c0.017,0.087 0.031,0.164 0.038,0.232c0.009,0.067 0.014,0.143 0.014,0.228c0.033,0.424 0.059,0.85 0.075,1.274c0.018,0.425 0.044,0.857 0.077,1.299c0.019,0.101 0.03,0.199 0.038,0.293c0.009,0.093 0.022,0.182 0.038,0.268c0,0.051 0.01,0.098 0.026,0.14c0.016,0.042 0.026,0.09 0.026,0.14c0,0.39 0.03,0.787 0.089,1.185c0.06,0.399 0.107,0.794 0.14,1.184c0.153,1.614 0.501,3.227 1.045,4.841c0.084,0.306 0.245,0.629 0.484,0.968c0.135,0.187 0.293,0.285 0.471,0.293c0.179,0.008 0.335,-0.08 0.471,-0.267c0.034,-0.069 0.072,-0.133 0.114,-0.192c0.043,-0.059 0.082,-0.131 0.115,-0.216c0.118,-0.273 0.222,-0.543 0.305,-0.814c0.086,-0.273 0.154,-0.553 0.206,-0.842c0.033,-0.272 0.075,-0.54 0.126,-0.803c0.051,-0.264 0.102,-0.531 0.154,-0.802c0.016,-0.085 0.021,-0.158 0.012,-0.215c-0.007,-0.061 -0.005,-0.125 0.012,-0.192c0.018,-0.154 0.035,-0.301 0.052,-0.446c0.017,-0.144 0.026,-0.294 0.026,-0.445c0.017,-0.138 0.021,-0.278 0.012,-0.422c-0.01,-0.144 -0.012,-0.293 -0.012,-0.446l0,0Zm-5.25,7.236c0.306,0.035 0.501,-0.043 0.587,-0.229c0.033,-0.087 0.08,-0.149 0.14,-0.191c0.059,-0.043 0.122,-0.081 0.191,-0.116c0.188,-0.118 0.246,-0.297 0.178,-0.533c-0.016,-0.119 -0.063,-0.2 -0.14,-0.242c-0.076,-0.043 -0.156,-0.083 -0.242,-0.116c-0.084,-0.017 -0.161,-0.021 -0.229,-0.013c-0.067,0.01 -0.145,0.013 -0.228,0.013c-0.154,0 -0.257,0.069 -0.306,0.204c-0.087,0.135 -0.137,0.255 -0.154,0.357c0,0 0,0.042 0,0.126c0.034,0.035 0.077,0.066 0.128,0.09c0.05,0.026 0.093,0.055 0.126,0.09c-0.033,0.135 -0.051,0.213 -0.051,0.228l0,0.332Zm5.274,-3.312c0.018,0.034 0.035,0.079 0.051,0.141c0.018,0.058 0.043,0.113 0.077,0.165c0.084,0.119 0.182,0.191 0.294,0.217c0.11,0.024 0.232,0.021 0.369,-0.015c0.118,-0.032 0.199,-0.092 0.242,-0.177c0.042,-0.086 0.08,-0.179 0.114,-0.28l0,-0.102c0.034,-0.392 -0.161,-0.586 -0.586,-0.586c-0.204,0 -0.349,0.046 -0.433,0.14c-0.085,0.093 -0.128,0.259 -0.128,0.497l0,0Zm-5.732,1.835c0.12,0 0.225,-0.047 0.319,-0.14c0.092,-0.094 0.139,-0.208 0.139,-0.346c0,-0.085 -0.047,-0.166 -0.139,-0.241c-0.094,-0.076 -0.192,-0.114 -0.293,-0.114c-0.102,0 -0.195,0.047 -0.28,0.14c-0.086,0.094 -0.128,0.199 -0.128,0.319c0,0.083 0.037,0.169 0.114,0.254c0.078,0.085 0.166,0.128 0.268,0.128l0,0Zm2.089,-2.88c0,-0.203 -0.144,-0.289 -0.432,-0.255c-0.086,0 -0.153,0.038 -0.205,0.115c-0.05,0.077 -0.067,0.165 -0.05,0.269c0.034,0.219 0.144,0.312 0.33,0.279c0.272,0 0.391,-0.135 0.357,-0.408l0,0Zm7.057,-2.828c-0.136,-0.238 -0.28,-0.322 -0.433,-0.254c-0.102,0.034 -0.169,0.093 -0.204,0.177c-0.067,0.138 -0.033,0.231 0.102,0.281c0.068,0.051 0.154,0.059 0.255,0.025c0.05,-0.033 0.097,-0.071 0.14,-0.114c0.043,-0.042 0.09,-0.08 0.14,-0.115l0,0Zm-1.121,2.676c0,0.084 0.026,0.157 0.077,0.216c0.051,0.06 0.11,0.089 0.177,0.089c0.155,0 0.248,-0.086 0.281,-0.255c0,-0.085 -0.026,-0.158 -0.075,-0.216c-0.051,-0.06 -0.112,-0.081 -0.18,-0.065c-0.187,0 -0.28,0.077 -0.28,0.231l0,0Zm-0.585,3.082c0.119,0 0.203,-0.021 0.254,-0.064c0.051,-0.043 0.094,-0.097 0.128,-0.166c0.033,-0.033 0.042,-0.075 0.026,-0.126c-0.018,-0.052 -0.052,-0.076 -0.103,-0.076c-0.118,-0.036 -0.229,-0.036 -0.331,0c-0.052,0.015 -0.093,0.055 -0.128,0.113c-0.033,0.061 -0.033,0.107 0,0.141c0.019,0.034 0.04,0.064 0.064,0.088c0.027,0.026 0.054,0.056 0.09,0.09l0,0Zm-7.414,-0.33c-0.034,-0.052 -0.06,-0.09 -0.077,-0.115c-0.016,-0.026 -0.035,-0.056 -0.051,-0.091c-0.016,-0.033 0,-0.072 0.051,-0.114c0.051,-0.042 0.093,-0.054 0.129,-0.037c0.101,0.016 0.135,0.076 0.101,0.177c-0.018,0.034 -0.069,0.093 -0.153,0.18" style="fill:#fefefe;fill-rule:nonzero;"/><path d="M77.614,67.829c0.05,-0.102 0.089,-0.177 0.115,-0.229c0.025,-0.051 0.046,-0.102 0.062,-0.153c0.068,-0.187 0.052,-0.322 -0.05,-0.407c-0.204,-0.154 -0.384,-0.17 -0.535,-0.051c-0.187,0.152 -0.254,0.314 -0.204,0.483c0.033,0.068 0.069,0.17 0.101,0.305c-0.05,0.052 -0.084,0.078 -0.101,0.078c-0.289,0.033 -0.569,0.059 -0.841,0.076c-0.271,0.017 -0.552,0.043 -0.84,0.076c-0.239,0.035 -0.471,0.064 -0.701,0.09c-0.23,0.026 -0.464,0.072 -0.702,0.14c-0.286,0.085 -0.568,0.111 -0.84,0.076c-0.271,-0.034 -0.543,-0.093 -0.815,-0.178c-0.678,-0.221 -1.019,-0.704 -1.019,-1.452c0,-0.475 0.094,-0.891 0.281,-1.247c0.288,-0.493 0.687,-0.818 1.197,-0.969c0.119,-0.034 0.233,-0.069 0.344,-0.103c0.111,-0.032 0.218,-0.068 0.318,-0.102c0.016,-0.068 0.042,-0.118 0.077,-0.153c0.017,-0.662 0.051,-1.32 0.102,-1.974c0.05,-0.653 0.059,-1.312 0.025,-1.974c-0.018,-0.118 -0.018,-0.256 0,-0.407c0.085,-0.561 0.123,-1.121 0.115,-1.683c-0.009,-0.56 -0.014,-1.13 -0.014,-1.706c0,-0.135 0.01,-0.276 0.026,-0.421c0.017,-0.143 0.035,-0.284 0.052,-0.42c0.05,-0.256 -0.061,-0.417 -0.332,-0.484c-0.305,-0.085 -0.603,-0.085 -0.891,0c-0.239,0.067 -0.471,0.097 -0.701,0.088c-0.23,-0.007 -0.455,-0.011 -0.676,-0.011c-0.135,0.016 -0.279,-0.036 -0.432,-0.154c-0.373,-0.288 -0.586,-0.645 -0.636,-1.069c-0.019,-0.086 -0.026,-0.161 -0.026,-0.23c0,-0.069 0,-0.144 0,-0.23c0,-0.424 0.114,-0.763 0.343,-1.018c0.23,-0.255 0.522,-0.416 0.879,-0.485c0.544,-0.102 1.083,-0.198 1.617,-0.291c0.535,-0.094 1.083,-0.125 1.644,-0.091c0.323,0.018 0.642,0.018 0.956,0c0.315,-0.016 0.632,-0.008 0.954,0.025c0.341,0.035 0.668,0.078 0.982,0.128c0.314,0.052 0.641,0.11 0.981,0.178c0.544,0.12 1.087,0.26 1.63,0.421c0.544,0.162 1.078,0.335 1.606,0.521c0.831,0.306 1.651,0.626 2.458,0.956c0.807,0.332 1.601,0.701 2.381,1.109c0.561,0.288 1.109,0.59 1.644,0.904c0.535,0.314 1.05,0.657 1.541,1.031c0.374,0.29 0.722,0.583 1.044,0.88c0.325,0.297 0.631,0.632 0.917,1.006c0.325,0.425 0.595,0.875 0.816,1.351c0.034,0.085 0.059,0.166 0.078,0.242c0.016,0.075 0.033,0.157 0.05,0.241c0.017,0.086 -0.008,0.163 -0.076,0.231c-0.137,0.135 -0.205,0.25 -0.205,0.343c0,0.093 0.077,0.208 0.231,0.343c0.033,0.018 0.054,0.031 0.062,0.039c0.008,0.01 0.031,0.021 0.064,0.038c0.052,0.204 0.063,0.395 0.037,0.574c-0.023,0.177 -0.07,0.361 -0.14,0.549c-0.236,0.694 -0.611,1.247 -1.12,1.654c-0.254,0.222 -0.522,0.408 -0.802,0.56c-0.281,0.153 -0.565,0.298 -0.855,0.434c-0.559,0.238 -1.132,0.446 -1.72,0.625c-0.585,0.177 -1.175,0.333 -1.768,0.471c-1.055,0.236 -2.098,0.446 -3.134,0.623c-1.036,0.179 -2.091,0.327 -3.16,0.446c-0.305,0.035 -0.606,0.077 -0.905,0.128c-0.296,0.052 -0.597,0.101 -0.904,0.153c-0.086,0.017 -0.169,0.029 -0.254,0.039c-0.086,0.007 -0.195,0.021 -0.331,0.037l0,0Zm0.637,-3.848c0.39,-0.033 0.773,-0.075 1.146,-0.126c0.373,-0.051 0.756,-0.094 1.147,-0.128c1.63,-0.187 3.226,-0.416 4.789,-0.688c0.526,-0.101 1.036,-0.219 1.529,-0.356c0.492,-0.136 0.976,-0.323 1.452,-0.562c0.102,-0.049 0.208,-0.104 0.318,-0.164c0.111,-0.059 0.209,-0.132 0.293,-0.217c0.273,-0.221 0.332,-0.51 0.179,-0.866c-0.136,-0.22 -0.29,-0.416 -0.459,-0.587c-0.222,-0.237 -0.455,-0.441 -0.7,-0.611c-0.247,-0.169 -0.514,-0.322 -0.803,-0.458c-0.306,-0.17 -0.615,-0.331 -0.931,-0.484c-0.313,-0.153 -0.622,-0.306 -0.929,-0.458c-1.24,-0.544 -2.492,-1.02 -3.759,-1.428c-1.265,-0.407 -2.542,-0.789 -3.834,-1.146c-0.339,-0.083 -0.547,-0.093 -0.623,-0.026c-0.077,0.068 -0.09,0.281 -0.039,0.637c0.051,0.39 0.103,0.787 0.153,1.185c0.051,0.4 0.094,0.794 0.128,1.184c0.033,0.782 0.054,1.559 0.064,2.332c0.009,0.773 -0.031,1.559 -0.114,2.356c-0.019,0.052 -0.027,0.144 -0.027,0.281c0.017,0.204 0.126,0.314 0.332,0.33l0.688,0Zm6.011,1.811c0,-0.34 -0.203,-0.51 -0.611,-0.51c-0.338,0 -0.518,0.186 -0.534,0.559c0,0.187 0.062,0.341 0.191,0.46c0.126,0.119 0.292,0.17 0.497,0.152c0.135,0 0.246,-0.063 0.331,-0.19c0.084,-0.128 0.126,-0.284 0.126,-0.471Zm-8.713,1.12c0.341,0 0.544,-0.145 0.612,-0.434c0.051,-0.22 -0.025,-0.372 -0.23,-0.457c-0.202,-0.086 -0.389,-0.061 -0.559,0.076c-0.171,0.136 -0.238,0.313 -0.205,0.535c0,0.119 0.069,0.204 0.205,0.254c0.033,0 0.068,0.005 0.101,0.012c0.034,0.01 0.06,0.014 0.076,0.014Zm-0.177,-4.942c-0.035,-0.035 -0.06,-0.072 -0.077,-0.114c-0.016,-0.043 -0.042,-0.082 -0.077,-0.116c-0.168,-0.084 -0.331,-0.084 -0.483,0c-0.086,0.034 -0.14,0.101 -0.166,0.204c-0.025,0.103 -0.013,0.186 0.039,0.255c0.066,0.068 0.118,0.102 0.152,0.102c0.085,-0.034 0.171,-0.065 0.254,-0.089c0.085,-0.025 0.171,-0.055 0.255,-0.091c0.036,0 0.052,-0.015 0.052,-0.049c0,-0.034 0.016,-0.07 0.051,-0.102l0,0Zm3.77,2.648c-0.221,-0.032 -0.33,0.052 -0.33,0.255c-0.035,0.238 0.05,0.375 0.254,0.409c0.102,0.016 0.191,-0.012 0.268,-0.09c0.075,-0.076 0.122,-0.166 0.14,-0.268c0,-0.187 -0.112,-0.287 -0.332,-0.306l0,0Zm-3.465,-3.591c-0.086,0.034 -0.154,0.051 -0.204,0.051c-0.05,0 -0.109,0.017 -0.178,0.051c-0.068,0.034 -0.11,0.096 -0.128,0.191c-0.016,0.092 0.008,0.157 0.077,0.191c0.085,0.067 0.186,0.086 0.305,0.051c0.035,-0.017 0.069,-0.043 0.103,-0.077c0.032,-0.033 0.051,-0.068 0.051,-0.101c0.017,-0.068 0.007,-0.187 -0.026,-0.357l0,0Zm11.362,4.713c0.086,0 0.162,-0.03 0.231,-0.089c0.068,-0.059 0.101,-0.132 0.101,-0.215c0,-0.171 -0.101,-0.255 -0.306,-0.255c-0.17,-0.036 -0.255,0.042 -0.255,0.228c0,0.22 0.078,0.331 0.229,0.331l0,0Zm1.834,-2.726c0,-0.152 -0.101,-0.246 -0.305,-0.28c-0.119,0 -0.194,0.093 -0.228,0.28c0,0.17 0.076,0.256 0.228,0.256c0.204,0 0.305,-0.086 0.305,-0.256Zm-2.928,1.732c-0.036,-0.17 -0.112,-0.254 -0.229,-0.254c-0.205,0 -0.308,0.084 -0.308,0.254c0,0.171 0.103,0.254 0.308,0.254c0.152,0 0.229,-0.083 0.229,-0.254Zm-3.491,0.127c0.119,0 0.177,-0.068 0.177,-0.203c0,-0.135 -0.074,-0.203 -0.227,-0.203c-0.137,0.033 -0.197,0.109 -0.179,0.229c0,0.05 0.021,0.098 0.063,0.14c0.042,0.042 0.098,0.055 0.166,0.037l0,0Zm-8.739,2.293c-0.033,0.052 -0.063,0.094 -0.088,0.128c-0.026,0.033 -0.047,0.068 -0.064,0.101c0,0.069 0.043,0.119 0.126,0.154c0.052,0.033 0.104,0.026 0.154,-0.026c0.052,-0.051 0.059,-0.11 0.026,-0.177c0,-0.019 -0.052,-0.078 -0.154,-0.18l0,0Zm3.925,0.102c-0.051,0.035 -0.096,0.064 -0.128,0.09c-0.035,0.026 -0.069,0.037 -0.103,0.037c-0.016,0.018 -0.037,0.01 -0.063,-0.025c-0.025,-0.033 -0.046,-0.067 -0.064,-0.102c-0.017,-0.034 0,-0.071 0.051,-0.114c0.051,-0.043 0.094,-0.055 0.128,-0.038c0.034,0.017 0.093,0.068 0.179,0.152" style="fill:#fefefe;fill-rule:nonzero;"/><path d="M56.963,51.476c0.148,-1.431 -0.384,-2.797 -1.191,-3.421c-1.456,1.439 -1.296,5.833 1.191,3.421" style="fill:#c7261a;"/><path d="M69.234,47.506c2.747,0.789 0.959,-3.111 0.831,-3.837c-0.231,0.352 -0.592,1.319 -0.773,1.73c-0.366,0.839 -0.442,1.37 -0.058,2.107" style="fill:#dcb0c4;"/></g></svg>