<?xml version="1.0" encoding="UTF-8" standalone="no"?><!DOCTYPE svg PUBLIC "-//W3C//DTD SVG 1.1//EN" "http://www.w3.org/Graphics/SVG/1.1/DTD/svg11.dtd"><svg width="100%" height="100%" viewBox="0 0 90 40" version="1.1" xmlns="http://www.w3.org/2000/svg" xmlns:xlink="http://www.w3.org/1999/xlink" xml:space="preserve" style="fill-rule:evenodd;clip-rule:evenodd;stroke-linejoin:round;stroke-miterlimit:1.41421;"><g><path d="M0.661,23.472c-0.183,0 -0.341,-0.069 -0.471,-0.206c-0.131,-0.138 -0.197,-0.299 -0.197,-0.482c0,-0.183 0.066,-0.34 0.197,-0.471c0.13,-0.131 0.288,-0.196 0.471,-0.196l4.301,0c0.183,0 0.343,0.065 0.481,0.196c0.138,0.131 0.206,0.288 0.206,0.471c0,0.183 -0.068,0.344 -0.206,0.482c-0.138,0.137 -0.298,0.206 -0.481,0.206l-1.355,0l0,13.139c0,0.184 -0.069,0.344 -0.206,0.481c-0.138,0.138 -0.298,0.207 -0.481,0.207c-0.184,0 -0.341,-0.069 -0.472,-0.207c-0.131,-0.137 -0.196,-0.297 -0.196,-0.481l0,-13.139l-1.591,0l0,0Z" style="fill:#fefefe;fill-rule:nonzero;"/><path d="M6.258,37.24c-0.183,0 -0.34,-0.063 -0.471,-0.187c-0.131,-0.125 -0.203,-0.278 -0.216,-0.462c-0.027,-0.471 -0.043,-0.958 -0.049,-1.463c-0.007,-0.504 -0.01,-0.972 -0.01,-1.404c0,-1.702 0.069,-3.218 0.206,-4.547c0.138,-1.329 0.321,-2.471 0.55,-3.427c0.229,-0.955 0.487,-1.722 0.775,-2.298c0.288,-0.576 0.583,-0.962 0.885,-1.159c0.196,-0.091 0.416,-0.134 0.657,-0.127c0.242,0.006 0.449,0.055 0.619,0.147c0.289,0.196 0.543,0.543 0.766,1.041c0.222,0.498 0.409,1.126 0.56,1.886c0.15,0.759 0.262,1.633 0.334,2.621c0.072,0.989 0.108,2.079 0.108,3.27c-0.014,0.838 -0.039,1.722 -0.079,2.652c-0.039,0.93 -0.098,1.892 -0.177,2.887c-0.026,0.183 -0.101,0.334 -0.226,0.452c-0.124,0.118 -0.298,0.177 -0.52,0.177c-0.184,-0.027 -0.331,-0.115 -0.442,-0.266c-0.111,-0.15 -0.167,-0.31 -0.167,-0.481c0.079,-0.956 0.135,-1.8 0.167,-2.533c0.033,-0.734 0.056,-1.474 0.069,-2.22l-1.748,0c-0.209,0 -0.39,-0.003 -0.54,-0.009c-0.151,-0.007 -0.285,-0.017 -0.403,-0.03c-0.013,0.327 -0.023,0.655 -0.029,0.982c-0.007,0.327 -0.01,0.674 -0.01,1.041c0,0.864 0.02,1.787 0.059,2.769c0,0.184 -0.066,0.344 -0.196,0.481c-0.132,0.138 -0.288,0.207 -0.472,0.207l0,0Zm3.339,-6.796c-0.013,-2.187 -0.131,-3.836 -0.354,-4.949c-0.222,-1.113 -0.458,-1.781 -0.707,-2.004c-0.3,0.236 -0.605,0.93 -0.913,2.082c-0.307,1.153 -0.521,2.757 -0.639,4.812c0.263,0.027 0.616,0.043 1.061,0.049c0.445,0.007 0.963,0.01 1.552,0.01Zm-1.12,-6.992l0.059,0.039l-0.039,-0.039l-0.02,0Zm0.118,0l-0.059,0.039c0.013,0 0.027,-0.006 0.04,-0.019l0.019,-0.02l0,0Z" style="fill:#fefefe;fill-rule:nonzero;"/><path d="M10.834,33.724c0.027,-0.17 0.105,-0.32 0.236,-0.452c0.131,-0.131 0.288,-0.196 0.472,-0.196c0.183,0 0.34,0.072 0.471,0.216c0.131,0.144 0.196,0.307 0.196,0.491c-0.026,0.38 -0.016,0.704 0.03,0.972c0.046,0.268 0.108,0.488 0.186,0.658c0.079,0.171 0.171,0.295 0.275,0.373c0.105,0.079 0.203,0.125 0.294,0.138c0.079,0.012 0.145,-0.02 0.197,-0.099c0.052,-0.078 0.091,-0.189 0.118,-0.334c0.104,-0.641 0.18,-1.361 0.226,-2.16c0.045,-0.798 0.069,-1.63 0.069,-2.494c0,-0.747 -0.01,-1.496 -0.03,-2.249c-0.019,-0.752 -0.043,-1.502 -0.068,-2.248c0,-0.093 -0.004,-0.18 -0.01,-0.266c-0.007,-0.085 -0.01,-0.174 -0.01,-0.265l-0.079,-2.337l-1.198,0c-0.184,0 -0.344,-0.069 -0.481,-0.206c-0.138,-0.138 -0.206,-0.299 -0.206,-0.482c0,-0.183 0.068,-0.34 0.206,-0.471c0.137,-0.131 0.297,-0.196 0.481,-0.196l1.885,0c0.184,0 0.344,0.065 0.482,0.196c0.137,0.131 0.206,0.288 0.206,0.471c0,0.485 0.006,1.009 0.02,1.572c0.013,0.563 0.032,1.145 0.058,1.748l0,0.177c0.027,0.733 0.053,1.502 0.079,2.307c0.026,0.805 0.039,1.575 0.039,2.308c0,0.864 -0.026,1.718 -0.078,2.563c-0.053,0.844 -0.131,1.587 -0.236,2.229c-0.026,0.262 -0.092,0.494 -0.196,0.697c-0.105,0.203 -0.236,0.373 -0.393,0.511c-0.157,0.137 -0.327,0.239 -0.51,0.304c-0.184,0.065 -0.374,0.099 -0.571,0.099l-0.098,-0.02c-0.274,-0.014 -0.543,-0.095 -0.805,-0.246c-0.261,-0.15 -0.491,-0.373 -0.687,-0.668c-0.196,-0.294 -0.351,-0.661 -0.462,-1.099c-0.111,-0.439 -0.147,-0.953 -0.108,-1.542" style="fill:#fefefe;fill-rule:nonzero;"/><path d="M21.852,37.299c-0.183,0 -0.343,-0.069 -0.48,-0.207c-0.138,-0.137 -0.207,-0.297 -0.207,-0.481c0,-2.396 0.003,-4.41 0.01,-6.039c0.007,-1.631 0.02,-2.969 0.039,-4.017c0.02,-1.047 0.04,-1.846 0.059,-2.395c0.02,-0.551 0.049,-0.95 0.089,-1.199c0,-0.288 0.084,-0.504 0.254,-0.648c0.079,-0.092 0.155,-0.147 0.226,-0.166c0.073,-0.02 0.161,-0.017 0.266,0.009l0.02,0c0.012,0 0.022,0.003 0.029,0.01c0.007,0.006 0.023,0.01 0.049,0.01c0.091,0.026 0.163,0.058 0.216,0.097l0.158,0.178l-0.079,-0.06c0.039,0.027 0.079,0.066 0.118,0.118c0.039,0.052 0.065,0.099 0.078,0.138c0.432,1.794 0.845,3.405 1.237,4.832l0.275,1.041l0.157,0.549l0.059,-0.334c0.027,-0.196 0.062,-0.395 0.108,-0.599c0.046,-0.202 0.082,-0.403 0.109,-0.598l0.078,-0.413c0.144,-0.864 0.288,-1.679 0.432,-2.445c0.144,-0.766 0.334,-1.489 0.57,-2.171l0.019,-0.019c0.013,-0.013 0.02,-0.023 0.02,-0.03c0,-0.006 0.006,-0.016 0.02,-0.029l0.157,-0.138c0.026,-0.025 0.072,-0.052 0.137,-0.078c0.066,-0.026 0.112,-0.039 0.137,-0.039c0.014,0 0.024,-0.004 0.03,-0.01c0.007,-0.007 0.016,-0.01 0.029,-0.01l-0.118,0.02l0.059,-0.02c0.066,-0.026 0.138,-0.026 0.217,0c0.026,0 0.059,0 0.098,0c0.039,0 0.111,0.052 0.216,0.157l0.098,0.078c0.065,0.066 0.105,0.132 0.118,0.197c0.013,0.066 0.02,0.118 0.02,0.157c0.013,0 0.019,-0.006 0.019,-0.02c0,0 0.007,0 0.02,0c0,1.952 0.006,3.739 0.02,5.362c0.013,1.624 0.028,3.031 0.048,4.223c0.02,1.191 0.039,2.144 0.059,2.858c0.02,0.713 0.043,1.149 0.069,1.305c0,0.014 0.004,0.036 0.01,0.069c0.006,0.033 0.01,0.056 0.01,0.069c0,0.184 -0.069,0.344 -0.206,0.481c-0.138,0.138 -0.299,0.207 -0.482,0.207c-0.091,0 -0.173,-0.014 -0.245,-0.04c-0.072,-0.026 -0.138,-0.111 -0.197,-0.255c-0.059,-0.144 -0.114,-0.37 -0.166,-0.677c-0.053,-0.309 -0.095,-0.743 -0.128,-1.307c-0.033,-0.563 -0.062,-1.276 -0.088,-2.14c-0.027,-0.865 -0.046,-1.926 -0.059,-3.182c-0.079,0.419 -0.157,0.844 -0.236,1.276c-0.079,0.432 -0.17,0.878 -0.275,1.336l0,-0.079c0,0.014 -0.003,0.024 -0.01,0.03c-0.006,0.006 -0.01,0.016 -0.01,0.029c0,0.026 -0.013,0.072 -0.039,0.138c-0.026,0.065 -0.052,0.111 -0.079,0.137l-0.098,0.118l-0.176,0.118c-0.066,0.026 -0.118,0.042 -0.157,0.049c-0.04,0.006 -0.073,0.01 -0.099,0.01c-0.118,0 -0.223,-0.033 -0.314,-0.098c-0.079,-0.027 -0.15,-0.099 -0.216,-0.217l-0.098,-0.098c-0.105,-0.406 -0.213,-0.834 -0.324,-1.286c-0.112,-0.452 -0.233,-0.907 -0.364,-1.365l-0.255,-0.943c-0.065,-0.209 -0.121,-0.422 -0.167,-0.638c-0.046,-0.216 -0.101,-0.435 -0.166,-0.658c-0.014,1.165 -0.024,2.508 -0.03,4.026c-0.007,1.519 -0.01,3.195 -0.01,5.028c0,0.184 -0.069,0.344 -0.206,0.481c-0.138,0.138 -0.298,0.207 -0.482,0.207l0,0Zm0.826,-14.711l-0.098,-0.137c0.065,0.052 0.098,0.098 0.098,0.137Zm3.908,-0.334l-0.059,-0.059c0.039,0.026 0.059,0.046 0.059,0.059Zm-0.157,-0.098l0.098,0.039l-0.098,-0.039Z" style="fill:#fefefe;fill-rule:nonzero;"/><path d="M28.255,37.24c-0.183,0 -0.34,-0.063 -0.471,-0.187c-0.132,-0.125 -0.203,-0.278 -0.216,-0.462c-0.027,-0.471 -0.043,-0.958 -0.05,-1.463c-0.006,-0.504 -0.009,-0.972 -0.009,-1.404c0,-1.702 0.068,-3.218 0.206,-4.547c0.138,-1.329 0.321,-2.471 0.55,-3.427c0.229,-0.955 0.487,-1.722 0.775,-2.298c0.288,-0.576 0.583,-0.962 0.885,-1.159c0.195,-0.091 0.415,-0.134 0.657,-0.127c0.242,0.006 0.448,0.055 0.619,0.147c0.288,0.196 0.543,0.543 0.766,1.041c0.222,0.498 0.409,1.126 0.559,1.886c0.151,0.759 0.263,1.633 0.335,2.621c0.071,0.989 0.108,2.079 0.108,3.27c-0.014,0.838 -0.04,1.722 -0.079,2.652c-0.039,0.93 -0.098,1.892 -0.177,2.887c-0.026,0.183 -0.101,0.334 -0.226,0.452c-0.124,0.118 -0.298,0.177 -0.52,0.177c-0.184,-0.027 -0.331,-0.115 -0.442,-0.266c-0.111,-0.15 -0.167,-0.31 -0.167,-0.481c0.078,-0.956 0.134,-1.8 0.167,-2.533c0.032,-0.734 0.056,-1.474 0.069,-2.22l-1.748,0c-0.209,0 -0.39,-0.003 -0.541,-0.009c-0.15,-0.007 -0.284,-0.017 -0.402,-0.03c-0.013,0.327 -0.023,0.655 -0.029,0.982c-0.007,0.327 -0.01,0.674 -0.01,1.041c0,0.864 0.02,1.787 0.059,2.769c0,0.184 -0.066,0.344 -0.197,0.481c-0.131,0.138 -0.288,0.207 -0.471,0.207l0,0Zm3.339,-6.796c-0.013,-2.187 -0.131,-3.836 -0.354,-4.949c-0.222,-1.113 -0.458,-1.781 -0.707,-2.004c-0.301,0.236 -0.605,0.93 -0.913,2.082c-0.308,1.153 -0.521,2.757 -0.639,4.812c0.263,0.027 0.616,0.043 1.061,0.049c0.445,0.007 0.963,0.01 1.552,0.01Zm-1.12,-6.992l0.059,0.039l-0.039,-0.039l-0.02,0Zm0.118,0l-0.059,0.039c0.013,0 0.027,-0.006 0.039,-0.019l0.02,-0.02l0,0Z" style="fill:#fefefe;fill-rule:nonzero;"/><path d="M33.303,36.611c0,-1.898 -0.007,-3.64 -0.02,-5.224c-0.014,-1.585 -0.029,-2.966 -0.049,-4.144c-0.02,-1.179 -0.039,-2.131 -0.059,-2.858c-0.02,-0.727 -0.042,-1.188 -0.069,-1.384c-0.013,-0.027 -0.02,-0.063 -0.02,-0.108c0,-0.046 0,-0.082 0,-0.109c0,-0.183 0.066,-0.34 0.197,-0.471c0.131,-0.131 0.288,-0.196 0.471,-0.196c0.092,0 0.174,0.013 0.246,0.039c0.072,0.026 0.14,0.108 0.206,0.245c0.066,0.138 0.124,0.354 0.177,0.649c0.052,0.294 0.094,0.713 0.128,1.257c0.032,0.543 0.059,1.234 0.078,2.072c0.02,0.837 0.036,1.865 0.049,3.083l2.122,0l0,-6.678c0,-0.183 0.068,-0.34 0.205,-0.471c0.138,-0.131 0.298,-0.196 0.482,-0.196c0.183,0 0.343,0.065 0.481,0.196c0.137,0.131 0.206,0.288 0.206,0.471l0,13.827c0,0.184 -0.069,0.344 -0.206,0.481c-0.138,0.138 -0.298,0.207 -0.481,0.207c-0.184,0 -0.344,-0.069 -0.482,-0.207c-0.137,-0.137 -0.205,-0.297 -0.205,-0.481l0,-5.794l-2.102,0l0,5.794c0,0.184 -0.066,0.344 -0.196,0.481c-0.132,0.138 -0.288,0.207 -0.472,0.207c-0.183,0 -0.344,-0.069 -0.481,-0.207c-0.137,-0.137 -0.206,-0.297 -0.206,-0.481" style="fill:#fefefe;fill-rule:nonzero;"/><path d="M39.214,37.24c-0.183,0 -0.34,-0.063 -0.471,-0.187c-0.131,-0.125 -0.203,-0.278 -0.216,-0.462c-0.027,-0.471 -0.043,-0.958 -0.049,-1.463c-0.007,-0.504 -0.01,-0.972 -0.01,-1.404c0,-1.702 0.069,-3.218 0.206,-4.547c0.138,-1.329 0.321,-2.471 0.55,-3.427c0.229,-0.955 0.487,-1.722 0.775,-2.298c0.288,-0.576 0.583,-0.962 0.885,-1.159c0.196,-0.091 0.416,-0.134 0.657,-0.127c0.242,0.006 0.449,0.055 0.619,0.147c0.288,0.196 0.543,0.543 0.766,1.041c0.222,0.498 0.409,1.126 0.56,1.886c0.15,0.759 0.262,1.633 0.334,2.621c0.072,0.989 0.108,2.079 0.108,3.27c-0.014,0.838 -0.04,1.722 -0.079,2.652c-0.039,0.93 -0.098,1.892 -0.177,2.887c-0.026,0.183 -0.101,0.334 -0.226,0.452c-0.124,0.118 -0.298,0.177 -0.52,0.177c-0.184,-0.027 -0.331,-0.115 -0.442,-0.266c-0.111,-0.15 -0.167,-0.31 -0.167,-0.481c0.079,-0.956 0.135,-1.8 0.167,-2.533c0.033,-0.734 0.056,-1.474 0.069,-2.22l-1.748,0c-0.209,0 -0.39,-0.003 -0.54,-0.009c-0.151,-0.007 -0.285,-0.017 -0.403,-0.03c-0.013,0.327 -0.023,0.655 -0.029,0.982c-0.007,0.327 -0.01,0.674 -0.01,1.041c0,0.864 0.02,1.787 0.059,2.769c0,0.184 -0.066,0.344 -0.196,0.481c-0.132,0.138 -0.288,0.207 -0.472,0.207l0,0Zm3.339,-6.796c-0.013,-2.187 -0.131,-3.836 -0.354,-4.949c-0.222,-1.113 -0.458,-1.781 -0.707,-2.004c-0.301,0.236 -0.605,0.93 -0.913,2.082c-0.307,1.153 -0.521,2.757 -0.639,4.812c0.263,0.027 0.616,0.043 1.061,0.049c0.445,0.007 0.963,0.01 1.552,0.01Zm-1.12,-6.992l0.059,0.039l-0.039,-0.039l-0.02,0l0,0Zm0.118,0l-0.059,0.039c0.013,0 0.027,-0.006 0.04,-0.019l0.019,-0.02l0,0Z" style="fill:#fefefe;fill-rule:nonzero;"/><path d="M44.851,37.24c-0.092,0 -0.177,-0.033 -0.256,-0.099c-0.183,-0.065 -0.288,-0.14 -0.314,-0.226c-0.026,-0.085 -0.039,-0.206 -0.039,-0.363c0,-0.013 0.003,-0.02 0.01,-0.02c0.006,0 0.01,-0.013 0.01,-0.039c-0.04,-0.235 -0.069,-0.625 -0.089,-1.169c-0.019,-0.543 -0.036,-1.339 -0.049,-2.385c-0.012,-1.048 -0.022,-2.391 -0.029,-4.027c-0.007,-1.637 -0.01,-3.666 -0.01,-6.088c0,-0.209 0.069,-0.377 0.206,-0.501c0.138,-0.124 0.298,-0.186 0.481,-0.186c0.184,0 0.344,0.062 0.482,0.186c0.137,0.124 0.206,0.292 0.206,0.501c0,1.833 0.003,3.496 0.01,4.988c0.006,1.493 0.013,2.792 0.019,3.899c0.007,1.106 0.016,2.016 0.03,2.73c0.013,0.713 0.026,1.201 0.039,1.463l0.137,0c0.223,0 0.485,0.003 0.786,0.01c0.301,0.007 0.648,0.01 1.041,0.01c0.183,0 0.34,0.068 0.471,0.206c0.132,0.138 0.197,0.298 0.197,0.481c0,0.184 -0.065,0.344 -0.197,0.481c-0.131,0.138 -0.288,0.207 -0.471,0.207c-0.786,0 -1.382,-0.004 -1.788,-0.01c-0.406,-0.007 -0.7,-0.024 -0.883,-0.049" style="fill:#fefefe;fill-rule:nonzero;"/><path d="M53.52,36.817l8.992,0l0,-10.403l-8.992,0l0,10.403Zm9.25,0.515l-9.508,0c-0.142,0 -0.257,-0.115 -0.257,-0.257l0,-10.918c0,-0.142 0.115,-0.257 0.257,-0.257l9.508,-0.001c0.142,0 0.257,0.116 0.257,0.258l0,10.918c0,0.142 -0.115,0.258 -0.257,0.257" style="fill:#fefefe;"/><path d="M53.686,26.154c-0.142,0 -0.258,-0.115 -0.258,-0.257l0,-2.294c0,-0.142 0.116,-0.257 0.258,-0.257c0.142,0 0.257,0.115 0.257,0.257l0,2.294c0,0.142 -0.115,0.257 -0.257,0.257" style="fill:#fefefe;"/><path d="M62.346,26.154c-0.142,0 -0.258,-0.115 -0.258,-0.257l0,-2.294c0,-0.142 0.116,-0.257 0.258,-0.257c0.142,0 0.257,0.115 0.257,0.257l0,2.294c0,0.142 -0.115,0.257 -0.257,0.257" style="fill:#fefefe;"/><path d="M54.746,36.817l6.639,0l0,-9.269l-6.639,0l0,9.269Zm6.896,0.515l-7.153,0c-0.142,0 -0.257,-0.115 -0.257,-0.257l0,-9.784c0,-0.143 0.115,-0.258 0.257,-0.258l7.153,0c0.143,0 0.258,0.115 0.258,0.258l0,9.784c0,0.142 -0.115,0.258 -0.258,0.257" style="fill:#fefefe;"/><path d="M55.938,36.817l4.256,0l0,-5.735c0,-1.16 -0.944,-2.104 -2.104,-2.104l-0.048,0c-1.161,0 -2.104,0.944 -2.104,2.104l0,5.735Zm4.513,0.515l-4.771,0c-0.142,0 -0.257,-0.115 -0.257,-0.257l0,-5.993c0,-1.445 1.174,-2.619 2.619,-2.619l0.048,0c1.443,0 2.619,1.174 2.619,2.619l0,5.993c0,0.142 -0.116,0.258 -0.258,0.257" style="fill:#fefefe;"/><path d="M55.579,16.834l4.973,0c-0.905,-0.574 -1.723,-1.234 -2.431,-1.961l-0.056,-0.057l-0.056,0.057c-0.707,0.727 -1.525,1.387 -2.43,1.961l0,0Zm5.86,0.515l-6.747,0c-0.115,0 -0.216,-0.076 -0.247,-0.186c-0.032,-0.11 0.012,-0.228 0.108,-0.289l0.746,-0.472c0.874,-0.554 1.661,-1.189 2.342,-1.888l0.24,-0.247c0.048,-0.05 0.115,-0.078 0.184,-0.078c0.07,0 0.136,0.028 0.185,0.078l0.24,0.247c0.68,0.699 1.469,1.334 2.342,1.888l0.745,0.471c0.096,0.062 0.141,0.18 0.109,0.29c-0.032,0.11 -0.132,0.186 -0.247,0.186" style="fill:#fefefe;"/><path d="M52.959,23.294l10.213,0c0.089,-0.387 0.133,-0.783 0.133,-1.182c0,-2.13 -1.265,-4.025 -3.229,-4.84l-4.021,0c-1.963,0.815 -3.23,2.71 -3.23,4.84c0,0.399 0.045,0.795 0.134,1.182l0,0Zm10.413,0.515l-10.614,0c-0.116,0 -0.217,-0.078 -0.248,-0.191c-0.133,-0.49 -0.199,-0.996 -0.199,-1.506c0,-1.169 0.347,-2.295 1.007,-3.255c0.644,-0.937 1.539,-1.656 2.59,-2.082c0.03,-0.012 0.063,-0.018 0.096,-0.018l4.122,0c0.033,0 0.067,0.006 0.098,0.018c1.049,0.426 1.945,1.145 2.589,2.082c0.659,0.96 1.007,2.086 1.007,3.255c0,0.51 -0.067,1.016 -0.199,1.506c-0.031,0.113 -0.133,0.191 -0.249,0.191" style="fill:#fefefe;"/><path d="M58.065,14.704c-0.142,0 -0.257,-0.115 -0.257,-0.257l0,-1.19c0,-0.142 0.115,-0.257 0.257,-0.257c0.143,-0.001 0.258,0.115 0.258,0.257l0,1.189c0,0.143 -0.115,0.258 -0.258,0.258" style="fill:#fefefe;"/><path d="M63.042,36.817l3.608,0l0,-8.293l-3.608,0l0,8.293Zm3.866,0.515l-4.123,0c-0.142,0 -0.257,-0.115 -0.257,-0.257l0,-8.808c0,-0.143 0.115,-0.258 0.257,-0.258l4.123,0c0.142,0 0.257,0.116 0.257,0.258l0,8.808c0,0.142 -0.115,0.258 -0.257,0.257" style="fill:#fefefe;"/><path d="M66.581,28.516l-3.47,0c-0.142,0 -0.258,-0.115 -0.258,-0.257l0,-1.947c0,-0.143 0.116,-0.257 0.258,-0.257c0.142,0 0.258,0.114 0.258,0.257l0,1.689l2.956,0l0,-1.689c0,-0.143 0.114,-0.257 0.256,-0.257c0.143,0 0.258,0.114 0.258,0.257l0,1.947c0,0.142 -0.115,0.257 -0.258,0.257" style="fill:#fefefe;"/><path d="M64.213,32.413l1.267,0l0,-1.981c0,-0.345 -0.28,-0.625 -0.624,-0.625l-0.018,0c-0.345,0 -0.625,0.28 -0.625,0.625l0,1.981Zm1.525,0.515l-1.783,0c-0.142,0 -0.257,-0.115 -0.257,-0.257l0,-2.239c0,-0.629 0.511,-1.14 1.14,-1.14l0.018,0c0.628,0 1.139,0.511 1.139,1.14l0,2.239c0,0.142 -0.115,0.257 -0.257,0.257" style="fill:#fefefe;"/><path d="M64.213,36.757l1.267,0l0,-1.981c0,-0.344 -0.28,-0.625 -0.624,-0.625l-0.018,0c-0.345,0 -0.625,0.281 -0.625,0.625l0,1.981Zm1.525,0.515l-1.783,0c-0.142,0 -0.257,-0.115 -0.257,-0.257l0,-2.239c0,-0.628 0.511,-1.14 1.14,-1.14l0.018,0c0.628,0 1.139,0.512 1.139,1.14l0,2.239c0,0.142 -0.115,0.258 -0.257,0.257" style="fill:#fefefe;"/><path d="M63.721,23.529l2.251,0c-0.412,-0.314 -0.79,-0.662 -1.125,-1.039c-0.337,0.377 -0.714,0.725 -1.126,1.039Zm3.051,0.515l-3.851,0c-0.112,0 -0.211,-0.073 -0.245,-0.179c-0.034,-0.108 0.004,-0.224 0.096,-0.288l0.425,-0.302c0.492,-0.348 0.935,-0.748 1.318,-1.188l0.137,-0.158c0.049,-0.056 0.12,-0.089 0.195,-0.089c0.074,0 0.145,0.033 0.194,0.089l0.137,0.158c0.383,0.44 0.826,0.84 1.318,1.188l0.425,0.301c0.091,0.065 0.131,0.181 0.097,0.289c-0.035,0.106 -0.134,0.179 -0.246,0.179" style="fill:#fefefe;"/><path d="M64.847,22.355c-0.142,0 -0.258,-0.115 -0.258,-0.257l0,-0.759c0,-0.143 0.116,-0.258 0.258,-0.258c0.142,0 0.257,0.115 0.257,0.258l0,0.759c0,0.142 -0.116,0.257 -0.257,0.257" style="fill:#fefefe;"/><path d="M63.05,25.789l3.594,0c0.014,-0.094 0.022,-0.189 0.022,-0.286c0,-0.576 -0.273,-1.116 -0.734,-1.459l-2.172,0c-0.46,0.343 -0.733,0.883 -0.733,1.459c0,0.096 0.008,0.192 0.023,0.286l0,0Zm3.801,0.515l-4.009,0c-0.116,0 -0.218,-0.078 -0.249,-0.19c-0.053,-0.198 -0.081,-0.404 -0.081,-0.611c0,-0.772 0.382,-1.494 1.021,-1.929c0.043,-0.03 0.094,-0.045 0.145,-0.045l2.336,0c0.052,0 0.103,0.015 0.146,0.045c0.638,0.435 1.021,1.157 1.021,1.929c0,0.207 -0.027,0.413 -0.081,0.611c-0.031,0.112 -0.133,0.19 -0.249,0.19" style="fill:#fefefe;"/><path d="M49.382,36.817l3.608,0l0,-8.293l-3.608,0l0,8.293Zm3.864,0.515l-4.122,0c-0.142,0 -0.257,-0.115 -0.257,-0.257l0,-8.808c0,-0.143 0.115,-0.258 0.257,-0.258l4.122,0c0.143,0 0.258,0.116 0.258,0.258l0,8.808c0,0.142 -0.115,0.258 -0.258,0.257" style="fill:#fefefe;"/><path d="M52.921,28.516l-3.471,0c-0.142,0 -0.257,-0.115 -0.257,-0.257l0,-1.947c0,-0.143 0.115,-0.257 0.257,-0.257c0.143,0 0.258,0.114 0.258,0.257l0,1.689l2.955,0l0,-1.689c0,-0.143 0.116,-0.257 0.258,-0.257c0.142,0 0.257,0.114 0.257,0.257l0,1.947c0,0.142 -0.115,0.257 -0.257,0.257" style="fill:#fefefe;"/><path d="M50.552,32.413l1.268,0l0,-1.981c0,-0.345 -0.281,-0.625 -0.626,-0.625l-0.018,0c-0.344,0 -0.624,0.28 -0.624,0.625l0,1.981Zm1.524,0.515l-1.782,0c-0.142,0 -0.257,-0.115 -0.257,-0.257l0,-2.239c0,-0.629 0.511,-1.14 1.139,-1.14l0.018,0c0.629,0 1.14,0.511 1.14,1.14l0,2.239c0,0.142 -0.116,0.257 -0.258,0.257" style="fill:#fefefe;"/><path d="M50.552,36.757l1.268,0l0,-1.981c0,-0.344 -0.281,-0.625 -0.626,-0.625l-0.018,0c-0.344,0 -0.624,0.281 -0.624,0.625l0,1.981Zm1.524,0.515l-1.782,0c-0.142,0 -0.257,-0.115 -0.257,-0.257l0,-2.239c0,-0.628 0.511,-1.14 1.139,-1.14l0.018,0c0.629,0 1.14,0.512 1.14,1.14l0,2.239c0,0.142 -0.116,0.258 -0.258,0.257" style="fill:#fefefe;"/><path d="M50.06,23.529l2.251,0c-0.412,-0.314 -0.789,-0.662 -1.126,-1.039c-0.335,0.377 -0.713,0.725 -1.125,1.039Zm3.051,0.515l-3.851,0c-0.113,0 -0.212,-0.073 -0.246,-0.179c-0.034,-0.108 0.006,-0.224 0.097,-0.288l0.425,-0.302c0.491,-0.348 0.935,-0.748 1.318,-1.188l0.137,-0.158c0.049,-0.056 0.12,-0.089 0.194,-0.089c0.075,0 0.145,0.033 0.195,0.089l0.137,0.158c0.383,0.44 0.826,0.84 1.317,1.188l0.426,0.301c0.092,0.065 0.13,0.181 0.096,0.289c-0.034,0.106 -0.133,0.179 -0.245,0.179" style="fill:#fefefe;"/><path d="M51.185,22.355c-0.142,0 -0.257,-0.115 -0.257,-0.257l0,-0.759c0,-0.143 0.115,-0.258 0.257,-0.258c0.142,0 0.258,0.115 0.258,0.258l0,0.759c0,0.142 -0.116,0.257 -0.258,0.257" style="fill:#fefefe;"/><path d="M49.388,25.789l3.594,0c0.015,-0.094 0.023,-0.189 0.023,-0.286c0,-0.576 -0.273,-1.116 -0.733,-1.459l-2.172,0c-0.461,0.343 -0.734,0.883 -0.734,1.459c0,0.096 0.007,0.192 0.022,0.286l0,0Zm3.802,0.515l-4.009,0c-0.117,0 -0.218,-0.078 -0.249,-0.19c-0.054,-0.198 -0.081,-0.404 -0.081,-0.611c0,-0.772 0.382,-1.494 1.021,-1.929c0.042,-0.03 0.093,-0.045 0.145,-0.045l2.337,0c0.051,0 0.102,0.015 0.145,0.045c0.639,0.435 1.021,1.157 1.021,1.929c0,0.207 -0.028,0.413 -0.082,0.611c-0.03,0.112 -0.132,0.19 -0.248,0.19" style="fill:#fefefe;"/><path d="M53.52,36.817l8.992,0l0,-10.403l-8.992,0l0,10.403Zm9.25,0.515l-9.508,0c-0.142,0 -0.257,-0.115 -0.257,-0.257l0,-10.918c0,-0.142 0.115,-0.257 0.257,-0.257l9.508,-0.001c0.142,0 0.257,0.116 0.257,0.258l0,10.918c0,0.142 -0.115,0.258 -0.257,0.257" style="fill:#fefefe;"/><path d="M53.686,26.154c-0.142,0 -0.258,-0.115 -0.258,-0.257l0,-2.294c0,-0.142 0.116,-0.257 0.258,-0.257c0.142,0 0.257,0.115 0.257,0.257l0,2.294c0,0.142 -0.115,0.257 -0.257,0.257" style="fill:#fefefe;"/><path d="M62.346,26.154c-0.142,0 -0.258,-0.115 -0.258,-0.257l0,-2.294c0,-0.142 0.116,-0.257 0.258,-0.257c0.142,0 0.257,0.115 0.257,0.257l0,2.294c0,0.142 -0.115,0.257 -0.257,0.257" style="fill:#fefefe;"/><path d="M54.746,36.817l6.639,0l0,-9.269l-6.639,0l0,9.269Zm6.896,0.515l-7.153,0c-0.142,0 -0.257,-0.115 -0.257,-0.257l0,-9.784c0,-0.143 0.115,-0.258 0.257,-0.258l7.153,0c0.143,0 0.258,0.115 0.258,0.258l0,9.784c0,0.142 -0.115,0.258 -0.258,0.257" style="fill:#fefefe;"/><path d="M55.938,36.817l4.256,0l0,-5.735c0,-1.16 -0.944,-2.104 -2.104,-2.104l-0.048,0c-1.161,0 -2.104,0.944 -2.104,2.104l0,5.735Zm4.513,0.515l-4.771,0c-0.142,0 -0.257,-0.115 -0.257,-0.257l0,-5.993c0,-1.445 1.174,-2.619 2.619,-2.619l0.048,0c1.443,0 2.619,1.174 2.619,2.619l0,5.993c0,0.142 -0.116,0.258 -0.258,0.257" style="fill:#fefefe;"/><path d="M55.579,16.834l4.973,0c-0.905,-0.574 -1.723,-1.234 -2.431,-1.961l-0.056,-0.057l-0.056,0.057c-0.707,0.727 -1.525,1.387 -2.43,1.961l0,0Zm5.86,0.515l-6.747,0c-0.115,0 -0.216,-0.076 -0.247,-0.186c-0.032,-0.11 0.012,-0.228 0.108,-0.289l0.746,-0.472c0.874,-0.554 1.661,-1.189 2.342,-1.888l0.24,-0.247c0.048,-0.05 0.115,-0.078 0.184,-0.078c0.07,0 0.136,0.028 0.185,0.078l0.24,0.247c0.68,0.699 1.469,1.334 2.342,1.888l0.745,0.471c0.096,0.062 0.141,0.18 0.109,0.29c-0.032,0.11 -0.132,0.186 -0.247,0.186" style="fill:#fefefe;"/><path d="M52.959,23.294l10.213,0c0.089,-0.387 0.133,-0.783 0.133,-1.182c0,-2.13 -1.265,-4.025 -3.229,-4.84l-4.021,0c-1.963,0.815 -3.23,2.71 -3.23,4.84c0,0.399 0.045,0.795 0.134,1.182l0,0Zm10.413,0.515l-10.614,0c-0.116,0 -0.217,-0.078 -0.248,-0.191c-0.133,-0.49 -0.199,-0.996 -0.199,-1.506c0,-1.169 0.347,-2.295 1.007,-3.255c0.644,-0.937 1.539,-1.656 2.59,-2.082c0.03,-0.012 0.063,-0.018 0.096,-0.018l4.122,0c0.033,0 0.067,0.006 0.098,0.018c1.049,0.426 1.945,1.145 2.589,2.082c0.659,0.96 1.007,2.086 1.007,3.255c0,0.51 -0.067,1.016 -0.199,1.506c-0.031,0.113 -0.133,0.191 -0.249,0.191" style="fill:#fefefe;"/><path d="M58.065,14.704c-0.142,0 -0.257,-0.115 -0.257,-0.257l0,-1.19c0,-0.142 0.115,-0.257 0.257,-0.257c0.143,-0.001 0.258,0.115 0.258,0.257l0,1.189c0,0.143 -0.115,0.258 -0.258,0.258" style="fill:#fefefe;"/><path d="M63.042,36.817l3.608,0l0,-8.293l-3.608,0l0,8.293Zm3.866,0.515l-4.123,0c-0.142,0 -0.257,-0.115 -0.257,-0.257l0,-8.808c0,-0.143 0.115,-0.258 0.257,-0.258l4.123,0c0.142,0 0.257,0.116 0.257,0.258l0,8.808c0,0.142 -0.115,0.258 -0.257,0.257" style="fill:#fefefe;"/><path d="M66.581,28.516l-3.47,0c-0.142,0 -0.258,-0.115 -0.258,-0.257l0,-1.947c0,-0.143 0.116,-0.257 0.258,-0.257c0.142,0 0.258,0.114 0.258,0.257l0,1.689l2.956,0l0,-1.689c0,-0.143 0.114,-0.257 0.256,-0.257c0.143,0 0.258,0.114 0.258,0.257l0,1.947c0,0.142 -0.115,0.257 -0.258,0.257" style="fill:#fefefe;"/><path d="M64.213,32.413l1.267,0l0,-1.981c0,-0.345 -0.28,-0.625 -0.624,-0.625l-0.018,0c-0.345,0 -0.625,0.28 -0.625,0.625l0,1.981Zm1.525,0.515l-1.783,0c-0.142,0 -0.257,-0.115 -0.257,-0.257l0,-2.239c0,-0.629 0.511,-1.14 1.14,-1.14l0.018,0c0.628,0 1.139,0.511 1.139,1.14l0,2.239c0,0.142 -0.115,0.257 -0.257,0.257" style="fill:#fefefe;"/><path d="M64.213,36.757l1.267,0l0,-1.981c0,-0.344 -0.28,-0.625 -0.624,-0.625l-0.018,0c-0.345,0 -0.625,0.281 -0.625,0.625l0,1.981Zm1.525,0.515l-1.783,0c-0.142,0 -0.257,-0.115 -0.257,-0.257l0,-2.239c0,-0.628 0.511,-1.14 1.14,-1.14l0.018,0c0.628,0 1.139,0.512 1.139,1.14l0,2.239c0,0.142 -0.115,0.258 -0.257,0.257" style="fill:#fefefe;"/><path d="M63.721,23.529l2.251,0c-0.412,-0.314 -0.79,-0.662 -1.125,-1.039c-0.337,0.377 -0.714,0.725 -1.126,1.039Zm3.051,0.515l-3.851,0c-0.112,0 -0.211,-0.073 -0.245,-0.179c-0.034,-0.108 0.004,-0.224 0.096,-0.288l0.425,-0.302c0.492,-0.348 0.935,-0.748 1.318,-1.188l0.137,-0.158c0.049,-0.056 0.12,-0.089 0.195,-0.089c0.074,0 0.145,0.033 0.194,0.089l0.137,0.158c0.383,0.44 0.826,0.84 1.318,1.188l0.425,0.301c0.091,0.065 0.131,0.181 0.097,0.289c-0.035,0.106 -0.134,0.179 -0.246,0.179" style="fill:#fefefe;"/><path d="M64.847,22.355c-0.142,0 -0.258,-0.115 -0.258,-0.257l0,-0.759c0,-0.143 0.116,-0.258 0.258,-0.258c0.142,0 0.257,0.115 0.257,0.258l0,0.759c0,0.142 -0.116,0.257 -0.257,0.257" style="fill:#fefefe;"/><path d="M63.05,25.789l3.594,0c0.014,-0.094 0.022,-0.189 0.022,-0.286c0,-0.576 -0.273,-1.116 -0.734,-1.459l-2.172,0c-0.46,0.343 -0.733,0.883 -0.733,1.459c0,0.096 0.008,0.192 0.023,0.286l0,0Zm3.801,0.515l-4.009,0c-0.116,0 -0.218,-0.078 -0.249,-0.19c-0.053,-0.198 -0.081,-0.404 -0.081,-0.611c0,-0.772 0.382,-1.494 1.021,-1.929c0.043,-0.03 0.094,-0.045 0.145,-0.045l2.336,0c0.052,0 0.103,0.015 0.146,0.045c0.638,0.435 1.021,1.157 1.021,1.929c0,0.207 -0.027,0.413 -0.081,0.611c-0.031,0.112 -0.133,0.19 -0.249,0.19" style="fill:#fefefe;"/><path d="M49.382,36.817l3.608,0l0,-8.293l-3.608,0l0,8.293Zm3.864,0.515l-4.122,0c-0.142,0 -0.257,-0.115 -0.257,-0.257l0,-8.808c0,-0.143 0.115,-0.258 0.257,-0.258l4.122,0c0.143,0 0.258,0.116 0.258,0.258l0,8.808c0,0.142 -0.115,0.258 -0.258,0.257" style="fill:#fefefe;"/><path d="M52.921,28.516l-3.471,0c-0.142,0 -0.257,-0.115 -0.257,-0.257l0,-1.947c0,-0.143 0.115,-0.257 0.257,-0.257c0.143,0 0.258,0.114 0.258,0.257l0,1.689l2.955,0l0,-1.689c0,-0.143 0.116,-0.257 0.258,-0.257c0.142,0 0.257,0.114 0.257,0.257l0,1.947c0,0.142 -0.115,0.257 -0.257,0.257" style="fill:#fefefe;"/><path d="M50.552,32.413l1.268,0l0,-1.981c0,-0.345 -0.281,-0.625 -0.626,-0.625l-0.018,0c-0.344,0 -0.624,0.28 -0.624,0.625l0,1.981Zm1.524,0.515l-1.782,0c-0.142,0 -0.257,-0.115 -0.257,-0.257l0,-2.239c0,-0.629 0.511,-1.14 1.139,-1.14l0.018,0c0.629,0 1.14,0.511 1.14,1.14l0,2.239c0,0.142 -0.116,0.257 -0.258,0.257" style="fill:#fefefe;"/><path d="M50.552,36.757l1.268,0l0,-1.981c0,-0.344 -0.281,-0.625 -0.626,-0.625l-0.018,0c-0.344,0 -0.624,0.281 -0.624,0.625l0,1.981Zm1.524,0.515l-1.782,0c-0.142,0 -0.257,-0.115 -0.257,-0.257l0,-2.239c0,-0.628 0.511,-1.14 1.139,-1.14l0.018,0c0.629,0 1.14,0.512 1.14,1.14l0,2.239c0,0.142 -0.116,0.258 -0.258,0.257" style="fill:#fefefe;"/><path d="M50.06,23.529l2.251,0c-0.412,-0.314 -0.789,-0.662 -1.126,-1.039c-0.335,0.377 -0.713,0.725 -1.125,1.039Zm3.051,0.515l-3.851,0c-0.113,0 -0.212,-0.073 -0.246,-0.179c-0.034,-0.108 0.006,-0.224 0.097,-0.288l0.425,-0.302c0.491,-0.348 0.935,-0.748 1.318,-1.188l0.137,-0.158c0.049,-0.056 0.12,-0.089 0.194,-0.089c0.075,0 0.145,0.033 0.195,0.089l0.137,0.158c0.383,0.44 0.826,0.84 1.317,1.188l0.426,0.301c0.092,0.065 0.13,0.181 0.096,0.289c-0.034,0.106 -0.133,0.179 -0.245,0.179" style="fill:#fefefe;"/><path d="M51.185,22.355c-0.142,0 -0.257,-0.115 -0.257,-0.257l0,-0.759c0,-0.143 0.115,-0.258 0.257,-0.258c0.142,0 0.258,0.115 0.258,0.258l0,0.759c0,0.142 -0.116,0.257 -0.258,0.257" style="fill:#fefefe;"/><path d="M49.388,25.789l3.594,0c0.015,-0.094 0.023,-0.189 0.023,-0.286c0,-0.576 -0.273,-1.116 -0.733,-1.459l-2.172,0c-0.461,0.343 -0.734,0.883 -0.734,1.459c0,0.096 0.007,0.192 0.022,0.286l0,0Zm3.802,0.515l-4.009,0c-0.117,0 -0.218,-0.078 -0.249,-0.19c-0.054,-0.198 -0.081,-0.404 -0.081,-0.611c0,-0.772 0.382,-1.494 1.021,-1.929c0.042,-0.03 0.093,-0.045 0.145,-0.045l2.337,0c0.051,0 0.102,0.015 0.145,0.045c0.639,0.435 1.021,1.157 1.021,1.929c0,0.207 -0.028,0.413 -0.082,0.611c-0.03,0.112 -0.132,0.19 -0.248,0.19" style="fill:#fefefe;"/></g></svg>